<svg id="svg" xmlns="http://www.w3.org/2000/svg" xmlns:xlink="http://www.w3.org/1999/xlink" width="400" height="400" viewBox="0, 0, 400,400"><g id="svgg"><path id="path0" d="M171.000 72.200 C 109.441 82.107,101.196 165.523,159.800 185.512 C 204.392 200.723,247.796 158.756,234.335 113.445 C 226.324 86.478,197.781 67.891,171.000 72.200 M307.099 131.228 C 306.273 131.664,305.103 132.767,304.499 133.680 L 303.400 135.340 303.283 151.053 L 303.165 166.765 287.483 166.883 C 269.833 167.015,270.259 166.945,267.992 170.074 L 266.800 171.720 266.800 181.280 C 266.800 191.474,266.897 192.066,268.862 193.853 C 271.227 196.004,271.190 196.000,287.759 196.000 L 303.157 196.000 303.279 211.730 L 303.400 227.460 304.500 229.122 C 306.539 232.201,307.841 232.581,316.848 232.729 C 332.436 232.986,332.400 233.036,332.400 211.315 L 332.400 196.000 347.816 196.000 C 369.411 196.000,369.193 196.149,369.198 181.371 C 369.202 166.754,369.279 166.806,347.300 166.802 L 332.400 166.800 332.400 151.649 C 332.400 129.749,332.842 130.388,317.716 130.418 C 309.421 130.434,308.465 130.507,307.099 131.228 M129.800 204.204 C 102.528 207.890,81.347 227.920,76.784 254.340 C 75.642 260.952,75.612 285.575,76.740 289.874 C 78.555 296.786,83.773 302.211,91.000 304.698 L 94.200 305.800 178.600 305.800 L 263.000 305.800 265.959 304.704 C 273.204 302.020,278.334 296.505,280.179 289.416 C 281.056 286.049,281.067 262.877,280.195 256.228 C 276.230 225.981,250.300 203.919,218.600 203.822 L 211.400 203.800 207.200 205.518 C 189.893 212.600,168.236 212.599,149.766 205.517 C 144.709 203.577,137.798 203.123,129.800 204.204 " stroke="none" fill="#fbfbfb" fill-rule="evenodd"></path><path id="path1" d="M183.600 2.838 C 70.481 12.607,-11.007 113.035,3.010 225.400 C 14.070 314.052,85.618 385.504,174.400 396.558 C 304.092 412.705,413.110 304.080,396.962 174.800 C 383.954 70.660,288.558 -6.226,183.600 2.838 M188.000 72.210 C 228.116 77.893,250.072 125.071,228.959 160.223 C 202.416 204.415,135.841 195.580,121.645 145.980 C 109.892 104.913,144.811 66.091,188.000 72.210 M328.217 130.752 C 332.563 132.726,332.795 133.799,332.798 151.900 L 332.800 166.800 348.213 166.800 C 370.173 166.800,369.344 166.174,369.124 182.600 C 368.933 196.790,369.899 196.154,348.300 196.318 L 332.800 196.435 332.798 211.118 C 332.794 233.098,333.000 232.800,317.800 232.800 C 302.556 232.800,302.800 233.147,302.800 211.430 L 302.800 196.435 287.300 196.318 C 265.807 196.155,266.291 196.473,266.072 182.348 C 265.827 166.621,265.582 166.800,287.387 166.800 L 302.800 166.800 302.800 151.587 C 302.800 133.456,302.942 132.814,307.400 130.756 C 309.791 129.653,325.789 129.649,328.217 130.752 M147.800 204.444 C 168.262 212.381,188.760 212.474,208.343 204.718 L 212.486 203.077 219.343 203.339 C 250.795 204.539,273.225 222.888,280.296 253.200 C 281.087 256.592,281.512 285.647,280.818 288.903 C 279.213 296.435,272.456 303.444,264.942 305.370 C 261.195 306.330,95.605 306.330,91.858 305.370 C 84.594 303.508,78.106 297.052,76.219 289.807 C 75.469 286.928,75.309 260.938,76.010 255.800 C 79.127 232.946,96.782 212.803,119.814 205.821 C 128.950 203.051,142.492 202.385,147.800 204.444 " stroke="none" fill="#34a4c4" fill-rule="evenodd"></path><path id="path2" d="M136.985 88.500 L 135.000 90.600 137.100 88.615 C 139.051 86.771,139.383 86.400,139.085 86.400 C 139.022 86.400,138.077 87.345,136.985 88.500 M218.000 86.925 C 218.000 86.994,218.585 87.579,219.300 88.225 L 220.600 89.400 219.425 88.100 C 218.330 86.888,218.000 86.616,218.000 86.925 M332.581 152.000 C 332.581 160.250,332.634 163.625,332.699 159.500 C 332.764 155.375,332.764 148.625,332.699 144.500 C 332.634 140.375,332.581 143.750,332.581 152.000 M220.000 171.400 C 219.028 172.390,218.323 173.200,218.433 173.200 C 218.543 173.200,219.428 172.390,220.400 171.400 C 221.372 170.410,222.077 169.600,221.967 169.600 C 221.857 169.600,220.972 170.410,220.000 171.400 M135.600 170.525 C 135.600 170.594,136.185 171.179,136.900 171.825 L 138.200 173.000 137.025 171.700 C 135.930 170.488,135.600 170.216,135.600 170.525 M332.581 211.000 C 332.581 219.140,332.634 222.413,332.700 218.274 C 332.765 214.134,332.765 207.474,332.699 203.474 C 332.634 199.473,332.581 202.860,332.581 211.000 M93.781 221.300 L 92.200 223.000 93.900 221.419 C 95.481 219.948,95.784 219.600,95.481 219.600 C 95.416 219.600,94.651 220.365,93.781 221.300 " stroke="none" fill="#7ac2d7" fill-rule="evenodd"></path><path id="path3" d="M221.400 90.800 C 222.259 91.680,223.052 92.400,223.162 92.400 C 223.272 92.400,222.659 91.680,221.800 90.800 C 220.941 89.920,220.148 89.200,220.038 89.200 C 219.928 89.200,220.541 89.920,221.400 90.800 M120.093 123.200 C 120.093 123.970,120.175 124.285,120.276 123.900 C 120.376 123.515,120.376 122.885,120.276 122.500 C 120.175 122.115,120.093 122.430,120.093 123.200 M236.501 125.000 C 236.505 125.880,236.587 126.193,236.683 125.695 C 236.779 125.198,236.775 124.478,236.675 124.095 C 236.575 123.713,236.496 124.120,236.501 125.000 M119.750 129.800 C 119.751 132.220,119.816 133.158,119.896 131.885 C 119.976 130.612,119.975 128.632,119.894 127.485 C 119.814 126.338,119.749 127.380,119.750 129.800 M236.937 131.000 C 236.939 132.760,237.009 133.430,237.093 132.489 C 237.178 131.549,237.177 130.109,237.091 129.289 C 237.005 128.470,236.936 129.240,236.937 131.000 M314.121 130.298 C 316.277 130.371,319.697 130.370,321.721 130.298 C 323.744 130.225,321.980 130.166,317.800 130.167 C 313.620 130.167,311.964 130.226,314.121 130.298 M120.093 136.800 C 120.093 137.570,120.175 137.885,120.276 137.500 C 120.376 137.115,120.376 136.485,120.276 136.100 C 120.175 135.715,120.093 136.030,120.093 136.800 M133.600 168.125 C 133.600 168.194,134.185 168.779,134.900 169.425 L 136.200 170.600 135.025 169.300 C 133.930 168.088,133.600 167.816,133.600 168.125 M138.400 172.925 C 138.400 172.994,138.985 173.579,139.700 174.225 L 141.000 175.400 139.825 174.100 C 138.730 172.888,138.400 172.616,138.400 172.925 M266.570 181.400 C 266.571 186.240,266.629 188.165,266.699 185.678 C 266.769 183.191,266.769 179.231,266.698 176.878 C 266.628 174.525,266.570 176.560,266.570 181.400 M151.600 182.179 C 151.600 182.289,152.140 182.659,152.800 183.000 C 153.460 183.341,154.000 183.531,154.000 183.421 C 154.000 183.311,153.460 182.941,152.800 182.600 C 152.140 182.259,151.600 182.069,151.600 182.179 M173.700 188.676 C 174.085 188.776,174.715 188.776,175.100 188.676 C 175.485 188.575,175.170 188.493,174.400 188.493 C 173.630 188.493,173.315 188.575,173.700 188.676 M181.700 188.676 C 182.085 188.776,182.715 188.776,183.100 188.676 C 183.485 188.575,183.170 188.493,182.400 188.493 C 181.630 188.493,181.315 188.575,181.700 188.676 M128.100 204.276 C 128.485 204.376,129.115 204.376,129.500 204.276 C 129.885 204.175,129.570 204.093,128.800 204.093 C 128.030 204.093,127.715 204.175,128.100 204.276 M260.000 219.000 C 260.746 219.770,261.447 220.400,261.557 220.400 C 261.667 220.400,261.146 219.770,260.400 219.000 C 259.654 218.230,258.953 217.600,258.843 217.600 C 258.733 217.600,259.254 218.230,260.000 219.000 M90.575 224.900 L 89.400 226.200 90.700 225.025 C 91.912 223.930,92.184 223.600,91.875 223.600 C 91.806 223.600,91.221 224.185,90.575 224.900 M280.501 258.200 C 280.505 259.080,280.587 259.393,280.683 258.895 C 280.779 258.398,280.775 257.678,280.675 257.295 C 280.575 256.913,280.496 257.320,280.501 258.200 M75.780 273.000 C 75.780 280.700,75.834 283.793,75.899 279.874 C 75.965 275.955,75.965 269.655,75.899 265.874 C 75.834 262.093,75.780 265.300,75.780 273.000 M280.979 274.000 C 280.979 281.150,281.033 284.075,281.099 280.500 C 281.166 276.925,281.166 271.075,281.099 267.500 C 281.033 263.925,280.979 266.850,280.979 274.000 M274.400 299.400 C 273.428 300.390,272.723 301.200,272.833 301.200 C 272.943 301.200,273.828 300.390,274.800 299.400 C 275.772 298.410,276.477 297.600,276.367 297.600 C 276.257 297.600,275.372 298.410,274.400 299.400 " stroke="none" fill="#b0dbe8" fill-rule="evenodd"></path><path id="path4" d="M302.982 151.200 C 302.982 159.670,303.035 163.135,303.099 158.900 C 303.164 154.665,303.164 147.735,303.099 143.500 C 303.035 139.265,302.982 142.730,302.982 151.200 M266.169 181.400 C 266.170 186.020,266.228 187.855,266.299 185.478 C 266.370 183.101,266.369 179.321,266.298 177.078 C 266.227 174.835,266.169 176.780,266.169 181.400 M287.695 196.297 L 302.791 196.410 302.903 211.705 L 303.015 227.000 303.007 211.600 L 303.000 196.200 287.800 196.193 L 272.600 196.185 287.695 196.297 M340.326 196.300 C 344.576 196.364,351.416 196.364,355.526 196.299 C 359.637 196.234,356.160 196.181,347.800 196.181 C 339.440 196.182,336.077 196.235,340.326 196.300 M137.900 203.496 C 139.275 203.574,141.525 203.574,142.900 203.496 C 144.275 203.418,143.150 203.354,140.400 203.354 C 137.650 203.354,136.525 203.418,137.900 203.496 M214.117 203.497 C 215.611 203.574,217.951 203.574,219.317 203.496 C 220.682 203.418,219.460 203.355,216.600 203.355 C 213.740 203.356,212.622 203.420,214.117 203.497 M170.100 210.276 C 170.485 210.376,171.115 210.376,171.500 210.276 C 171.885 210.175,171.570 210.093,170.800 210.093 C 170.030 210.093,169.715 210.175,170.100 210.276 M185.700 210.276 C 186.085 210.376,186.715 210.376,187.100 210.276 C 187.485 210.175,187.170 210.093,186.400 210.093 C 185.630 210.093,185.315 210.175,185.700 210.276 M175.105 210.683 C 175.602 210.779,176.322 210.775,176.705 210.675 C 177.087 210.575,176.680 210.496,175.800 210.501 C 174.920 210.505,174.607 210.587,175.105 210.683 M180.300 210.682 C 180.795 210.778,181.605 210.778,182.100 210.682 C 182.595 210.587,182.190 210.509,181.200 210.509 C 180.210 210.509,179.805 210.587,180.300 210.682 M260.400 218.910 C 260.400 218.971,261.795 220.366,263.500 222.010 L 266.600 225.000 263.610 221.900 C 260.833 219.021,260.400 218.617,260.400 218.910 M90.975 224.100 L 89.800 225.400 91.100 224.225 C 92.312 223.130,92.584 222.800,92.275 222.800 C 92.206 222.800,91.621 223.385,90.975 224.100 M274.575 299.700 L 273.400 301.000 274.700 299.825 C 275.415 299.179,276.000 298.594,276.000 298.525 C 276.000 298.216,275.670 298.488,274.575 299.700 " stroke="none" fill="#64bcd4" fill-rule="evenodd"></path></g></svg>