<svg id="svg" xmlns="http://www.w3.org/2000/svg" xmlns:xlink="http://www.w3.org/1999/xlink" width="400" height="400" viewBox="0, 0, 400,400"><g id="svgg"><path id="path0" d="M195.567 38.963 C 195.475 39.053,193.600 39.335,191.400 39.589 C 163.169 42.859,139.512 63.442,132.449 90.883 C 121.985 131.533,150.104 171.921,192.000 176.419 C 230.983 180.605,264.917 153.342,268.999 114.559 C 269.614 108.712,269.586 107.028,268.745 99.200 C 265.821 72.012,244.589 48.210,217.000 41.194 C 209.821 39.368,196.563 37.988,195.567 38.963 M208.600 56.748 C 246.001 63.069,264.409 105.381,243.426 136.800 C 224.059 165.800,181.659 168.079,159.512 141.309 C 128.586 103.929,160.677 48.649,208.600 56.748 M140.400 195.598 C 133.633 196.558,130.802 197.300,124.000 199.899 C 106.940 206.416,91.892 220.481,84.519 236.800 C 82.718 240.788,82.428 241.524,81.451 244.600 C 77.983 255.519,77.600 259.870,77.601 288.291 C 77.603 314.556,77.490 313.488,80.427 314.954 C 82.205 315.840,90.708 315.875,92.396 315.002 C 94.911 313.702,94.799 314.897,94.813 289.211 C 94.821 276.335,94.991 264.000,95.192 261.800 C 97.536 236.090,118.842 214.836,144.951 212.161 L 147.607 211.889 147.503 234.205 L 147.400 256.521 145.200 257.370 C 118.905 267.519,119.815 304.276,146.600 313.947 C 147.872 314.406,151.713 315.115,154.947 315.487 C 159.014 315.955,166.753 313.891,171.625 311.039 C 192.931 298.567,190.608 266.895,167.707 257.619 L 165.000 256.522 164.896 235.615 L 164.793 214.708 165.896 214.911 C 166.503 215.023,168.620 215.563,170.600 216.111 C 189.748 221.413,210.540 221.358,229.445 215.956 C 231.669 215.320,233.786 214.800,234.149 214.800 C 234.753 214.800,234.799 216.352,234.704 233.462 L 234.600 252.124 232.600 252.804 C 223.483 255.905,214.907 264.070,211.529 272.867 C 209.179 278.988,209.121 279.420,208.915 292.302 C 208.687 306.588,208.478 305.771,213.731 311.143 C 219.307 316.844,220.265 316.821,226.134 310.847 C 231.099 305.794,231.260 304.862,227.800 301.234 L 225.600 298.928 225.600 291.718 C 225.600 287.753,225.784 283.540,226.008 282.356 C 228.547 268.970,244.795 263.280,254.798 272.274 C 259.586 276.579,261.200 281.518,261.200 291.867 L 261.200 298.807 259.000 301.200 C 255.563 304.939,255.712 305.805,260.666 310.847 C 266.484 316.769,267.313 316.813,272.730 311.479 C 278.084 306.208,278.001 306.494,277.997 293.513 C 277.994 281.805,277.727 279.078,276.125 274.400 C 272.723 264.469,264.332 256.203,254.400 253.001 C 253.190 252.611,252.150 252.251,252.089 252.202 C 252.028 252.152,251.976 243.131,251.974 232.155 L 251.971 212.200 252.946 212.077 C 253.482 212.010,255.873 212.323,258.260 212.774 C 280.798 217.027,297.433 232.624,303.297 255.000 C 304.095 258.048,304.146 259.483,304.368 285.218 C 304.651 318.194,303.880 315.600,313.402 315.600 C 322.405 315.600,321.950 316.980,321.973 289.600 C 321.992 266.798,321.591 259.048,320.015 251.777 C 311.269 211.409,269.581 186.119,231.400 198.018 C 209.068 204.977,191.968 205.193,170.800 198.781 C 157.652 194.799,150.967 194.099,140.400 195.598 M161.569 273.384 C 169.164 277.233,171.740 286.001,167.210 292.585 C 160.759 301.962,146.682 299.761,143.372 288.857 C 140.226 278.489,151.957 268.514,161.569 273.384 " stroke="none" fill="#fbfbfb" fill-rule="evenodd"></path><path id="path1" d="M183.600 2.838 C 70.481 12.607,-11.007 113.035,3.010 225.400 C 14.070 314.052,85.618 385.504,174.400 396.558 C 304.092 412.705,413.110 304.080,396.962 174.800 C 383.954 70.660,288.558 -6.226,183.600 2.838 M210.627 39.217 C 263.042 48.427,287.569 107.901,256.065 149.400 C 220.125 196.744,145.244 181.243,131.426 123.600 C 123.721 91.459,141.542 56.686,172.131 44.174 C 173.489 43.619,174.960 43.008,175.400 42.818 C 177.601 41.865,184.340 40.091,188.400 39.396 C 192.096 38.763,207.344 38.640,210.627 39.217 M194.800 56.529 C 194.690 56.640,193.161 56.931,191.402 57.175 C 189.643 57.419,187.663 57.790,187.002 57.998 C 186.341 58.207,184.540 58.766,183.000 59.242 C 157.641 67.075,142.256 96.219,149.794 122.150 C 159.014 153.872,194.996 168.956,224.317 153.391 C 248.807 140.390,258.499 110.950,246.598 85.707 C 239.556 70.769,224.734 59.814,208.000 57.181 C 204.774 56.673,195.130 56.197,194.800 56.529 M160.200 195.376 C 162.620 195.892,165.500 196.589,166.600 196.925 C 178.183 200.459,179.246 200.734,184.854 201.654 C 195.164 203.344,213.598 202.707,221.400 200.391 C 240.973 194.580,241.832 194.400,250.018 194.400 C 280.725 194.400,308.556 214.715,318.517 244.400 C 321.838 254.298,321.777 253.564,321.913 285.048 L 322.035 313.097 320.982 314.348 L 319.929 315.600 313.418 315.600 C 303.135 315.600,304.053 318.490,303.888 285.600 C 303.762 260.265,303.729 259.281,302.884 255.800 C 299.395 241.427,292.692 231.439,280.400 222.300 C 275.044 218.317,264.984 214.377,257.200 213.213 C 255.550 212.966,253.795 212.679,253.300 212.574 L 252.400 212.385 252.400 232.192 C 252.400 250.788,252.443 252.000,253.100 252.005 C 257.407 252.035,268.630 260.193,272.502 266.107 C 277.782 274.174,278.400 276.952,278.400 292.613 C 278.400 307.056,278.777 305.723,273.067 311.500 L 269.014 315.600 266.903 315.600 L 264.793 315.600 260.643 311.500 C 255.252 306.172,254.914 304.418,258.586 300.813 L 260.400 299.033 260.400 291.260 C 260.400 284.669,260.279 283.081,259.606 280.821 C 254.723 264.425,231.939 264.378,226.969 280.753 C 226.568 282.075,226.407 284.917,226.404 290.761 L 226.400 298.923 228.400 301.037 C 230.279 303.024,230.400 303.279,230.400 305.259 L 230.400 307.365 226.104 311.483 C 220.092 317.245,219.453 317.261,213.885 311.792 C 208.134 306.143,208.399 307.036,208.405 293.316 C 208.410 281.089,208.646 279.065,210.715 273.535 C 214.174 264.291,223.098 255.405,231.910 252.430 L 234.200 251.657 234.304 233.381 L 234.408 215.105 233.504 215.380 C 229.788 216.515,221.607 218.528,218.800 218.999 C 216.930 219.312,214.332 219.752,213.028 219.975 C 206.282 221.130,191.047 220.835,182.800 219.389 C 176.731 218.325,168.431 216.354,165.859 215.367 C 165.242 215.130,165.200 216.616,165.296 235.596 L 165.400 256.081 167.427 256.940 C 191.516 267.158,193.801 299.152,171.348 311.831 C 162.526 316.812,150.154 316.992,141.600 312.264 C 118.242 299.352,120.470 266.738,145.400 256.618 L 147.000 255.969 147.000 234.154 L 147.000 212.340 145.800 212.583 C 145.140 212.716,143.340 213.004,141.800 213.223 C 122.717 215.930,105.290 230.246,98.678 248.648 C 95.772 256.736,95.851 255.787,95.614 285.400 C 95.348 318.740,96.327 315.600,86.196 315.600 L 79.938 315.600 78.769 314.431 L 77.600 313.262 77.600 286.407 C 77.600 269.767,77.760 258.459,78.020 256.677 C 81.604 232.098,98.493 210.182,121.400 200.386 C 121.840 200.198,123.035 199.679,124.054 199.233 C 133.870 194.939,150.059 193.212,160.200 195.376 M151.856 273.451 C 144.394 276.145,141.129 285.213,145.231 291.850 C 151.667 302.264,167.840 298.516,168.706 286.411 C 169.361 277.261,160.398 270.367,151.856 273.451 " stroke="none" fill="#34a4c4" fill-rule="evenodd"></path><path id="path2" d="M164.175 70.100 L 163.000 71.400 164.300 70.225 C 165.512 69.130,165.784 68.800,165.475 68.800 C 165.406 68.800,164.821 69.385,164.175 70.100 M236.600 71.600 C 238.128 73.140,239.469 74.400,239.579 74.400 C 239.689 74.400,238.528 73.140,237.000 71.600 C 235.472 70.060,234.131 68.800,234.021 68.800 C 233.911 68.800,235.072 70.060,236.600 71.600 M164.800 146.600 C 165.546 147.370,166.247 148.000,166.357 148.000 C 166.467 148.000,165.946 147.370,165.200 146.600 C 164.454 145.830,163.753 145.200,163.643 145.200 C 163.533 145.200,164.054 145.830,164.800 146.600 M197.712 159.895 C 198.764 159.977,200.384 159.976,201.312 159.892 C 202.240 159.808,201.380 159.741,199.400 159.742 C 197.420 159.743,196.660 159.812,197.712 159.895 M145.900 194.682 C 146.395 194.778,147.205 194.778,147.700 194.682 C 148.195 194.587,147.790 194.509,146.800 194.509 C 145.810 194.509,145.405 194.587,145.900 194.682 M151.705 194.687 C 152.314 194.779,153.214 194.777,153.705 194.682 C 154.197 194.587,153.700 194.511,152.600 194.514 C 151.500 194.517,151.097 194.595,151.705 194.687 M252.500 194.687 C 253.105 194.778,254.095 194.778,254.700 194.687 C 255.305 194.595,254.810 194.520,253.600 194.520 C 252.390 194.520,251.895 194.595,252.500 194.687 M189.700 202.676 C 190.085 202.776,190.715 202.776,191.100 202.676 C 191.485 202.575,191.170 202.493,190.400 202.493 C 189.630 202.493,189.315 202.575,189.700 202.676 M195.900 203.089 C 196.615 203.178,197.785 203.178,198.500 203.089 C 199.215 203.001,198.630 202.928,197.200 202.928 C 195.770 202.928,195.185 203.001,195.900 203.089 M201.100 203.089 C 201.815 203.178,202.985 203.178,203.700 203.089 C 204.415 203.001,203.830 202.928,202.400 202.928 C 200.970 202.928,200.385 203.001,201.100 203.089 M147.200 234.280 C 147.090 246.424,147.137 256.224,147.303 256.057 C 147.470 255.890,147.560 245.954,147.503 233.977 L 147.400 212.200 147.200 234.280 M252.185 232.000 C 252.185 242.450,252.236 246.725,252.300 241.500 C 252.363 236.275,252.363 227.725,252.300 222.500 C 252.236 217.275,252.185 221.550,252.185 232.000 M98.185 216.500 L 96.200 218.600 98.300 216.615 C 99.455 215.523,100.400 214.578,100.400 214.515 C 100.400 214.217,100.029 214.549,98.185 216.500 M301.000 216.400 C 302.083 217.500,303.060 218.400,303.170 218.400 C 303.280 218.400,302.483 217.500,301.400 216.400 C 300.317 215.300,299.340 214.400,299.230 214.400 C 299.120 214.400,299.917 215.300,301.000 216.400 M164.985 235.600 C 164.985 246.490,165.037 250.945,165.100 245.500 C 165.163 240.055,165.163 231.145,165.100 225.700 C 165.037 220.255,164.985 224.710,164.985 235.600 M234.584 233.400 C 234.584 243.080,234.636 246.983,234.700 242.073 C 234.763 237.163,234.763 229.243,234.700 224.473 C 234.636 219.703,234.584 223.720,234.584 233.400 M191.705 220.287 C 192.314 220.379,193.214 220.377,193.705 220.282 C 194.197 220.187,193.700 220.111,192.600 220.114 C 191.500 220.117,191.097 220.195,191.705 220.287 M207.100 220.282 C 207.595 220.378,208.405 220.378,208.900 220.282 C 209.395 220.187,208.990 220.109,208.000 220.109 C 207.010 220.109,206.605 220.187,207.100 220.282 M199.911 220.693 C 200.851 220.778,202.291 220.777,203.111 220.691 C 203.930 220.605,203.160 220.536,201.400 220.537 C 199.640 220.539,198.970 220.609,199.911 220.693 M288.400 229.000 C 289.595 230.210,290.663 231.200,290.773 231.200 C 290.883 231.200,289.995 230.210,288.800 229.000 C 287.605 227.790,286.537 226.800,286.427 226.800 C 286.317 226.800,287.205 227.790,288.400 229.000 M218.778 261.100 L 217.400 262.600 218.900 261.222 C 220.296 259.938,220.584 259.600,220.278 259.600 C 220.212 259.600,219.537 260.275,218.778 261.100 M134.181 264.100 L 132.600 265.800 134.300 264.219 C 135.881 262.748,136.184 262.400,135.881 262.400 C 135.816 262.400,135.051 263.165,134.181 264.100 M304.093 263.600 C 304.093 264.370,304.175 264.685,304.276 264.300 C 304.376 263.915,304.376 263.285,304.276 262.900 C 304.175 262.515,304.093 262.830,304.093 263.600 M241.700 268.276 C 242.085 268.376,242.715 268.376,243.100 268.276 C 243.485 268.175,243.170 268.093,242.400 268.093 C 241.630 268.093,241.315 268.175,241.700 268.276 M230.981 273.300 L 229.400 275.000 231.100 273.419 C 232.681 271.948,232.984 271.600,232.681 271.600 C 232.616 271.600,231.851 272.365,230.981 273.300 M278.109 282.800 C 278.109 283.790,278.187 284.195,278.282 283.700 C 278.378 283.205,278.378 282.395,278.282 281.900 C 278.187 281.405,278.109 281.810,278.109 282.800 M155.105 298.283 C 155.602 298.379,156.322 298.375,156.705 298.275 C 157.087 298.175,156.680 298.096,155.800 298.101 C 154.920 298.105,154.607 298.187,155.105 298.283 " stroke="none" fill="#77c1d7" fill-rule="evenodd"></path><path id="path3" d="M191.800 39.200 C 190.439 39.444,190.379 39.492,191.400 39.520 C 192.060 39.539,193.320 39.405,194.200 39.223 C 196.293 38.790,194.202 38.770,191.800 39.200 M206.600 39.223 C 207.480 39.405,208.650 39.544,209.200 39.531 C 209.841 39.516,209.626 39.389,208.600 39.177 C 207.720 38.995,206.550 38.856,206.000 38.869 C 205.359 38.884,205.574 39.011,206.600 39.223 M183.000 40.800 C 182.496 41.017,182.422 41.144,182.800 41.144 C 183.130 41.144,183.760 40.989,184.200 40.800 C 184.704 40.583,184.778 40.456,184.400 40.456 C 184.070 40.456,183.440 40.611,183.000 40.800 M154.575 55.300 L 153.400 56.600 154.700 55.425 C 155.912 54.330,156.184 54.000,155.875 54.000 C 155.806 54.000,155.221 54.585,154.575 55.300 M196.100 56.297 C 197.805 56.372,200.595 56.372,202.300 56.297 C 204.005 56.222,202.610 56.161,199.200 56.161 C 195.790 56.161,194.395 56.222,196.100 56.297 M150.189 59.300 L 147.400 62.200 150.300 59.411 C 151.895 57.877,153.200 56.572,153.200 56.511 C 153.200 56.217,152.780 56.606,150.189 59.300 M186.400 57.618 C 185.962 57.915,186.124 57.952,187.000 57.756 C 188.471 57.427,188.790 57.198,187.767 57.206 C 187.345 57.209,186.730 57.395,186.400 57.618 M249.200 59.400 C 250.395 60.610,251.463 61.600,251.573 61.600 C 251.683 61.600,250.795 60.610,249.600 59.400 C 248.405 58.190,247.337 57.200,247.227 57.200 C 247.117 57.200,248.005 58.190,249.200 59.400 M146.175 63.700 L 145.000 65.000 146.300 63.825 C 147.512 62.730,147.784 62.400,147.475 62.400 C 147.406 62.400,146.821 62.985,146.175 63.700 M168.785 66.029 L 167.400 67.258 168.900 66.181 C 170.226 65.230,170.657 64.800,170.285 64.800 C 170.222 64.800,169.547 65.353,168.785 66.029 M162.400 71.400 C 161.428 72.390,160.723 73.200,160.833 73.200 C 160.943 73.200,161.828 72.390,162.800 71.400 C 163.772 70.410,164.477 69.600,164.367 69.600 C 164.257 69.600,163.372 70.410,162.400 71.400 M237.200 71.800 C 237.946 72.570,238.647 73.200,238.757 73.200 C 238.867 73.200,238.346 72.570,237.600 71.800 C 236.854 71.030,236.153 70.400,236.043 70.400 C 235.933 70.400,236.454 71.030,237.200 71.800 M130.501 99.800 C 130.505 100.680,130.587 100.993,130.683 100.495 C 130.779 99.998,130.775 99.278,130.675 98.895 C 130.575 98.513,130.496 98.920,130.501 99.800 M268.901 99.800 C 268.905 100.680,268.987 100.993,269.083 100.495 C 269.179 99.998,269.175 99.278,269.075 98.895 C 268.975 98.513,268.896 98.920,268.901 99.800 M130.124 104.200 C 130.126 105.520,130.201 106.012,130.290 105.293 C 130.379 104.574,130.377 103.494,130.286 102.893 C 130.195 102.292,130.122 102.880,130.124 104.200 M269.324 104.200 C 269.326 105.520,269.401 106.012,269.490 105.293 C 269.579 104.574,269.577 103.494,269.486 102.893 C 269.395 102.292,269.322 102.880,269.324 104.200 M147.342 108.200 C 147.341 110.180,147.408 111.040,147.492 110.112 C 147.576 109.184,147.577 107.564,147.495 106.512 C 147.412 105.460,147.343 106.220,147.342 108.200 M252.140 108.000 C 252.140 109.870,252.209 110.635,252.293 109.700 C 252.377 108.765,252.377 107.235,252.293 106.300 C 252.209 105.365,252.140 106.130,252.140 108.000 M130.120 112.000 C 130.120 113.210,130.195 113.705,130.287 113.100 C 130.378 112.495,130.378 111.505,130.287 110.900 C 130.195 110.295,130.120 110.790,130.120 112.000 M269.314 112.200 C 269.317 113.300,269.395 113.703,269.487 113.095 C 269.579 112.486,269.577 111.586,269.482 111.095 C 269.387 110.603,269.311 111.100,269.314 112.200 M130.501 116.200 C 130.505 117.080,130.587 117.393,130.683 116.895 C 130.779 116.398,130.775 115.678,130.675 115.295 C 130.575 114.913,130.496 115.320,130.501 116.200 M268.901 116.200 C 268.905 117.080,268.987 117.393,269.083 116.895 C 269.179 116.398,269.175 115.678,269.075 115.295 C 268.975 114.913,268.896 115.320,268.901 116.200 M162.400 144.600 C 163.595 145.810,164.663 146.800,164.773 146.800 C 164.883 146.800,163.995 145.810,162.800 144.600 C 161.605 143.390,160.537 142.400,160.427 142.400 C 160.317 142.400,161.205 143.390,162.400 144.600 M236.985 144.500 L 235.000 146.600 237.100 144.615 C 239.051 142.771,239.383 142.400,239.085 142.400 C 239.022 142.400,238.077 143.345,236.985 144.500 M146.400 152.600 C 147.146 153.370,147.847 154.000,147.957 154.000 C 148.067 154.000,147.546 153.370,146.800 152.600 C 146.054 151.830,145.353 151.200,145.243 151.200 C 145.133 151.200,145.654 151.830,146.400 152.600 M252.778 152.700 L 251.400 154.200 252.900 152.822 C 254.296 151.538,254.584 151.200,254.278 151.200 C 254.212 151.200,253.537 151.875,252.778 152.700 M150.600 157.200 C 151.906 158.520,153.065 159.600,153.175 159.600 C 153.285 159.600,152.306 158.520,151.000 157.200 C 149.694 155.880,148.535 154.800,148.425 154.800 C 148.315 154.800,149.294 155.880,150.600 157.200 M248.585 157.300 L 246.600 159.400 248.700 157.415 C 250.651 155.571,250.983 155.200,250.685 155.200 C 250.622 155.200,249.677 156.145,248.585 157.300 M193.500 159.882 C 193.995 159.978,194.805 159.978,195.300 159.882 C 195.795 159.787,195.390 159.709,194.400 159.709 C 193.410 159.709,193.005 159.787,193.500 159.882 M203.705 159.887 C 204.314 159.979,205.214 159.977,205.705 159.882 C 206.197 159.787,205.700 159.711,204.600 159.714 C 203.500 159.717,203.097 159.795,203.705 159.887 M197.905 160.283 C 198.402 160.379,199.122 160.375,199.505 160.275 C 199.887 160.175,199.480 160.096,198.600 160.101 C 197.720 160.105,197.407 160.187,197.905 160.283 M191.500 176.682 C 191.995 176.778,192.805 176.778,193.300 176.682 C 193.795 176.587,193.390 176.509,192.400 176.509 C 191.410 176.509,191.005 176.587,191.500 176.682 M206.700 176.682 C 207.195 176.778,208.005 176.778,208.500 176.682 C 208.995 176.587,208.590 176.509,207.600 176.509 C 206.610 176.509,206.205 176.587,206.700 176.682 M195.907 177.090 C 196.626 177.179,197.706 177.177,198.307 177.086 C 198.908 176.995,198.320 176.922,197.000 176.924 C 195.680 176.926,195.188 177.001,195.907 177.090 M201.500 177.089 C 202.215 177.178,203.385 177.178,204.100 177.089 C 204.815 177.001,204.230 176.928,202.800 176.928 C 201.370 176.928,200.785 177.001,201.500 177.089 M148.900 194.676 C 149.285 194.776,149.915 194.776,150.300 194.676 C 150.685 194.575,150.370 194.493,149.600 194.493 C 148.830 194.493,148.515 194.575,148.900 194.676 M247.900 194.689 C 248.615 194.778,249.785 194.778,250.500 194.689 C 251.215 194.601,250.630 194.528,249.200 194.528 C 247.770 194.528,247.185 194.601,247.900 194.689 M140.100 195.476 C 140.485 195.576,141.115 195.576,141.500 195.476 C 141.885 195.375,141.570 195.293,140.800 195.293 C 140.030 195.293,139.715 195.375,140.100 195.476 M240.500 195.476 C 240.885 195.576,241.515 195.576,241.900 195.476 C 242.285 195.375,241.970 195.293,241.200 195.293 C 240.430 195.293,240.115 195.375,240.500 195.476 M127.800 198.214 C 126.800 198.696,126.766 198.751,127.600 198.548 C 128.733 198.271,130.007 197.621,129.400 197.630 C 129.180 197.633,128.460 197.896,127.800 198.214 M123.700 199.612 C 122.361 200.151,122.611 200.424,124.000 199.940 C 124.660 199.710,125.200 199.449,125.200 199.361 C 125.200 199.124,124.713 199.205,123.700 199.612 M219.000 201.200 C 217.981 201.638,219.032 201.638,220.400 201.200 C 221.204 200.943,221.243 200.877,220.600 200.868 C 220.160 200.862,219.440 201.011,219.000 201.200 M213.700 202.276 C 214.085 202.376,214.715 202.376,215.100 202.276 C 215.485 202.175,215.170 202.093,214.400 202.093 C 213.630 202.093,213.315 202.175,213.700 202.276 M187.300 202.676 C 187.685 202.776,188.315 202.776,188.700 202.676 C 189.085 202.575,188.770 202.493,188.000 202.493 C 187.230 202.493,186.915 202.575,187.300 202.676 M210.900 202.676 C 211.285 202.776,211.915 202.776,212.300 202.676 C 212.685 202.575,212.370 202.493,211.600 202.493 C 210.830 202.493,210.515 202.575,210.900 202.676 M192.105 203.087 C 192.714 203.179,193.614 203.177,194.105 203.082 C 194.597 202.987,194.100 202.911,193.000 202.914 C 191.900 202.917,191.497 202.995,192.105 203.087 M205.700 203.087 C 206.305 203.178,207.295 203.178,207.900 203.087 C 208.505 202.995,208.010 202.920,206.800 202.920 C 205.590 202.920,205.095 202.995,205.700 203.087 M101.200 213.800 C 100.228 214.790,99.523 215.600,99.633 215.600 C 99.743 215.600,100.628 214.790,101.600 213.800 C 102.572 212.810,103.277 212.000,103.167 212.000 C 103.057 212.000,102.172 212.810,101.200 213.800 M145.100 212.282 C 145.595 212.378,146.405 212.378,146.900 212.282 C 147.395 212.187,146.990 212.109,146.000 212.109 C 145.010 212.109,144.605 212.187,145.100 212.282 M251.867 212.267 C 251.720 212.413,251.603 212.728,251.606 212.967 C 251.610 213.246,251.718 213.233,251.911 212.930 C 252.076 212.671,252.928 212.386,253.805 212.297 L 255.400 212.134 253.767 212.067 C 252.868 212.030,252.013 212.120,251.867 212.267 M298.400 214.200 C 299.595 215.410,300.663 216.400,300.773 216.400 C 300.883 216.400,299.995 215.410,298.800 214.200 C 297.605 212.990,296.537 212.000,296.427 212.000 C 296.317 212.000,297.205 212.990,298.400 214.200 M132.200 215.014 C 131.200 215.496,131.166 215.551,132.000 215.348 C 133.133 215.071,134.407 214.421,133.800 214.430 C 133.580 214.433,132.860 214.696,132.200 215.014 M170.200 216.400 C 170.640 216.589,171.270 216.744,171.600 216.744 C 171.978 216.744,171.904 216.617,171.400 216.400 C 170.960 216.211,170.330 216.056,170.000 216.056 C 169.622 216.056,169.696 216.183,170.200 216.400 M227.800 216.400 C 227.296 216.617,227.222 216.744,227.600 216.744 C 227.930 216.744,228.560 216.589,229.000 216.400 C 229.504 216.183,229.578 216.056,229.200 216.056 C 228.870 216.056,228.240 216.211,227.800 216.400 M95.578 219.500 L 94.200 221.000 95.700 219.622 C 97.096 218.338,97.384 218.000,97.078 218.000 C 97.012 218.000,96.337 218.675,95.578 219.500 M185.505 219.483 C 186.002 219.579,186.722 219.575,187.105 219.475 C 187.487 219.375,187.080 219.296,186.200 219.301 C 185.320 219.305,185.007 219.387,185.505 219.483 M209.700 219.876 C 210.085 219.976,210.715 219.976,211.100 219.876 C 211.485 219.775,211.170 219.693,210.400 219.693 C 209.630 219.693,209.315 219.775,209.700 219.876 M197.300 220.297 C 199.005 220.372,201.795 220.372,203.500 220.297 C 205.205 220.222,203.810 220.161,200.400 220.161 C 196.990 220.161,195.595 220.222,197.300 220.297 M110.788 228.700 L 108.200 231.400 110.900 228.812 C 112.385 227.388,113.600 226.173,113.600 226.112 C 113.600 225.817,113.193 226.192,110.788 228.700 M288.800 229.000 C 289.546 229.770,290.247 230.400,290.357 230.400 C 290.467 230.400,289.946 229.770,289.200 229.000 C 288.454 228.230,287.753 227.600,287.643 227.600 C 287.533 227.600,288.054 228.230,288.800 229.000 M317.029 241.600 C 317.176 242.150,317.464 242.870,317.667 243.200 C 317.925 243.617,317.957 243.495,317.771 242.800 C 317.624 242.250,317.336 241.530,317.133 241.200 C 316.875 240.783,316.843 240.905,317.029 241.600 M77.813 260.213 C 77.657 261.671,77.614 262.947,77.716 263.050 C 77.819 263.152,78.031 262.044,78.187 260.587 C 78.343 259.129,78.386 257.853,78.284 257.750 C 78.181 257.648,77.969 258.756,77.813 260.213 M141.500 258.629 C 140.005 259.440,140.096 259.778,141.600 259.000 C 142.260 258.659,142.800 258.294,142.800 258.190 C 142.800 257.932,142.757 257.947,141.500 258.629 M219.387 260.900 L 217.000 263.400 219.500 261.013 C 220.875 259.699,222.000 258.574,222.000 258.513 C 222.000 258.217,221.605 258.578,219.387 260.900 M321.482 262.200 C 321.599 264.400,321.764 266.275,321.848 266.367 C 322.106 266.649,321.939 262.722,321.594 260.400 C 321.359 258.810,321.327 259.309,321.482 262.200 M267.800 261.200 C 268.659 262.080,269.452 262.800,269.562 262.800 C 269.672 262.800,269.059 262.080,268.200 261.200 C 267.341 260.320,266.548 259.600,266.438 259.600 C 266.328 259.600,266.941 260.320,267.800 261.200 M177.183 263.700 C 178.841 265.466,179.200 265.784,179.200 265.483 C 179.200 265.419,178.345 264.564,177.300 263.583 L 175.400 261.800 177.183 263.700 M94.988 288.200 C 94.988 301.400,95.038 306.742,95.100 300.071 C 95.161 293.401,95.161 282.601,95.100 276.071 C 95.038 269.542,94.988 275.000,94.988 288.200 M238.456 268.459 C 237.717 268.672,237.183 268.917,237.270 269.003 C 237.357 269.090,238.321 268.916,239.414 268.616 C 240.506 268.317,241.040 268.072,240.600 268.072 C 240.160 268.072,239.195 268.246,238.456 268.459 M255.183 272.900 C 256.164 273.945,257.019 274.800,257.083 274.800 C 257.384 274.800,257.066 274.441,255.300 272.783 L 253.400 271.000 255.183 272.900 M155.905 272.283 C 156.402 272.379,157.122 272.375,157.505 272.275 C 157.887 272.175,157.480 272.096,156.600 272.101 C 155.720 272.105,155.407 272.187,155.905 272.283 M152.000 272.806 C 151.578 273.082,151.815 273.123,152.800 272.942 C 154.525 272.625,154.851 272.398,153.567 272.406 C 153.035 272.409,152.330 272.589,152.000 272.806 M158.433 272.544 C 158.525 272.623,159.140 272.808,159.800 272.956 C 160.676 273.152,160.838 273.115,160.400 272.818 C 159.860 272.453,158.032 272.198,158.433 272.544 M165.200 276.200 C 165.946 276.970,166.647 277.600,166.757 277.600 C 166.867 277.600,166.346 276.970,165.600 276.200 C 164.854 275.430,164.153 274.800,164.043 274.800 C 163.933 274.800,164.454 275.430,165.200 276.200 M125.742 285.400 C 125.741 287.380,125.808 288.240,125.892 287.312 C 125.976 286.384,125.977 284.764,125.895 283.712 C 125.812 282.660,125.743 283.420,125.742 285.400 M142.924 285.400 C 142.926 286.720,143.001 287.212,143.090 286.493 C 143.179 285.774,143.177 284.694,143.086 284.093 C 142.995 283.492,142.922 284.080,142.924 285.400 M186.520 285.200 C 186.520 286.410,186.595 286.905,186.687 286.300 C 186.778 285.695,186.778 284.705,186.687 284.100 C 186.595 283.495,186.520 283.990,186.520 285.200 M169.309 285.200 C 169.309 286.190,169.387 286.595,169.482 286.100 C 169.578 285.605,169.578 284.795,169.482 284.300 C 169.387 283.805,169.309 284.210,169.309 285.200 M225.691 291.215 L 225.600 299.030 227.700 301.015 L 229.800 303.000 227.909 300.995 L 226.018 298.991 225.900 291.195 L 225.782 283.400 225.691 291.215 M208.573 294.000 C 208.573 299.390,208.630 301.595,208.699 298.900 C 208.768 296.205,208.768 291.795,208.699 289.100 C 208.630 286.405,208.573 288.610,208.573 294.000 M260.966 291.600 C 260.966 295.670,261.025 297.335,261.098 295.300 C 261.171 293.265,261.171 289.935,261.098 287.900 C 261.025 285.865,260.966 287.530,260.966 291.600 M278.172 293.600 C 278.172 298.770,278.229 300.885,278.299 298.300 C 278.368 295.715,278.368 291.485,278.299 288.900 C 278.229 286.315,278.172 288.430,278.172 293.600 M165.178 294.700 L 163.800 296.200 165.300 294.822 C 166.696 293.538,166.984 293.200,166.678 293.200 C 166.612 293.200,165.937 293.875,165.178 294.700 M157.700 298.276 C 158.085 298.376,158.715 298.376,159.100 298.276 C 159.485 298.175,159.170 298.093,158.400 298.093 C 157.630 298.093,157.315 298.175,157.700 298.276 M258.800 301.000 C 257.828 301.990,257.123 302.800,257.233 302.800 C 257.343 302.800,258.228 301.990,259.200 301.000 C 260.172 300.010,260.877 299.200,260.767 299.200 C 260.657 299.200,259.772 300.010,258.800 301.000 M230.093 305.200 C 230.093 305.970,230.175 306.285,230.276 305.900 C 230.376 305.515,230.376 304.885,230.276 304.500 C 230.175 304.115,230.093 304.430,230.093 305.200 M256.493 305.200 C 256.493 305.970,256.575 306.285,256.676 305.900 C 256.776 305.515,256.776 304.885,256.676 304.500 C 256.575 304.115,256.493 304.430,256.493 305.200 M134.400 306.600 C 135.595 307.810,136.663 308.800,136.773 308.800 C 136.883 308.800,135.995 307.810,134.800 306.600 C 133.605 305.390,132.537 304.400,132.427 304.400 C 132.317 304.400,133.205 305.390,134.400 306.600 M226.191 310.900 L 223.000 314.200 226.300 311.009 C 229.365 308.046,229.782 307.600,229.491 307.600 C 229.430 307.600,227.945 309.085,226.191 310.900 M260.400 311.000 C 262.260 312.870,263.872 314.400,263.982 314.400 C 264.092 314.400,262.660 312.870,260.800 311.000 C 258.940 309.130,257.328 307.600,257.218 307.600 C 257.108 307.600,258.540 309.130,260.400 311.000 M214.600 312.400 C 215.683 313.500,216.660 314.400,216.770 314.400 C 216.880 314.400,216.083 313.500,215.000 312.400 C 213.917 311.300,212.940 310.400,212.830 310.400 C 212.720 310.400,213.517 311.300,214.600 312.400 M77.612 312.278 C 77.605 312.540,78.005 313.179,78.500 313.697 C 78.995 314.215,79.200 314.360,78.956 314.020 C 78.712 313.679,78.312 313.040,78.068 312.600 C 77.824 312.160,77.619 312.015,77.612 312.278 M319.641 314.634 C 318.893 315.165,318.478 315.600,318.719 315.600 C 318.959 315.600,319.660 315.156,320.278 314.613 C 321.691 313.369,321.408 313.379,319.641 314.634 M150.600 315.200 C 151.260 315.368,152.250 315.509,152.800 315.513 L 153.800 315.520 152.800 315.200 C 152.250 315.024,151.260 314.883,150.600 314.887 L 149.400 314.895 150.600 315.200 M159.600 315.220 C 158.926 315.449,159.251 315.484,160.600 315.328 C 161.700 315.201,162.675 315.031,162.767 314.949 C 163.082 314.668,160.599 314.880,159.600 315.220 " stroke="none" fill="#b2dce8" fill-rule="evenodd"></path><path id="path4" d="M150.189 58.900 L 147.400 61.800 150.300 59.011 C 151.895 57.477,153.200 56.172,153.200 56.111 C 153.200 55.817,152.780 56.206,150.189 58.900 M249.400 59.200 C 250.706 60.520,251.865 61.600,251.975 61.600 C 252.085 61.600,251.106 60.520,249.800 59.200 C 248.494 57.880,247.335 56.800,247.225 56.800 C 247.115 56.800,248.094 57.880,249.400 59.200 M129.757 108.000 C 129.757 110.970,129.820 112.185,129.897 110.700 C 129.974 109.215,129.974 106.785,129.897 105.300 C 129.820 103.815,129.757 105.030,129.757 108.000 M269.757 108.000 C 269.757 110.970,269.820 112.185,269.897 110.700 C 269.974 109.215,269.974 106.785,269.897 105.300 C 269.820 103.815,269.757 105.030,269.757 108.000 M147.751 108.000 C 147.751 110.530,147.816 111.565,147.896 110.300 C 147.975 109.035,147.975 106.965,147.896 105.700 C 147.816 104.435,147.751 105.470,147.751 108.000 M251.751 108.000 C 251.751 110.530,251.816 111.565,251.896 110.300 C 251.975 109.035,251.975 106.965,251.896 105.700 C 251.816 104.435,251.751 105.470,251.751 108.000 M236.800 144.200 C 235.828 145.190,235.123 146.000,235.233 146.000 C 235.343 146.000,236.228 145.190,237.200 144.200 C 238.172 143.210,238.877 142.400,238.767 142.400 C 238.657 142.400,237.772 143.210,236.800 144.200 M161.200 142.925 C 161.200 142.994,161.785 143.579,162.500 144.225 L 163.800 145.400 162.625 144.100 C 161.530 142.888,161.200 142.616,161.200 142.925 M150.200 157.200 C 151.728 158.740,153.069 160.000,153.179 160.000 C 153.289 160.000,152.128 158.740,150.600 157.200 C 149.072 155.660,147.731 154.400,147.621 154.400 C 147.511 154.400,148.672 155.660,150.200 157.200 M248.786 157.500 L 246.600 159.800 248.900 157.614 C 251.037 155.582,251.383 155.200,251.086 155.200 C 251.024 155.200,249.989 156.235,248.786 157.500 M197.500 177.496 C 198.875 177.574,201.125 177.574,202.500 177.496 C 203.875 177.418,202.750 177.354,200.000 177.354 C 197.250 177.354,196.125 177.418,197.500 177.496 M192.305 202.683 C 192.802 202.779,193.522 202.775,193.905 202.675 C 194.287 202.575,193.880 202.496,193.000 202.501 C 192.120 202.505,191.807 202.587,192.305 202.683 M206.300 202.682 C 206.795 202.778,207.605 202.778,208.100 202.682 C 208.595 202.587,208.190 202.509,207.200 202.509 C 206.210 202.509,205.805 202.587,206.300 202.682 M101.375 213.300 L 100.200 214.600 101.500 213.425 C 102.712 212.330,102.984 212.000,102.675 212.000 C 102.606 212.000,102.021 212.585,101.375 213.300 M296.800 212.125 C 296.800 212.194,297.385 212.779,298.100 213.425 L 299.400 214.600 298.225 213.300 C 297.130 212.088,296.800 211.816,296.800 212.125 M141.700 213.076 C 142.085 213.176,142.715 213.176,143.100 213.076 C 143.485 212.975,143.170 212.893,142.400 212.893 C 141.630 212.893,141.315 212.975,141.700 213.076 M146.986 234.200 C 146.986 245.860,147.037 250.572,147.100 244.672 C 147.162 238.771,147.162 229.231,147.100 223.472 C 147.037 217.712,146.986 222.540,146.986 234.200 M185.905 219.883 C 186.402 219.979,187.122 219.975,187.505 219.875 C 187.887 219.775,187.480 219.696,186.600 219.701 C 185.720 219.705,185.407 219.787,185.905 219.883 M195.705 220.687 C 196.314 220.779,197.214 220.777,197.705 220.682 C 198.197 220.587,197.700 220.511,196.600 220.514 C 195.500 220.517,195.097 220.595,195.705 220.687 M110.800 229.000 C 109.828 229.990,109.123 230.800,109.233 230.800 C 109.343 230.800,110.228 229.990,111.200 229.000 C 112.172 228.010,112.877 227.200,112.767 227.200 C 112.657 227.200,111.772 228.010,110.800 229.000 M95.388 287.400 C 95.388 301.040,95.438 306.678,95.500 299.929 C 95.561 293.180,95.561 282.020,95.500 275.129 C 95.438 268.238,95.388 273.760,95.388 287.400 M304.188 288.600 C 304.188 301.800,304.238 307.142,304.300 300.471 C 304.361 293.801,304.361 283.001,304.300 276.471 C 304.238 269.942,304.188 275.400,304.188 288.600 M164.000 275.325 C 164.000 275.394,164.585 275.979,165.300 276.625 L 166.600 277.800 165.425 276.500 C 164.330 275.288,164.000 275.016,164.000 275.325 M125.342 285.400 C 125.341 287.380,125.408 288.240,125.492 287.312 C 125.576 286.384,125.577 284.764,125.495 283.712 C 125.412 282.660,125.343 283.420,125.342 285.400 M186.909 285.200 C 186.909 286.190,186.987 286.595,187.082 286.100 C 187.178 285.605,187.178 284.795,187.082 284.300 C 186.987 283.805,186.909 284.210,186.909 285.200 M168.901 285.400 C 168.905 286.280,168.987 286.593,169.083 286.095 C 169.179 285.598,169.175 284.878,169.075 284.495 C 168.975 284.113,168.896 284.520,168.901 285.400 M226.166 291.600 C 226.166 295.670,226.225 297.335,226.298 295.300 C 226.371 293.265,226.371 289.935,226.298 287.900 C 226.225 285.865,226.166 287.530,226.166 291.600 M260.565 292.000 C 260.565 295.850,260.625 297.425,260.698 295.500 C 260.771 293.575,260.771 290.425,260.698 288.500 C 260.625 286.575,260.565 288.150,260.565 292.000 M146.000 293.325 C 146.000 293.394,146.585 293.979,147.300 294.625 L 148.600 295.800 147.425 294.500 C 146.330 293.288,146.000 293.016,146.000 293.325 M228.400 301.400 C 229.146 302.170,229.847 302.800,229.957 302.800 C 230.067 302.800,229.546 302.170,228.800 301.400 C 228.054 300.630,227.353 300.000,227.243 300.000 C 227.133 300.000,227.654 300.630,228.400 301.400 M227.385 310.100 L 225.400 312.200 227.500 310.215 C 228.655 309.123,229.600 308.178,229.600 308.115 C 229.600 307.817,229.229 308.149,227.385 310.100 M257.200 308.110 C 257.200 308.171,258.595 309.566,260.300 311.210 L 263.400 314.200 260.410 311.100 C 257.633 308.221,257.200 307.817,257.200 308.110 " stroke="none" fill="#5cb4d4" fill-rule="evenodd"></path></g></svg>