<svg id="svg" xmlns="http://www.w3.org/2000/svg" xmlns:xlink="http://www.w3.org/1999/xlink" width="400" height="400" viewBox="0, 0, 400,400"><g id="svgg"><path id="path0" d="M197.800 78.037 C 181.898 80.804,169.060 88.627,160.723 100.631 C 128.222 147.423,172.074 208.965,224.200 189.715 C 262.421 175.599,272.868 123.424,243.412 93.756 C 237.682 87.985,227.336 81.200,224.265 81.200 C 223.925 81.200,223.549 81.041,223.430 80.848 C 223.310 80.654,222.804 80.402,222.306 80.288 C 221.808 80.173,220.410 79.808,219.200 79.475 C 212.939 77.753,203.196 77.099,197.800 78.037 M213.000 94.248 C 232.751 98.069,247.899 119.485,245.238 139.825 C 240.133 178.842,193.660 191.066,171.938 159.106 C 151.343 128.805,177.562 87.391,213.000 94.248 M88.800 94.403 C 47.114 99.928,41.082 160.901,80.870 174.549 C 114.067 185.936,143.814 150.345,128.748 117.265 C 121.774 101.952,104.862 92.273,88.800 94.403 M100.750 111.383 C 118.170 117.308,123.334 140.261,110.206 153.411 C 90.788 172.861,59.746 149.804,71.418 124.600 C 76.773 113.038,89.179 107.448,100.750 111.383 M295.200 177.832 C 272.518 180.469,254.580 193.122,244.589 213.534 C 227.288 248.878,243.332 292.280,278.712 305.847 C 326.997 324.361,374.950 279.322,362.346 227.294 C 361.458 223.630,359.410 217.355,358.872 216.652 C 358.682 216.403,358.218 215.406,357.841 214.436 C 349.091 191.925,320.032 174.945,295.200 177.832 M308.800 194.186 C 349.545 201.927,363.409 253.859,332.230 281.949 C 323.270 290.021,309.182 295.218,299.152 294.152 C 294.554 293.662,290.872 293.113,289.600 292.726 C 272.717 287.593,263.256 278.888,255.550 261.400 C 252.734 255.009,251.915 241.124,253.851 232.600 C 259.703 206.836,284.423 189.554,308.800 194.186 M78.400 194.609 C 73.452 195.412,72.416 195.651,72.171 196.046 C 72.051 196.241,71.669 196.400,71.323 196.400 C 70.368 196.400,65.309 199.069,62.555 201.025 C 52.949 207.849,45.600 222.459,45.600 234.733 C 45.600 242.557,54.147 246.495,58.891 240.856 C 60.271 239.217,60.683 237.778,61.140 233.000 C 62.183 222.122,67.990 214.372,77.600 211.036 C 80.354 210.081,105.598 210.106,108.649 211.068 L 110.768 211.736 115.084 207.565 C 117.458 205.272,120.162 202.856,121.092 202.197 C 122.022 201.539,122.787 200.817,122.791 200.593 C 122.814 199.534,116.382 196.489,111.200 195.106 C 107.248 194.051,84.010 193.699,78.400 194.609 M160.600 204.862 C 134.479 207.144,115.222 225.204,110.551 251.800 C 109.752 256.346,109.305 282.327,109.931 287.829 C 111.285 299.730,119.763 308.996,130.113 309.885 C 131.605 310.013,132.921 310.272,133.037 310.459 C 133.374 311.005,252.000 310.896,252.000 310.349 C 252.000 310.101,250.013 308.007,247.585 305.697 C 245.157 303.387,241.895 299.900,240.337 297.948 L 237.504 294.400 185.252 294.398 C 129.398 294.395,131.207 294.463,128.310 292.278 C 124.844 289.664,124.800 289.426,124.802 273.215 C 124.803 255.933,125.263 252.285,128.382 244.800 C 134.805 229.389,148.192 220.728,165.541 220.759 C 170.913 220.769,172.657 221.057,181.600 223.410 C 196.180 227.247,203.430 227.608,220.494 225.348 C 222.784 225.045,222.945 224.865,223.745 221.715 C 224.475 218.840,226.840 212.362,228.286 209.274 C 229.480 206.728,229.337 206.491,227.109 207.321 C 221.910 209.256,215.170 210.368,206.800 210.670 C 197.619 211.002,195.635 210.701,179.000 206.461 C 176.360 205.789,172.580 205.131,170.600 205.000 C 168.620 204.869,166.460 204.705,165.800 204.637 C 165.140 204.568,162.800 204.670,160.600 204.862 M291.600 211.600 C 290.843 212.357,290.800 212.933,290.800 222.320 C 290.800 229.502,290.668 232.372,290.320 232.720 C 289.974 233.066,287.230 233.200,280.494 233.200 C 268.298 233.200,269.600 231.933,269.600 243.800 C 269.600 255.667,268.298 254.400,280.494 254.400 C 287.230 254.400,289.974 254.534,290.320 254.880 C 290.668 255.228,290.800 258.137,290.800 265.457 C 290.800 278.065,289.652 276.800,301.089 276.800 C 312.283 276.800,311.200 278.034,311.200 265.280 C 311.200 258.098,311.332 255.228,311.680 254.880 C 312.026 254.534,314.770 254.400,321.506 254.400 C 333.689 254.400,332.400 255.625,332.400 244.048 C 332.400 231.956,333.644 233.200,321.549 233.200 C 314.780 233.200,312.026 233.066,311.680 232.720 C 311.333 232.373,311.200 229.522,311.200 222.409 C 311.200 209.514,312.310 210.800,301.177 210.800 C 292.933 210.800,292.351 210.849,291.600 211.600 " stroke="none" fill="#fafbfb" fill-rule="evenodd"></path><path id="path1" d="M204.500 77.076 C 204.885 77.176,205.515 77.176,205.900 77.076 C 206.285 76.975,205.970 76.893,205.200 76.893 C 204.430 76.893,204.115 76.975,204.500 77.076 M241.200 91.000 C 241.946 91.770,242.647 92.400,242.757 92.400 C 242.867 92.400,242.346 91.770,241.600 91.000 C 240.854 90.230,240.153 89.600,240.043 89.600 C 239.933 89.600,240.454 90.230,241.200 91.000 M165.385 94.100 L 163.400 96.200 165.500 94.215 C 167.451 92.371,167.783 92.000,167.485 92.000 C 167.422 92.000,166.477 92.945,165.385 94.100 M204.900 93.876 C 205.285 93.976,205.915 93.976,206.300 93.876 C 206.685 93.775,206.370 93.693,205.600 93.693 C 204.830 93.693,204.515 93.775,204.900 93.876 M200.100 94.276 C 200.485 94.376,201.115 94.376,201.500 94.276 C 201.885 94.175,201.570 94.093,200.800 94.093 C 200.030 94.093,199.715 94.175,200.100 94.276 M177.588 105.500 L 175.000 108.200 177.700 105.612 C 179.185 104.188,180.400 102.973,180.400 102.912 C 180.400 102.617,179.993 102.992,177.588 105.500 M65.578 105.100 L 64.200 106.600 65.700 105.222 C 67.096 103.938,67.384 103.600,67.078 103.600 C 67.012 103.600,66.337 104.275,65.578 105.100 M232.383 105.300 C 234.041 107.066,234.400 107.384,234.400 107.083 C 234.400 107.019,233.545 106.164,232.500 105.183 L 230.600 103.400 232.383 105.300 M92.300 110.682 C 92.795 110.778,93.605 110.778,94.100 110.682 C 94.595 110.587,94.190 110.509,93.200 110.509 C 92.210 110.509,91.805 110.587,92.300 110.682 M127.000 113.200 C 127.341 113.860,127.711 114.400,127.821 114.400 C 127.931 114.400,127.741 113.860,127.400 113.200 C 127.059 112.540,126.689 112.000,126.579 112.000 C 126.469 112.000,126.659 112.540,127.000 113.200 M239.000 114.000 C 239.341 114.660,239.711 115.200,239.821 115.200 C 239.931 115.200,239.741 114.660,239.400 114.000 C 239.059 113.340,238.689 112.800,238.579 112.800 C 238.469 112.800,238.659 113.340,239.000 114.000 M108.800 116.525 C 108.800 116.594,109.385 117.179,110.100 117.825 L 111.400 119.000 110.225 117.700 C 109.130 116.488,108.800 116.216,108.800 116.525 M240.828 117.400 C 240.828 117.620,241.086 118.250,241.400 118.800 C 241.714 119.350,241.972 119.620,241.972 119.400 C 241.972 119.180,241.714 118.550,241.400 118.000 C 241.086 117.450,240.828 117.180,240.828 117.400 M242.856 122.800 C 242.856 123.130,243.011 123.760,243.200 124.200 C 243.417 124.704,243.544 124.778,243.544 124.400 C 243.544 124.070,243.389 123.440,243.200 123.000 C 242.983 122.496,242.856 122.422,242.856 122.800 M149.309 129.600 C 149.309 130.590,149.387 130.995,149.482 130.500 C 149.578 130.005,149.578 129.195,149.482 128.700 C 149.387 128.205,149.309 128.610,149.309 129.600 M132.893 130.000 C 132.893 130.770,132.975 131.085,133.076 130.700 C 133.176 130.315,133.176 129.685,133.076 129.300 C 132.975 128.915,132.893 129.230,132.893 130.000 M53.314 131.800 C 53.317 132.900,53.395 133.303,53.487 132.695 C 53.579 132.086,53.577 131.186,53.482 130.695 C 53.387 130.203,53.311 130.700,53.314 131.800 M244.501 131.400 C 244.505 132.280,244.587 132.593,244.683 132.095 C 244.779 131.598,244.775 130.878,244.675 130.495 C 244.575 130.113,244.496 130.520,244.501 131.400 M260.928 132.400 C 260.928 133.830,261.001 134.415,261.089 133.700 C 261.178 132.985,261.178 131.815,261.089 131.100 C 261.001 130.385,260.928 130.970,260.928 132.400 M165.348 135.600 C 165.348 137.910,165.414 138.855,165.495 137.700 C 165.576 136.545,165.576 134.655,165.495 133.500 C 165.414 132.345,165.348 133.290,165.348 135.600 M116.942 135.400 C 116.941 137.380,117.008 138.240,117.092 137.312 C 117.176 136.384,117.177 134.764,117.095 133.712 C 117.012 132.660,116.943 133.420,116.942 135.400 M133.331 135.800 C 133.333 137.340,133.405 137.921,133.492 137.091 C 133.579 136.261,133.577 135.001,133.489 134.291 C 133.400 133.581,133.329 134.260,133.331 135.800 M69.301 135.400 C 69.305 136.280,69.387 136.593,69.483 136.095 C 69.579 135.598,69.575 134.878,69.475 134.495 C 69.375 134.113,69.296 134.520,69.301 135.400 M148.901 135.400 C 148.905 136.280,148.987 136.593,149.083 136.095 C 149.179 135.598,149.175 134.878,149.075 134.495 C 148.975 134.113,148.896 134.520,148.901 135.400 M260.924 138.600 C 260.926 139.920,261.001 140.412,261.090 139.693 C 261.179 138.974,261.177 137.894,261.086 137.293 C 260.995 136.692,260.922 137.280,260.924 138.600 M53.314 139.000 C 53.317 140.100,53.395 140.503,53.487 139.895 C 53.579 139.286,53.577 138.386,53.482 137.895 C 53.387 137.403,53.311 137.900,53.314 139.000 M244.493 140.000 C 244.493 140.770,244.575 141.085,244.676 140.700 C 244.776 140.315,244.776 139.685,244.676 139.300 C 244.575 138.915,244.493 139.230,244.493 140.000 M149.301 141.400 C 149.305 142.280,149.387 142.593,149.483 142.095 C 149.579 141.598,149.575 140.878,149.475 140.495 C 149.375 140.113,149.296 140.520,149.301 141.400 M55.628 150.200 C 55.628 150.420,55.886 151.050,56.200 151.600 C 56.514 152.150,56.772 152.420,56.772 152.200 C 56.772 151.980,56.514 151.350,56.200 150.800 C 55.886 150.250,55.628 149.980,55.628 150.200 M75.600 152.200 C 76.346 152.970,77.047 153.600,77.157 153.600 C 77.267 153.600,76.746 152.970,76.000 152.200 C 75.254 151.430,74.553 150.800,74.443 150.800 C 74.333 150.800,74.854 151.430,75.600 152.200 M109.775 153.300 L 108.600 154.600 109.900 153.425 C 110.615 152.779,111.200 152.194,111.200 152.125 C 111.200 151.816,110.870 152.088,109.775 153.300 M170.200 155.600 C 170.541 156.260,170.911 156.800,171.021 156.800 C 171.131 156.800,170.941 156.260,170.600 155.600 C 170.259 154.940,169.889 154.400,169.779 154.400 C 169.669 154.400,169.859 154.940,170.200 155.600 M126.431 158.473 C 125.722 159.613,125.387 160.343,125.685 160.096 C 126.253 159.624,128.173 156.400,127.885 156.400 C 127.794 156.400,127.140 157.333,126.431 158.473 M91.911 160.293 C 92.851 160.378,94.291 160.377,95.111 160.291 C 95.930 160.205,95.160 160.136,93.400 160.137 C 91.640 160.139,90.970 160.209,91.911 160.293 M154.800 161.353 C 154.800 161.782,155.990 164.000,156.221 164.000 C 156.331 164.000,156.123 163.415,155.759 162.700 C 155.017 161.240,154.800 160.936,154.800 161.353 M232.187 165.700 L 229.800 168.200 232.300 165.813 C 233.675 164.499,234.800 163.374,234.800 163.313 C 234.800 163.017,234.405 163.378,232.187 165.700 M65.600 165.800 C 66.795 167.010,67.863 168.000,67.973 168.000 C 68.083 168.000,67.195 167.010,66.000 165.800 C 64.805 164.590,63.737 163.600,63.627 163.600 C 63.517 163.600,64.405 164.590,65.600 165.800 M157.400 166.400 C 157.741 167.060,158.111 167.600,158.221 167.600 C 158.331 167.600,158.141 167.060,157.800 166.400 C 157.459 165.740,157.089 165.200,156.979 165.200 C 156.869 165.200,157.059 165.740,157.400 166.400 M118.575 167.700 L 117.400 169.000 118.700 167.825 C 119.912 166.730,120.184 166.400,119.875 166.400 C 119.806 166.400,119.221 166.985,118.575 167.700 M246.575 174.500 L 245.400 175.800 246.700 174.625 C 247.415 173.979,248.000 173.394,248.000 173.325 C 248.000 173.016,247.670 173.288,246.575 174.500 M166.200 177.600 C 167.283 178.700,168.260 179.600,168.370 179.600 C 168.480 179.600,167.683 178.700,166.600 177.600 C 165.517 176.500,164.540 175.600,164.430 175.600 C 164.320 175.600,165.117 176.500,166.200 177.600 M88.500 177.076 C 88.885 177.176,89.515 177.176,89.900 177.076 C 90.285 176.975,89.970 176.893,89.200 176.893 C 88.430 176.893,88.115 176.975,88.500 177.076 M96.900 177.076 C 97.285 177.176,97.915 177.176,98.300 177.076 C 98.685 176.975,98.370 176.893,97.600 176.893 C 96.830 176.893,96.515 176.975,96.900 177.076 M203.907 177.090 C 204.626 177.179,205.706 177.177,206.307 177.086 C 206.908 176.995,206.320 176.922,205.000 176.924 C 203.680 176.926,203.188 177.001,203.907 177.090 M299.900 177.089 C 300.615 177.178,301.785 177.178,302.500 177.089 C 303.215 177.001,302.630 176.928,301.200 176.928 C 299.770 176.928,299.185 177.001,299.900 177.089 M294.100 177.476 C 294.485 177.576,295.115 177.576,295.500 177.476 C 295.885 177.375,295.570 177.293,294.800 177.293 C 294.030 177.293,293.715 177.375,294.100 177.476 M306.500 177.476 C 306.885 177.576,307.515 177.576,307.900 177.476 C 308.285 177.375,307.970 177.293,307.200 177.293 C 306.430 177.293,306.115 177.375,306.500 177.476 M241.381 179.700 L 239.800 181.400 241.500 179.819 C 243.081 178.348,243.384 178.000,243.081 178.000 C 243.016 178.000,242.251 178.765,241.381 179.700 M256.791 195.500 L 253.400 199.000 256.900 195.609 C 260.151 192.459,260.582 192.000,260.291 192.000 C 260.231 192.000,258.656 193.575,256.791 195.500 M344.400 195.000 C 345.817 196.430,347.067 197.600,347.177 197.600 C 347.287 197.600,346.217 196.430,344.800 195.000 C 343.383 193.570,342.133 192.400,342.023 192.400 C 341.913 192.400,342.983 193.570,344.400 195.000 M79.900 193.882 C 80.395 193.978,81.205 193.978,81.700 193.882 C 82.195 193.787,81.790 193.709,80.800 193.709 C 79.810 193.709,79.405 193.787,79.900 193.882 M105.100 193.882 C 105.595 193.978,106.405 193.978,106.900 193.882 C 107.395 193.787,106.990 193.709,106.000 193.709 C 105.010 193.709,104.605 193.787,105.100 193.882 M202.716 193.897 C 204.099 193.975,206.259 193.974,207.516 193.895 C 208.772 193.816,207.640 193.752,205.000 193.753 C 202.360 193.753,201.332 193.818,202.716 193.897 M57.387 204.900 L 55.000 207.400 57.500 205.013 C 59.822 202.795,60.183 202.400,59.887 202.400 C 59.826 202.400,58.701 203.525,57.387 204.900 M163.300 204.294 C 164.345 204.376,166.055 204.376,167.100 204.294 C 168.145 204.212,167.290 204.144,165.200 204.144 C 163.110 204.144,162.255 204.212,163.300 204.294 M331.983 206.100 C 332.964 207.145,333.819 208.000,333.883 208.000 C 334.184 208.000,333.866 207.641,332.100 205.983 L 330.200 204.200 331.983 206.100 M114.800 208.200 C 113.161 209.850,111.910 211.200,112.020 211.200 C 112.130 211.200,113.561 209.850,115.200 208.200 C 116.839 206.550,118.090 205.200,117.980 205.200 C 117.870 205.200,116.439 206.550,114.800 208.200 M143.600 208.200 C 143.050 208.514,142.780 208.772,143.000 208.772 C 143.220 208.772,143.850 208.514,144.400 208.200 C 144.950 207.886,145.220 207.628,145.000 207.628 C 144.780 207.628,144.150 207.886,143.600 208.200 M198.500 210.287 C 199.105 210.378,200.095 210.378,200.700 210.287 C 201.305 210.195,200.810 210.120,199.600 210.120 C 198.390 210.120,197.895 210.195,198.500 210.287 M208.105 210.287 C 208.714 210.379,209.614 210.377,210.105 210.282 C 210.597 210.187,210.100 210.111,209.000 210.114 C 207.900 210.117,207.497 210.195,208.105 210.287 M86.500 210.699 C 89.745 210.766,95.055 210.766,98.300 210.699 C 101.545 210.632,98.890 210.577,92.400 210.577 C 85.910 210.577,83.255 210.632,86.500 210.699 M290.173 222.200 C 290.173 227.700,290.230 230.005,290.299 227.323 C 290.368 224.641,290.368 220.141,290.299 217.323 C 290.230 214.505,290.174 216.700,290.173 222.200 M311.773 222.600 C 311.773 228.100,311.830 230.405,311.899 227.723 C 311.968 225.041,311.968 220.541,311.899 217.723 C 311.830 214.905,311.774 217.100,311.773 222.600 M125.389 220.500 L 122.600 223.400 125.500 220.611 C 128.194 218.020,128.583 217.600,128.289 217.600 C 128.228 217.600,126.923 218.905,125.389 220.500 M66.723 219.100 C 66.018 219.921,65.490 220.800,65.701 220.800 C 65.783 220.800,66.249 220.260,66.737 219.600 C 67.701 218.296,67.692 217.972,66.723 219.100 M163.900 221.089 C 164.615 221.178,165.785 221.178,166.500 221.089 C 167.215 221.001,166.630 220.928,165.200 220.928 C 163.770 220.928,163.185 221.001,163.900 221.089 M121.751 224.500 C 120.570 225.848,119.880 226.800,120.084 226.800 C 120.184 226.800,120.845 226.080,121.552 225.200 C 122.925 223.492,123.064 223.001,121.751 224.500 M46.000 226.000 C 45.730 227.124,45.589 228.123,45.687 228.220 C 45.784 228.317,46.077 227.470,46.338 226.338 C 46.600 225.206,46.741 224.207,46.652 224.119 C 46.563 224.030,46.270 224.876,46.000 226.000 M214.100 226.676 C 214.485 226.776,215.115 226.776,215.500 226.676 C 215.885 226.575,215.570 226.493,214.800 226.493 C 214.030 226.493,213.715 226.575,214.100 226.676 M197.100 227.082 C 197.595 227.178,198.405 227.178,198.900 227.082 C 199.395 226.987,198.990 226.909,198.000 226.909 C 197.010 226.909,196.605 226.987,197.100 227.082 M209.505 227.083 C 210.002 227.179,210.722 227.175,211.105 227.075 C 211.487 226.975,211.080 226.896,210.200 226.901 C 209.320 226.905,209.007 226.987,209.505 227.083 M275.523 232.699 C 278.231 232.768,282.551 232.768,285.123 232.699 C 287.695 232.629,285.480 232.572,280.200 232.573 C 274.920 232.573,272.815 232.630,275.523 232.699 M315.600 232.679 C 324.067 232.964,331.509 232.974,331.339 232.700 C 331.237 232.535,326.888 232.437,321.676 232.482 C 316.464 232.527,313.730 232.616,315.600 232.679 M114.865 235.417 C 114.195 236.888,114.323 237.202,115.047 235.865 C 115.386 235.240,115.588 234.654,115.496 234.563 C 115.405 234.471,115.121 234.856,114.865 235.417 M332.972 243.800 C 332.972 248.860,333.029 250.875,333.099 248.277 C 333.169 245.680,333.168 241.540,333.098 239.077 C 333.028 236.615,332.971 238.740,332.972 243.800 M61.293 236.400 C 61.293 237.170,61.375 237.485,61.476 237.100 C 61.576 236.715,61.576 236.085,61.476 235.700 C 61.375 235.315,61.293 235.630,61.293 236.400 M364.983 243.800 C 364.983 247.320,365.042 249.250,365.113 248.090 C 365.186 246.893,365.407 246.080,365.621 246.213 C 365.845 246.351,366.000 245.364,366.000 243.800 C 366.000 242.236,365.845 241.249,365.621 241.387 C 365.407 241.520,365.186 240.707,365.113 239.510 C 365.042 238.350,364.983 240.280,364.983 243.800 M348.524 240.200 C 348.526 241.520,348.601 242.012,348.690 241.293 C 348.779 240.574,348.777 239.494,348.686 238.893 C 348.595 238.292,348.522 238.880,348.524 240.200 M253.324 240.600 C 253.326 241.920,253.401 242.412,253.490 241.693 C 253.579 240.974,253.577 239.894,253.486 239.293 C 253.395 238.692,253.322 239.280,253.324 240.600 M236.955 243.800 C 236.956 246.660,237.020 247.778,237.097 246.283 C 237.174 244.789,237.174 242.449,237.096 241.083 C 237.018 239.718,236.955 240.940,236.955 243.800 M58.575 241.700 L 57.400 243.000 58.700 241.825 C 59.912 240.730,60.184 240.400,59.875 240.400 C 59.806 240.400,59.221 240.985,58.575 241.700 M253.328 247.200 C 253.328 248.630,253.401 249.215,253.489 248.500 C 253.578 247.785,253.578 246.615,253.489 245.900 C 253.401 245.185,253.328 245.770,253.328 247.200 M348.524 247.400 C 348.526 248.720,348.601 249.212,348.690 248.493 C 348.779 247.774,348.777 246.694,348.686 246.093 C 348.595 245.492,348.522 246.080,348.524 247.400 M237.293 252.000 C 237.293 252.770,237.375 253.085,237.476 252.700 C 237.576 252.315,237.576 251.685,237.476 251.300 C 237.375 250.915,237.293 251.230,237.293 252.000 M126.093 254.000 C 126.093 254.770,126.175 255.085,126.276 254.700 C 126.376 254.315,126.376 253.685,126.276 253.300 C 126.175 252.915,126.093 253.230,126.093 254.000 M109.309 256.000 C 109.309 256.990,109.387 257.395,109.482 256.900 C 109.578 256.405,109.578 255.595,109.482 255.100 C 109.387 254.605,109.309 255.010,109.309 256.000 M270.747 254.908 C 270.916 255.077,275.273 255.166,280.428 255.107 L 289.800 254.999 280.119 254.799 C 274.795 254.690,270.577 254.738,270.747 254.908 M316.900 255.099 C 319.485 255.168,323.715 255.168,326.300 255.099 C 328.885 255.029,326.770 254.972,321.600 254.972 C 316.430 254.972,314.315 255.029,316.900 255.099 M311.773 265.000 C 311.773 270.500,311.830 272.805,311.899 270.123 C 311.968 267.441,311.968 262.941,311.899 260.123 C 311.830 257.305,311.774 259.500,311.773 265.000 M290.173 265.400 C 290.173 270.900,290.230 273.205,290.299 270.523 C 290.368 267.841,290.368 263.341,290.299 260.523 C 290.230 257.705,290.174 259.900,290.173 265.400 M346.229 259.029 C 346.081 259.615,346.038 260.172,346.132 260.266 C 346.227 260.360,346.424 259.958,346.571 259.371 C 346.719 258.785,346.762 258.228,346.668 258.134 C 346.573 258.040,346.376 258.442,346.229 259.029 M125.381 272.800 C 125.381 280.830,125.434 284.115,125.499 280.100 C 125.565 276.085,125.565 269.515,125.499 265.500 C 125.434 261.485,125.381 264.770,125.381 272.800 M108.980 273.000 C 108.980 280.700,109.034 283.793,109.099 279.874 C 109.165 275.955,109.165 269.655,109.099 265.874 C 109.034 262.093,108.980 265.300,108.980 273.000 M344.465 263.817 C 343.795 265.288,343.923 265.602,344.647 264.265 C 344.986 263.640,345.188 263.054,345.096 262.963 C 345.005 262.871,344.721 263.256,344.465 263.817 M257.628 265.000 C 257.628 265.220,257.886 265.850,258.200 266.400 C 258.514 266.950,258.772 267.220,258.772 267.000 C 258.772 266.780,258.514 266.150,258.200 265.600 C 257.886 265.050,257.628 264.780,257.628 265.000 M310.514 276.280 C 310.027 276.786,309.774 277.200,309.952 277.200 C 310.342 277.200,311.798 275.645,311.564 275.477 C 311.474 275.413,311.001 275.774,310.514 276.280 M296.922 277.499 C 299.299 277.570,303.079 277.569,305.322 277.498 C 307.565 277.427,305.620 277.369,301.000 277.369 C 296.380 277.370,294.545 277.428,296.922 277.499 M332.000 281.400 C 331.028 282.390,330.323 283.200,330.433 283.200 C 330.543 283.200,331.428 282.390,332.400 281.400 C 333.372 280.410,334.077 279.600,333.967 279.600 C 333.857 279.600,332.972 280.410,332.000 281.400 M351.600 284.400 C 351.130 285.060,350.836 285.600,350.946 285.600 C 351.056 285.600,351.530 285.060,352.000 284.400 C 352.470 283.740,352.764 283.200,352.654 283.200 C 352.544 283.200,352.070 283.740,351.600 284.400 M254.400 289.800 C 255.146 290.570,255.847 291.200,255.957 291.200 C 256.067 291.200,255.546 290.570,254.800 289.800 C 254.054 289.030,253.353 288.400,253.243 288.400 C 253.133 288.400,253.654 289.030,254.400 289.800 M344.992 292.100 L 341.400 295.800 345.100 292.208 C 347.135 290.233,348.800 288.568,348.800 288.508 C 348.800 288.218,348.328 288.664,344.992 292.100 M258.400 293.800 C 259.595 295.010,260.663 296.000,260.773 296.000 C 260.883 296.000,259.995 295.010,258.800 293.800 C 257.605 292.590,256.537 291.600,256.427 291.600 C 256.317 291.600,257.205 292.590,258.400 293.800 M296.100 293.476 C 296.485 293.576,297.115 293.576,297.500 293.476 C 297.885 293.375,297.570 293.293,296.800 293.293 C 296.030 293.293,295.715 293.375,296.100 293.476 M304.500 293.476 C 304.885 293.576,305.515 293.576,305.900 293.476 C 306.285 293.375,305.970 293.293,305.200 293.293 C 304.430 293.293,304.115 293.375,304.500 293.476 M158.500 293.900 C 172.965 293.958,196.635 293.958,211.100 293.900 C 225.565 293.842,213.730 293.794,184.800 293.794 C 155.870 293.794,144.035 293.842,158.500 293.900 M300.305 293.883 C 300.802 293.979,301.522 293.975,301.905 293.875 C 302.287 293.775,301.880 293.696,301.000 293.701 C 300.120 293.705,299.807 293.787,300.305 293.883 M240.400 297.725 C 240.400 297.794,240.985 298.379,241.700 299.025 L 243.000 300.200 241.825 298.900 C 240.730 297.688,240.400 297.416,240.400 297.725 M246.000 303.800 C 247.860 305.670,249.472 307.200,249.582 307.200 C 249.692 307.200,248.260 305.670,246.400 303.800 C 244.540 301.930,242.928 300.400,242.818 300.400 C 242.708 300.400,244.140 301.930,246.000 303.800 M293.600 310.400 C 293.600 310.620,294.061 310.800,294.624 310.800 C 295.204 310.800,295.540 310.627,295.400 310.400 C 295.264 310.180,294.803 310.000,294.376 310.000 C 293.949 310.000,293.600 310.180,293.600 310.400 M306.600 310.400 C 306.460 310.627,306.796 310.800,307.376 310.800 C 307.939 310.800,308.400 310.620,308.400 310.400 C 308.400 310.180,308.051 310.000,307.624 310.000 C 307.197 310.000,306.736 310.180,306.600 310.400 " stroke="none" fill="#7fc4d9" fill-rule="evenodd"></path><path id="path2" d="M198.600 77.463 C 198.160 77.556,196.360 77.909,194.600 78.247 C 191.198 78.900,185.058 80.791,185.360 81.093 C 185.459 81.192,186.589 80.909,187.870 80.463 C 196.133 77.589,205.677 76.835,214.000 78.400 C 220.545 79.631,220.720 79.653,218.800 79.010 C 214.528 77.579,202.419 76.651,198.600 77.463 M223.374 80.757 C 223.524 81.001,223.925 81.200,224.265 81.200 C 227.336 81.200,237.682 87.985,243.412 93.756 C 268.543 119.068,265.699 159.792,237.185 182.923 C 235.997 183.887,236.064 183.867,237.656 182.787 C 266.627 163.129,268.584 114.521,241.346 91.130 C 235.282 85.921,221.732 78.102,223.374 80.757 M176.987 85.071 C 157.821 96.879,147.141 118.971,149.593 141.736 C 149.871 144.320,150.182 146.351,150.284 146.249 C 150.386 146.147,150.240 143.722,149.960 140.860 C 147.796 118.724,158.673 96.515,177.100 85.444 C 179.245 84.155,179.964 83.600,179.487 83.600 C 179.426 83.600,178.301 84.262,176.987 85.071 M201.071 93.618 C 187.779 95.101,175.568 103.813,169.225 116.339 C 168.740 117.295,168.419 118.152,168.510 118.243 C 168.601 118.334,169.289 117.193,170.038 115.707 C 178.247 99.422,196.939 90.637,214.200 94.952 C 215.520 95.282,217.050 95.665,217.600 95.804 C 218.440 96.015,218.489 95.984,217.906 95.611 C 215.670 94.180,206.144 93.052,201.071 93.618 M87.294 94.199 C 83.982 94.799,78.622 96.356,78.902 96.636 C 79.005 96.738,79.605 96.626,80.236 96.386 C 83.898 94.994,88.374 94.293,93.800 94.262 C 97.551 94.240,98.806 94.136,97.600 93.944 C 94.846 93.508,90.515 93.615,87.294 94.199 M100.400 94.800 C 100.950 94.976,101.760 95.120,102.200 95.120 C 102.833 95.120,102.792 95.054,102.000 94.800 C 101.450 94.624,100.640 94.480,100.200 94.480 C 99.567 94.480,99.608 94.546,100.400 94.800 M103.800 95.600 C 104.240 95.789,104.870 95.944,105.200 95.944 C 105.578 95.944,105.504 95.817,105.000 95.600 C 104.560 95.411,103.930 95.256,103.600 95.256 C 103.222 95.256,103.296 95.383,103.800 95.600 M75.699 97.973 C 43.468 115.743,46.990 163.407,81.400 175.130 C 83.380 175.804,85.990 176.450,87.200 176.564 L 89.400 176.771 86.727 176.206 C 48.838 168.199,41.700 116.510,75.959 98.232 C 77.412 97.457,78.420 96.821,78.200 96.819 C 77.980 96.816,76.855 97.336,75.699 97.973 M110.141 98.017 C 137.927 112.086,140.556 152.740,114.800 170.062 C 111.363 172.373,110.909 172.751,112.600 171.892 C 133.500 161.276,139.675 129.209,124.597 109.598 C 120.574 104.365,110.701 96.696,108.142 96.816 C 107.954 96.825,108.853 97.365,110.141 98.017 M222.400 97.790 C 222.400 97.894,222.985 98.265,223.700 98.614 L 225.000 99.248 224.000 98.433 C 223.037 97.648,222.400 97.392,222.400 97.790 M225.400 99.469 C 225.620 99.670,227.200 100.885,228.910 102.168 C 232.013 104.495,235.065 107.703,237.598 111.300 C 238.815 113.028,239.676 113.920,238.950 112.700 C 236.944 109.331,233.053 104.964,229.600 102.207 C 227.393 100.445,224.177 98.348,225.400 99.469 M89.354 110.376 C 88.229 110.554,86.969 110.914,86.554 111.177 C 85.877 111.606,85.902 111.630,86.800 111.410 C 116.282 104.197,129.848 147.354,101.693 158.788 C 100.652 159.210,100.054 159.566,100.363 159.578 C 101.979 159.641,107.117 156.451,109.994 153.600 C 127.162 136.585,112.873 106.661,89.354 110.376 M82.375 112.829 C 67.317 121.002,64.332 141.137,76.388 153.220 C 80.759 157.601,87.182 160.971,89.852 160.285 C 90.420 160.139,90.360 160.081,89.600 160.042 C 84.325 159.774,76.427 154.370,73.090 148.745 C 65.680 136.256,70.286 119.249,82.754 113.065 C 84.378 112.259,85.458 111.605,85.154 111.611 C 84.849 111.617,83.599 112.165,82.375 112.829 M240.539 116.300 C 242.460 120.146,243.723 124.326,244.602 129.741 C 245.429 134.841,244.476 144.379,242.622 149.562 C 241.930 151.497,242.025 152.299,242.734 150.513 C 245.861 142.643,246.264 132.717,243.819 123.830 C 242.915 120.543,239.925 113.600,239.413 113.600 C 239.291 113.600,239.797 114.815,240.539 116.300 M167.416 120.678 C 166.463 123.394,165.595 126.718,165.629 127.520 C 165.645 127.894,166.081 126.670,166.597 124.800 C 167.113 122.930,167.735 120.880,167.979 120.245 C 168.223 119.609,168.348 119.014,168.256 118.923 C 168.165 118.831,167.787 119.621,167.416 120.678 M165.059 130.500 C 164.740 133.154,164.777 138.450,165.130 140.800 C 165.281 141.807,165.400 139.472,165.400 135.500 C 165.400 127.533,165.406 127.616,165.059 130.500 M165.668 143.600 C 165.662 144.150,165.811 144.960,166.000 145.400 L 166.344 146.200 166.332 145.400 C 166.326 144.960,166.176 144.150,166.000 143.600 L 165.680 142.600 165.668 143.600 M166.415 146.806 C 166.399 147.449,167.819 151.553,168.184 151.917 C 168.552 152.285,168.433 151.832,167.415 148.969 C 166.873 147.446,166.423 146.473,166.415 146.806 M150.428 147.075 C 150.206 150.821,155.766 163.937,160.316 170.400 C 163.807 175.358,171.448 182.516,176.500 185.561 C 178.823 186.961,178.270 186.291,175.700 184.593 C 163.684 176.650,155.719 165.427,151.575 150.600 C 150.960 148.400,150.444 146.814,150.428 147.075 M240.081 155.409 C 239.602 156.394,239.294 157.200,239.397 157.200 C 239.668 157.200,241.284 153.951,241.103 153.770 C 241.019 153.686,240.559 154.424,240.081 155.409 M169.365 154.600 C 172.799 164.646,188.943 176.402,200.138 177.008 L 203.000 177.163 200.000 176.760 C 188.228 175.178,177.815 168.076,171.062 157.023 C 169.978 155.250,169.215 154.160,169.365 154.600 M236.606 160.826 C 229.913 169.977,219.653 175.836,208.400 176.935 C 207.206 177.052,207.265 177.081,208.800 177.133 C 218.455 177.462,232.873 168.360,238.951 158.100 C 239.772 156.714,238.713 157.945,236.606 160.826 M97.400 160.000 C 96.311 160.277,96.293 160.307,97.200 160.325 C 97.750 160.335,98.560 160.189,99.000 160.000 C 99.986 159.576,99.066 159.576,97.400 160.000 M91.891 160.689 C 92.601 160.777,93.861 160.779,94.691 160.692 C 95.521 160.605,94.940 160.533,93.400 160.531 C 91.860 160.529,91.181 160.600,91.891 160.689 M106.400 174.284 C 104.970 174.830,102.270 175.603,100.400 176.000 C 98.530 176.398,97.461 176.740,98.024 176.762 C 99.513 176.817,105.475 175.243,107.800 174.180 C 110.429 172.978,109.673 173.034,106.400 174.284 M91.911 177.093 C 92.851 177.178,94.291 177.177,95.111 177.091 C 95.930 177.005,95.160 176.936,93.400 176.937 C 91.640 176.939,90.970 177.009,91.911 177.093 M204.300 177.482 C 204.795 177.578,205.605 177.578,206.100 177.482 C 206.595 177.387,206.190 177.309,205.200 177.309 C 204.210 177.309,203.805 177.387,204.300 177.482 M294.200 177.563 C 293.100 177.693,296.160 177.800,301.000 177.800 C 305.840 177.800,308.810 177.683,307.600 177.540 C 304.926 177.223,296.949 177.237,294.200 177.563 M288.600 178.400 C 286.937 178.823,288.574 178.842,290.600 178.423 C 291.945 178.145,292.009 178.092,291.000 178.093 C 290.340 178.094,289.260 178.232,288.600 178.400 M311.400 178.423 C 313.426 178.842,315.063 178.823,313.400 178.400 C 312.740 178.232,311.660 178.094,311.000 178.093 C 309.991 178.092,310.055 178.145,311.400 178.423 M285.400 179.200 C 284.896 179.417,284.822 179.544,285.200 179.544 C 285.530 179.544,286.160 179.389,286.600 179.200 C 287.104 178.983,287.178 178.856,286.800 178.856 C 286.470 178.856,285.840 179.011,285.400 179.200 M315.400 179.200 C 315.840 179.389,316.470 179.544,316.800 179.544 C 317.178 179.544,317.104 179.417,316.600 179.200 C 316.160 179.011,315.530 178.856,315.200 178.856 C 314.822 178.856,314.896 178.983,315.400 179.200 M279.591 180.965 C 276.127 182.321,269.600 185.467,269.600 185.781 C 269.600 185.875,271.625 184.984,274.100 183.799 C 276.575 182.614,279.950 181.190,281.600 180.633 C 283.250 180.076,284.240 179.623,283.800 179.625 C 283.360 179.628,281.466 180.230,279.591 180.965 M318.200 180.000 C 318.640 180.189,319.270 180.344,319.600 180.344 C 319.978 180.344,319.904 180.217,319.400 180.000 C 318.960 179.811,318.330 179.656,318.000 179.656 C 317.622 179.656,317.696 179.783,318.200 180.000 M322.200 181.246 C 324.878 182.321,330.970 185.285,333.200 186.598 C 334.190 187.180,334.640 187.362,334.200 187.001 C 332.128 185.302,321.992 180.364,320.694 180.422 C 320.422 180.434,321.100 180.805,322.200 181.246 M233.455 185.206 C 226.454 189.646,217.949 192.362,208.000 193.335 C 206.975 193.435,207.143 193.489,208.627 193.536 C 215.112 193.741,229.552 188.923,234.800 184.803 C 236.288 183.635,235.614 183.837,233.455 185.206 M266.795 187.471 C 256.995 194.038,248.609 203.814,243.593 214.518 C 241.635 218.697,239.090 226.219,239.329 227.124 C 239.483 227.708,239.514 227.700,239.554 227.062 C 239.653 225.483,242.585 217.591,244.580 213.534 C 249.710 203.099,257.672 193.923,266.900 187.810 C 268.909 186.479,269.490 186.000,269.095 186.000 C 269.037 186.000,268.002 186.662,266.795 187.471 M336.196 188.470 C 345.390 195.615,350.296 201.042,355.434 209.751 C 356.618 211.758,357.590 213.213,357.593 212.985 C 357.603 212.410,353.362 205.517,351.205 202.600 C 347.699 197.859,338.751 189.393,335.600 187.837 C 335.270 187.674,335.538 187.959,336.196 188.470 M183.600 189.156 C 184.111 189.523,186.462 190.335,193.028 192.412 C 193.704 192.625,194.694 192.789,195.228 192.776 C 195.763 192.762,194.663 192.342,192.783 191.841 C 189.849 191.058,187.850 190.427,183.800 189.005 C 183.157 188.780,183.118 188.809,183.600 189.156 M197.400 193.182 C 198.598 193.505,203.482 193.733,203.167 193.451 C 203.075 193.370,201.470 193.203,199.600 193.081 C 197.571 192.948,196.684 192.989,197.400 193.182 M87.924 193.899 C 91.073 193.967,96.113 193.967,99.124 193.899 C 102.136 193.831,99.560 193.776,93.400 193.776 C 87.240 193.776,84.776 193.832,87.924 193.899 M294.200 194.005 C 293.528 194.179,294.584 194.221,296.600 194.102 C 298.580 193.985,300.275 193.824,300.367 193.744 C 300.681 193.472,295.400 193.695,294.200 194.005 M301.633 193.744 C 301.725 193.824,303.420 193.985,305.400 194.102 C 307.416 194.221,308.472 194.179,307.800 194.005 C 306.600 193.695,301.319 193.472,301.633 193.744 M77.000 194.400 C 74.673 194.817,77.140 194.833,79.800 194.418 C 81.699 194.123,81.719 194.107,80.200 194.110 C 79.320 194.112,77.880 194.242,77.000 194.400 M105.705 194.287 C 106.314 194.379,107.214 194.377,107.705 194.282 C 108.197 194.187,107.700 194.111,106.600 194.114 C 105.500 194.117,105.097 194.195,105.705 194.287 M110.600 195.009 C 113.215 195.735,114.324 195.712,112.000 194.979 C 111.010 194.667,109.840 194.422,109.400 194.433 C 108.960 194.445,109.500 194.704,110.600 195.009 M290.000 194.800 C 289.236 195.294,290.058 195.294,291.600 194.800 L 292.600 194.480 291.600 194.446 C 291.050 194.427,290.330 194.587,290.000 194.800 M309.233 194.547 C 309.325 194.628,310.120 194.814,311.000 194.962 C 312.146 195.154,312.430 195.114,312.000 194.821 C 311.460 194.453,308.832 194.193,309.233 194.547 M73.600 195.200 C 72.776 195.464,72.741 195.526,73.400 195.554 C 73.840 195.573,74.470 195.413,74.800 195.200 C 75.501 194.747,75.014 194.747,73.600 195.200 M287.200 195.618 C 286.762 195.915,286.924 195.952,287.800 195.756 C 289.271 195.427,289.590 195.198,288.567 195.206 C 288.145 195.209,287.530 195.395,287.200 195.618 M312.833 195.344 C 312.925 195.423,313.540 195.608,314.200 195.756 C 315.076 195.952,315.238 195.915,314.800 195.618 C 314.260 195.253,312.432 194.998,312.833 195.344 M282.600 197.381 C 278.926 199.153,279.370 199.166,283.404 197.405 C 285.162 196.638,286.330 196.015,286.000 196.020 C 285.670 196.026,284.140 196.639,282.600 197.381 M318.473 197.351 C 357.271 214.291,359.334 268.926,321.919 288.615 C 319.653 289.807,317.980 290.784,318.200 290.786 C 318.420 290.788,320.003 290.074,321.717 289.198 C 358.482 270.426,358.305 216.749,321.417 198.382 C 318.787 197.072,316.357 196.002,316.017 196.005 C 315.678 196.008,316.783 196.614,318.473 197.351 M66.147 198.347 C 55.485 204.226,45.297 220.113,45.635 230.332 C 45.655 230.919,46.087 229.420,46.596 227.000 C 49.058 215.294,56.351 204.262,64.710 199.600 C 67.331 198.138,68.740 197.229,68.400 197.220 C 68.290 197.217,67.276 197.724,66.147 198.347 M119.600 198.134 C 119.600 198.252,120.320 198.753,121.200 199.248 C 123.204 200.374,123.191 200.711,121.092 202.197 C 120.162 202.856,117.469 205.261,115.108 207.543 C 111.250 211.269,110.702 211.664,109.707 211.433 C 108.887 211.242,108.756 211.281,109.200 211.582 C 110.382 212.381,111.095 211.944,115.219 207.896 C 117.519 205.638,120.261 203.173,121.314 202.418 C 122.367 201.662,123.177 200.792,123.114 200.484 C 123.006 199.954,119.600 197.677,119.600 198.134 M277.333 199.926 C 275.109 201.358,274.584 201.984,276.600 200.798 C 278.960 199.409,279.826 198.797,279.389 198.826 C 279.175 198.840,278.250 199.335,277.333 199.926 M271.345 204.157 C 258.215 214.540,251.121 231.955,252.999 249.200 C 253.498 253.779,254.677 259.419,255.550 261.400 C 260.176 271.898,264.036 277.343,270.915 283.072 C 272.849 284.683,274.514 286.000,274.615 286.000 C 275.074 286.000,274.658 285.588,272.700 284.105 C 246.726 264.422,246.726 223.293,272.700 203.504 C 274.556 202.089,275.068 201.600,274.689 201.600 C 274.628 201.600,273.124 202.751,271.345 204.157 M157.200 204.813 C 156.423 204.983,157.669 205.025,160.000 204.906 C 162.310 204.789,164.275 204.627,164.367 204.546 C 164.674 204.277,158.617 204.502,157.200 204.813 M165.633 204.545 C 165.725 204.625,167.780 204.787,170.200 204.905 C 173.077 205.045,173.977 205.005,172.800 204.789 C 171.011 204.461,165.315 204.268,165.633 204.545 M152.800 205.600 L 151.800 205.920 152.800 205.920 C 153.350 205.920,154.250 205.776,154.800 205.600 L 155.800 205.280 154.800 205.280 C 154.250 205.280,153.350 205.424,152.800 205.600 M175.600 205.600 C 176.150 205.776,176.960 205.926,177.400 205.932 L 178.200 205.944 177.400 205.600 C 176.960 205.411,176.150 205.262,175.600 205.268 L 174.600 205.280 175.600 205.600 M147.087 207.169 C 145.375 207.787,143.845 208.436,143.687 208.610 C 143.529 208.785,143.760 208.785,144.200 208.611 C 144.640 208.436,146.530 207.791,148.400 207.176 C 150.270 206.561,151.440 206.055,151.000 206.051 C 150.560 206.048,148.799 206.551,147.087 207.169 M178.433 206.155 C 178.698 206.400,184.755 208.003,185.304 207.973 C 185.924 207.939,179.608 206.023,178.833 206.010 C 178.522 206.004,178.342 206.070,178.433 206.155 M228.800 206.794 C 229.287 207.104,229.309 207.323,228.916 207.957 C 228.207 209.101,226.375 213.708,226.556 213.890 C 226.642 213.975,227.214 212.766,227.827 211.202 C 228.440 209.639,229.090 208.268,229.271 208.156 C 229.905 207.764,229.615 206.400,228.900 206.406 C 228.303 206.411,228.288 206.468,228.800 206.794 M226.711 207.022 C 226.589 207.145,224.444 207.762,221.944 208.393 C 219.445 209.025,217.760 209.551,218.200 209.563 C 219.105 209.587,225.674 207.915,227.200 207.272 C 227.791 207.023,227.941 206.840,227.567 206.825 C 227.218 206.811,226.833 206.900,226.711 207.022 M186.600 208.400 C 187.040 208.589,187.760 208.738,188.200 208.732 C 188.843 208.723,188.804 208.657,188.000 208.400 C 186.632 207.962,185.581 207.962,186.600 208.400 M140.084 210.066 C 138.700 210.746,137.631 211.364,137.707 211.441 C 137.784 211.517,139.096 210.963,140.623 210.208 C 142.150 209.454,143.220 208.835,143.000 208.833 C 142.780 208.831,141.468 209.386,140.084 210.066 M191.000 209.389 C 192.100 209.712,194.080 210.067,195.400 210.178 C 197.765 210.378,197.757 210.373,194.800 209.822 C 189.547 208.844,188.885 208.769,191.000 209.389 M212.600 210.000 C 210.680 210.263,210.664 210.276,212.200 210.308 C 213.080 210.326,214.610 210.197,215.600 210.020 C 217.970 209.599,215.641 209.583,212.600 210.000 M78.400 210.806 C 77.978 211.082,78.215 211.123,79.200 210.942 C 80.925 210.625,81.251 210.398,79.967 210.406 C 79.435 210.409,78.730 210.589,78.400 210.806 M104.033 210.544 C 104.125 210.623,105.190 210.789,106.400 210.912 C 107.769 211.051,108.298 211.008,107.800 210.796 C 107.033 210.470,103.689 210.247,104.033 210.544 M200.900 210.697 C 202.605 210.772,205.395 210.772,207.100 210.697 C 208.805 210.622,207.410 210.561,204.000 210.561 C 200.590 210.561,199.195 210.622,200.900 210.697 M291.454 211.229 L 290.400 212.058 290.400 221.949 C 290.400 229.109,290.267 231.973,289.920 232.320 C 289.574 232.666,286.798 232.800,279.949 232.800 L 270.458 232.800 269.629 233.854 C 268.846 234.849,268.800 235.409,268.800 243.872 L 268.800 252.836 269.782 253.818 L 270.764 254.800 280.102 254.800 C 286.832 254.800,289.574 254.934,289.920 255.280 C 290.267 255.627,290.400 258.482,290.400 265.610 C 290.400 278.387,289.320 277.200,300.944 277.200 L 309.636 277.200 310.618 276.218 L 311.600 275.236 311.600 265.261 C 311.600 256.534,311.679 255.255,312.233 255.043 C 312.581 254.909,316.951 254.800,321.944 254.800 C 334.013 254.800,332.800 256.009,332.800 243.977 C 332.800 231.580,333.975 232.800,322.033 232.800 C 316.991 232.800,312.581 232.691,312.233 232.557 C 311.679 232.345,311.600 231.073,311.600 222.411 C 311.600 212.998,311.559 212.456,310.771 211.454 L 309.942 210.400 301.225 210.400 C 293.012 210.400,292.447 210.448,291.454 211.229 M310.577 211.689 C 311.100 212.435,311.200 214.159,311.200 222.409 C 311.200 229.522,311.333 232.373,311.680 232.720 C 312.026 233.066,314.780 233.200,321.549 233.200 C 333.644 233.200,332.400 231.956,332.400 244.048 C 332.400 255.625,333.689 254.400,321.506 254.400 C 314.770 254.400,312.026 254.534,311.680 254.880 C 311.332 255.228,311.200 258.098,311.200 265.280 C 311.200 278.034,312.283 276.800,301.089 276.800 C 289.652 276.800,290.800 278.065,290.800 265.457 C 290.800 258.137,290.668 255.228,290.320 254.880 C 289.974 254.534,287.230 254.400,280.494 254.400 C 268.298 254.400,269.600 255.667,269.600 243.800 C 269.600 231.933,268.298 233.200,280.494 233.200 C 287.230 233.200,289.974 233.066,290.320 232.720 C 290.668 232.372,290.800 229.502,290.800 222.320 C 290.800 209.548,289.672 210.800,301.177 210.800 C 309.794 210.800,309.966 210.816,310.577 211.689 M75.300 211.834 C 74.585 212.146,74.000 212.494,74.000 212.607 C 74.000 212.815,76.806 211.727,77.146 211.387 C 77.486 211.047,76.620 211.257,75.300 211.834 M133.578 213.876 C 120.532 222.665,111.472 238.327,109.623 255.284 C 108.934 261.611,109.072 287.014,109.816 290.615 C 111.286 297.734,116.355 304.867,121.766 307.433 L 123.000 308.018 122.005 307.309 C 115.227 302.477,112.458 298.781,110.537 292.000 C 109.594 288.672,109.429 259.018,110.321 253.200 C 112.807 236.997,121.456 222.466,133.400 214.429 C 136.694 212.213,137.508 211.600,137.158 211.600 C 137.047 211.600,135.436 212.624,133.578 213.876 M70.952 214.398 C 65.248 218.722,61.900 225.069,61.140 233.000 C 60.433 240.381,58.131 243.420,53.067 243.660 C 51.810 243.719,51.809 243.721,52.934 243.890 C 57.488 244.572,60.894 240.392,61.555 233.308 C 62.329 225.019,65.443 219.134,71.536 214.444 C 72.711 213.540,73.521 212.810,73.336 212.823 C 73.151 212.836,72.079 213.544,70.952 214.398 M357.619 213.704 C 357.588 214.212,359.290 217.644,359.479 217.455 C 359.576 217.358,359.201 216.406,358.646 215.339 C 358.091 214.273,357.629 213.537,357.619 213.704 M224.869 218.075 C 224.202 220.124,223.542 222.373,223.402 223.072 C 223.004 225.072,222.471 225.230,212.200 226.394 L 209.000 226.757 212.935 226.552 C 216.774 226.352,222.618 225.515,223.025 225.108 C 223.313 224.821,226.365 214.632,226.210 214.477 C 226.140 214.407,225.537 216.026,224.869 218.075 M359.600 218.130 C 359.600 218.201,360.036 219.541,360.568 221.107 C 366.068 237.275,365.174 258.722,358.452 271.898 C 357.983 272.817,357.608 273.710,357.619 273.884 C 357.660 274.584,359.780 270.009,360.898 266.810 C 365.520 253.579,366.095 239.709,362.573 226.400 C 361.297 221.575,359.600 216.856,359.600 218.130 M157.400 221.264 C 144.057 223.765,133.621 232.230,128.382 244.800 C 125.260 252.293,124.801 255.936,124.810 273.200 C 124.818 288.853,124.888 289.348,127.417 291.600 L 128.540 292.600 127.319 291.000 C 125.271 288.314,125.200 287.718,125.200 273.138 C 125.200 258.317,125.566 254.258,127.415 248.592 C 132.490 233.035,144.192 223.277,160.200 221.255 C 162.379 220.980,162.601 220.900,161.200 220.895 C 160.210 220.892,158.500 221.058,157.400 221.264 M170.000 221.219 C 172.866 221.565,172.779 221.545,182.966 224.160 C 186.907 225.172,190.507 225.981,190.966 225.959 C 191.425 225.936,191.080 225.746,190.200 225.537 C 189.320 225.327,185.720 224.422,182.200 223.525 C 173.083 221.202,171.230 220.823,169.200 220.867 C 167.632 220.900,167.735 220.946,170.000 221.219 M193.600 226.398 C 195.424 226.745,199.473 226.927,199.167 226.648 C 199.075 226.565,197.380 226.397,195.400 226.276 C 192.807 226.118,192.303 226.152,193.600 226.398 M201.916 227.097 C 203.299 227.175,205.459 227.174,206.716 227.095 C 207.972 227.016,206.840 226.952,204.200 226.953 C 201.560 226.953,200.532 227.018,201.916 227.097 M238.849 228.400 C 238.816 228.730,238.689 229.450,238.567 230.000 C 238.375 230.864,238.407 230.903,238.799 230.288 C 239.048 229.897,239.175 229.177,239.081 228.688 C 238.986 228.200,238.882 228.070,238.849 228.400 M237.672 234.817 C 237.044 239.310,237.114 249.456,237.799 253.200 C 238.166 255.209,238.287 255.539,238.165 254.200 C 237.624 248.285,237.543 238.772,238.009 235.764 C 238.284 233.984,238.427 232.281,238.327 231.980 C 238.227 231.680,237.932 232.956,237.672 234.817 M45.600 237.843 C 45.600 238.652,47.975 241.957,48.873 242.398 L 49.800 242.854 48.937 242.127 C 48.462 241.727,47.517 240.510,46.837 239.422 C 46.157 238.334,45.600 237.623,45.600 237.843 M238.468 257.200 C 238.488 258.239,239.118 259.946,239.132 259.000 C 239.138 258.560,238.989 257.840,238.800 257.400 C 238.589 256.910,238.461 256.832,238.468 257.200 M239.246 260.549 C 239.073 263.343,244.739 276.309,248.639 282.046 C 253.948 289.856,262.482 297.944,269.700 302.007 C 272.032 303.320,271.465 302.677,268.886 301.086 C 254.810 292.397,243.226 276.448,239.482 260.600 C 239.310 259.875,239.288 259.870,239.246 260.549 M356.929 275.043 C 354.120 282.394,343.532 294.325,334.824 299.953 C 331.730 301.953,331.179 302.467,333.498 301.190 C 338.814 298.262,347.334 290.350,351.577 284.400 C 354.845 279.817,357.798 274.865,357.463 274.530 C 357.329 274.395,357.089 274.626,356.929 275.043 M275.200 286.138 C 275.200 286.410,279.808 289.200,280.252 289.199 C 280.444 289.198,279.970 288.819,279.200 288.356 C 278.430 287.894,277.215 287.160,276.500 286.725 C 275.785 286.290,275.200 286.026,275.200 286.138 M287.000 292.000 C 287.440 292.189,288.070 292.344,288.400 292.344 C 288.778 292.344,288.704 292.217,288.200 292.000 C 287.760 291.811,287.130 291.656,286.800 291.656 C 286.422 291.656,286.496 291.783,287.000 292.000 M129.382 293.018 C 131.142 294.346,133.131 294.396,185.252 294.398 L 237.504 294.400 240.337 297.948 C 241.895 299.900,245.157 303.387,247.585 305.697 C 250.013 308.007,252.000 310.101,252.000 310.349 C 252.000 310.597,252.180 310.800,252.400 310.800 C 253.376 310.800,252.628 309.654,250.590 308.028 C 247.840 305.834,242.921 300.725,239.875 296.900 L 237.566 294.000 185.187 294.000 C 134.101 294.000,132.757 293.981,130.704 293.214 C 129.259 292.674,128.845 292.613,129.382 293.018 M290.000 292.800 C 290.330 293.013,291.050 293.173,291.600 293.154 L 292.600 293.120 291.600 292.800 C 290.058 292.306,289.236 292.306,290.000 292.800 M310.400 292.800 C 309.596 293.057,309.557 293.123,310.200 293.132 C 310.640 293.138,311.360 292.989,311.800 292.800 C 312.819 292.362,311.768 292.362,310.400 292.800 M294.400 293.602 C 296.232 293.947,299.870 294.122,299.567 293.851 C 299.475 293.770,297.870 293.604,296.000 293.483 C 293.530 293.324,293.092 293.357,294.400 293.602 M304.400 293.600 C 302.201 293.870,302.201 293.870,304.000 293.905 C 304.990 293.925,306.610 293.797,307.600 293.620 C 309.946 293.203,307.753 293.189,304.400 293.600 M328.800 303.399 C 327.370 304.148,325.300 305.069,324.200 305.446 C 323.100 305.823,322.424 306.207,322.697 306.298 C 323.207 306.469,331.600 302.629,331.600 302.225 C 331.600 301.921,331.727 301.868,328.800 303.399 M271.820 303.127 C 272.969 304.116,283.491 308.242,283.878 307.856 C 283.978 307.755,283.642 307.551,283.130 307.402 C 281.190 306.836,275.731 304.677,273.917 303.758 C 272.011 302.792,271.119 302.524,271.820 303.127 M317.053 307.830 C 315.982 308.122,314.992 308.481,314.853 308.627 C 314.523 308.974,316.977 308.444,318.786 307.778 C 320.596 307.110,319.579 307.141,317.053 307.830 M124.000 308.566 C 124.550 308.860,125.450 309.212,126.000 309.349 C 126.550 309.486,126.280 309.252,125.400 308.829 C 123.590 307.958,122.468 307.748,124.000 308.566 M285.200 308.400 C 286.568 308.838,287.619 308.838,286.600 308.400 C 286.160 308.211,285.440 308.062,285.000 308.068 C 284.357 308.077,284.396 308.143,285.200 308.400 M288.600 309.200 C 289.260 309.368,290.250 309.505,290.800 309.505 C 291.692 309.505,291.670 309.472,290.600 309.200 C 289.940 309.032,288.950 308.895,288.400 308.895 C 287.508 308.895,287.530 308.928,288.600 309.200 M311.400 309.200 C 310.330 309.472,310.308 309.505,311.200 309.505 C 311.750 309.505,312.740 309.368,313.400 309.200 C 314.470 308.928,314.492 308.895,313.600 308.895 C 313.050 308.895,312.060 309.032,311.400 309.200 M127.800 309.888 C 128.240 309.992,128.771 310.240,128.980 310.439 C 129.189 310.637,130.260 310.800,131.360 310.800 C 134.267 310.800,133.123 310.140,129.800 309.901 C 128.260 309.790,127.360 309.784,127.800 309.888 M293.600 309.894 C 294.370 309.982,295.171 310.221,295.380 310.427 C 295.876 310.914,306.124 310.914,306.620 310.427 C 306.829 310.221,307.630 309.982,308.400 309.894 C 309.170 309.807,308.000 309.832,305.800 309.950 C 303.600 310.068,301.440 310.164,301.000 310.164 C 300.560 310.164,298.400 310.068,296.200 309.950 C 294.000 309.832,292.830 309.807,293.600 309.894 " stroke="none" fill="#b1dbe8" fill-rule="evenodd"></path><path id="path3" d="M183.600 2.838 C 70.481 12.607,-11.007 113.035,3.010 225.400 C 14.070 314.052,85.618 385.504,174.400 396.558 C 304.092 412.705,413.110 304.080,396.962 174.800 C 383.954 70.660,288.558 -6.226,183.600 2.838 M213.865 77.376 C 255.275 84.663,275.100 133.233,251.260 168.990 C 242.612 181.960,228.193 191.333,213.400 193.600 C 172.338 199.893,138.225 157.805,151.477 117.200 C 158.537 95.567,175.959 80.538,198.000 77.066 C 200.640 76.651,210.879 76.850,213.865 77.376 M102.400 94.308 C 116.848 98.026,128.778 110.106,132.591 124.882 C 139.385 151.202,119.773 177.300,93.200 177.300 C 58.699 177.300,40.208 135.640,62.530 108.200 C 69.008 100.237,77.221 95.552,88.400 93.444 C 90.681 93.014,99.481 93.557,102.400 94.308 M200.000 94.671 C 157.076 101.614,153.852 164.481,195.862 175.364 C 234.174 185.289,260.459 136.136,232.799 106.292 C 224.736 97.593,211.321 92.840,200.000 94.671 M86.200 112.149 C 66.524 118.567,64.314 148.217,82.834 157.293 C 103.557 167.448,124.282 145.241,113.804 124.109 C 108.557 113.527,97.140 108.580,86.200 112.149 M311.400 177.537 C 312.720 177.771,314.520 178.161,315.400 178.404 C 316.280 178.647,317.672 179.015,318.493 179.223 C 319.803 179.555,321.284 180.063,324.200 181.181 C 344.599 189.006,360.860 209.858,364.610 232.999 C 364.931 234.978,365.375 236.658,365.597 236.732 C 365.848 236.816,366.000 239.578,366.000 244.057 C 366.000 248.324,365.851 251.155,365.633 251.020 C 365.260 250.790,365.046 251.564,364.588 254.800 C 361.287 278.166,343.387 300.097,321.801 307.220 C 317.008 308.802,316.183 309.042,313.600 309.605 C 312.390 309.869,311.087 310.246,310.705 310.443 C 309.811 310.903,291.717 310.912,291.432 310.453 C 291.314 310.261,290.449 309.988,289.509 309.845 C 285.410 309.220,279.232 307.138,273.453 304.435 C 257.806 297.117,243.445 279.665,239.191 262.800 C 238.941 261.810,238.573 260.370,238.372 259.600 C 236.376 251.929,235.999 239.623,237.534 232.200 C 238.972 225.250,239.118 224.678,240.400 221.000 C 246.097 204.658,258.254 190.739,273.420 183.197 C 276.070 181.879,278.515 180.800,278.853 180.800 C 279.190 180.800,279.590 180.677,279.741 180.526 C 280.141 180.126,282.883 179.213,283.705 179.206 C 284.093 179.203,284.723 179.041,285.105 178.847 C 286.128 178.328,289.419 177.604,290.906 177.572 C 291.618 177.556,292.560 177.384,293.000 177.188 C 294.052 176.720,308.323 176.990,311.400 177.537 M111.000 194.138 C 119.681 196.719,125.313 200.132,123.206 201.537 C 121.268 202.829,116.564 207.007,114.033 209.685 C 111.498 212.366,110.054 213.041,108.980 212.049 C 107.572 210.747,83.843 210.226,79.343 211.398 C 69.214 214.036,62.034 223.690,61.991 234.726 C 61.958 243.343,52.636 247.386,47.052 241.205 L 45.600 239.598 45.600 232.618 C 45.600 228.779,45.768 225.224,45.973 224.719 C 46.178 224.213,46.658 222.720,47.040 221.400 C 51.154 207.188,65.121 195.109,79.200 193.588 C 84.389 193.028,108.678 193.448,111.000 194.138 M296.400 194.591 C 262.319 198.737,243.352 235.942,259.345 267.275 C 275.613 299.146,319.464 302.228,339.272 272.892 C 360.391 241.614,341.824 198.193,305.800 194.615 C 304.480 194.484,302.770 194.310,302.000 194.228 C 301.230 194.146,298.710 194.310,296.400 194.591 M174.069 204.446 C 175.241 204.691,180.070 205.846,184.800 207.011 C 201.199 211.052,213.102 210.929,226.535 206.580 C 230.845 205.185,230.911 205.350,228.394 211.214 C 227.241 213.900,225.723 218.191,225.019 220.749 L 223.740 225.400 221.865 225.870 C 211.049 228.583,195.967 228.014,181.800 224.361 C 168.051 220.815,164.152 220.597,154.800 222.847 C 142.639 225.773,133.428 234.063,128.854 246.200 C 126.174 253.308,126.213 252.936,126.206 271.662 L 126.200 288.724 127.428 290.262 C 129.979 293.456,125.028 293.198,184.000 293.205 C 225.002 293.210,236.791 293.321,237.465 293.706 C 237.941 293.978,239.694 295.846,241.361 297.858 C 243.028 299.869,246.464 303.493,248.996 305.911 C 251.528 308.329,253.600 310.419,253.600 310.554 C 253.600 310.689,225.070 310.800,190.200 310.800 C 148.200 310.800,126.800 310.665,126.800 310.400 C 126.800 310.180,126.600 310.000,126.356 310.000 C 124.003 310.000,116.999 305.027,114.107 301.302 C 108.987 294.709,108.710 293.078,108.901 270.680 L 109.059 252.200 110.334 247.400 C 112.044 240.966,115.061 233.732,117.578 230.033 C 117.965 229.465,118.983 227.928,119.840 226.617 C 126.118 217.026,140.307 207.723,152.400 205.270 C 153.610 205.024,155.320 204.657,156.200 204.453 C 158.492 203.922,171.544 203.917,174.069 204.446 M311.078 210.965 L 312.200 211.930 312.296 221.865 L 312.392 231.800 321.696 232.000 C 334.396 232.273,333.600 231.484,333.600 243.800 C 333.600 256.118,334.400 255.327,321.671 255.600 L 312.342 255.800 312.384 265.094 C 312.445 278.396,313.189 277.600,300.696 277.600 L 291.739 277.600 290.770 276.569 C 289.809 275.547,289.798 275.443,289.600 265.524 L 289.400 255.510 280.735 255.575 C 267.693 255.673,268.400 256.356,268.400 243.649 C 268.400 234.496,268.405 234.438,269.365 233.322 L 270.331 232.200 279.810 232.122 C 285.023 232.080,289.363 231.971,289.453 231.880 C 289.544 231.790,289.659 227.264,289.709 221.823 L 289.800 211.930 290.922 210.965 C 292.678 209.455,309.322 209.455,311.078 210.965 " stroke="none" fill="#34a4c4" fill-rule="evenodd"></path><path id="path4" d="M199.891 77.089 C 200.601 77.177,201.861 77.179,202.691 77.092 C 203.521 77.005,202.940 76.933,201.400 76.931 C 199.860 76.929,199.181 77.000,199.891 77.089 M207.491 77.089 C 208.201 77.177,209.461 77.179,210.291 77.092 C 211.121 77.005,210.540 76.933,209.000 76.931 C 207.460 76.929,206.781 77.000,207.491 77.089 M221.146 79.416 C 221.886 79.737,222.696 79.993,222.946 79.984 C 223.196 79.976,222.794 79.706,222.054 79.384 C 221.314 79.063,220.504 78.807,220.254 78.816 C 220.004 78.824,220.406 79.094,221.146 79.416 M175.700 85.246 C 174.337 86.119,173.895 86.706,175.100 86.043 C 176.018 85.539,177.456 84.427,177.200 84.419 C 177.090 84.416,176.415 84.788,175.700 85.246 M168.778 90.700 L 167.400 92.200 168.900 90.822 C 169.725 90.063,170.400 89.388,170.400 89.322 C 170.400 89.016,170.062 89.304,168.778 90.700 M242.600 92.000 C 243.906 93.320,245.065 94.400,245.175 94.400 C 245.285 94.400,244.306 93.320,243.000 92.000 C 241.694 90.680,240.535 89.600,240.425 89.600 C 240.315 89.600,241.294 90.680,242.600 92.000 M165.578 93.500 L 164.200 95.000 165.700 93.622 C 166.525 92.863,167.200 92.188,167.200 92.122 C 167.200 91.816,166.862 92.104,165.578 93.500 M91.100 93.495 C 92.255 93.576,94.145 93.576,95.300 93.495 C 96.455 93.414,95.510 93.348,93.200 93.348 C 90.890 93.348,89.945 93.414,91.100 93.495 M203.913 94.295 C 205.076 94.376,206.876 94.376,207.913 94.293 C 208.951 94.211,208.000 94.145,205.800 94.146 C 203.600 94.147,202.751 94.214,203.913 94.295 M195.600 95.200 C 194.808 95.454,194.767 95.520,195.400 95.520 C 195.840 95.520,196.650 95.376,197.200 95.200 C 197.992 94.946,198.033 94.880,197.400 94.880 C 196.960 94.880,196.150 95.024,195.600 95.200 M160.400 99.600 C 159.930 100.260,159.636 100.800,159.746 100.800 C 159.856 100.800,160.330 100.260,160.800 99.600 C 161.270 98.940,161.564 98.400,161.454 98.400 C 161.344 98.400,160.870 98.940,160.400 99.600 M121.409 105.570 C 122.733 107.016,124.414 108.920,125.143 109.800 C 126.341 111.246,126.379 111.265,125.540 110.000 C 125.030 109.230,123.349 107.326,121.806 105.770 L 119.000 102.940 121.409 105.570 M179.375 104.100 L 178.200 105.400 179.500 104.225 C 180.215 103.579,180.800 102.994,180.800 102.925 C 180.800 102.616,180.470 102.888,179.375 104.100 M233.010 106.500 C 234.748 108.425,236.239 110.000,236.324 110.000 C 236.585 110.000,232.559 105.476,231.162 104.200 C 230.440 103.540,231.272 104.575,233.010 106.500 M65.373 104.900 C 62.412 108.153,61.865 108.800,62.076 108.800 C 62.201 108.800,63.330 107.630,64.585 106.200 C 66.910 103.552,67.527 102.534,65.373 104.900 M253.800 106.400 C 254.141 107.060,254.511 107.600,254.621 107.600 C 254.731 107.600,254.541 107.060,254.200 106.400 C 253.859 105.740,253.489 105.200,253.379 105.200 C 253.269 105.200,253.459 105.740,253.800 106.400 M60.719 110.500 C 59.557 112.048,59.096 112.800,59.309 112.800 C 59.394 112.800,60.046 111.990,60.757 111.000 C 62.232 108.946,62.200 108.527,60.719 110.500 M173.375 110.668 C 172.759 111.476,172.459 112.011,172.709 111.856 C 173.221 111.540,174.953 109.200,174.675 109.200 C 174.576 109.200,173.991 109.861,173.375 110.668 M255.634 109.800 C 255.634 110.020,255.978 110.830,256.400 111.600 C 256.822 112.370,257.166 112.820,257.166 112.600 C 257.166 112.380,256.822 111.570,256.400 110.800 C 255.978 110.030,255.634 109.580,255.634 109.800 M91.712 111.095 C 92.764 111.177,94.384 111.176,95.312 111.092 C 96.240 111.008,95.380 110.941,93.400 110.942 C 91.420 110.943,90.660 111.012,91.712 111.095 M170.832 114.668 C 170.156 115.916,169.666 116.999,169.742 117.075 C 169.818 117.152,170.458 116.131,171.164 114.807 C 171.870 113.483,172.360 112.400,172.254 112.400 C 172.147 112.400,171.507 113.421,170.832 114.668 M58.200 114.400 C 57.859 115.060,57.669 115.600,57.779 115.600 C 57.889 115.600,58.259 115.060,58.600 114.400 C 58.941 113.740,59.131 113.200,59.021 113.200 C 58.911 113.200,58.541 113.740,58.200 114.400 M128.682 115.789 C 129.273 116.993,129.823 117.911,129.905 117.829 C 130.084 117.649,128.067 113.600,127.798 113.600 C 127.694 113.600,128.092 114.585,128.682 115.789 M239.878 116.195 C 240.244 116.962,240.614 117.519,240.701 117.432 C 240.884 117.249,239.670 114.800,239.396 114.800 C 239.295 114.800,239.512 115.428,239.878 116.195 M77.600 116.854 L 75.800 118.485 77.494 117.213 C 78.968 116.107,79.914 115.174,79.524 115.212 C 79.456 115.219,78.590 115.958,77.600 116.854 M109.183 117.300 C 110.841 119.066,111.200 119.384,111.200 119.083 C 111.200 119.019,110.345 118.164,109.300 117.183 L 107.400 115.400 109.183 117.300 M56.475 117.819 C 55.270 120.300,55.405 120.647,56.646 118.261 C 57.201 117.194,57.587 116.253,57.503 116.170 C 57.419 116.086,56.957 116.828,56.475 117.819 M150.256 120.884 C 150.121 121.388,150.027 122.160,150.046 122.600 C 150.065 123.040,150.245 122.698,150.446 121.840 C 150.836 120.178,150.670 119.340,150.256 120.884 M113.560 123.589 C 114.346 125.104,115.048 126.285,115.121 126.213 C 115.308 126.025,112.888 121.302,112.474 121.046 C 112.285 120.929,112.774 122.073,113.560 123.589 M131.239 121.200 C 131.224 121.310,131.467 122.210,131.779 123.200 C 132.091 124.190,132.350 124.640,132.355 124.200 C 132.363 123.503,131.308 120.671,131.239 121.200 M72.129 124.615 C 71.341 126.273,70.765 127.698,70.848 127.781 C 70.932 127.864,71.661 126.508,72.470 124.766 C 73.278 123.025,73.854 121.600,73.750 121.600 C 73.646 121.600,72.916 122.957,72.129 124.615 M260.282 124.600 C 260.409 125.700,260.577 126.675,260.656 126.767 C 260.955 127.114,260.728 124.164,260.397 123.400 C 260.174 122.885,260.133 123.313,260.282 124.600 M132.673 126.800 C 132.804 127.790,132.976 128.675,133.056 128.767 C 133.357 129.114,133.128 126.564,132.790 125.800 C 132.553 125.266,132.514 125.598,132.673 126.800 M166.200 127.600 C 166.046 128.510,166.004 129.338,166.107 129.440 C 166.210 129.543,166.413 128.877,166.560 127.960 C 166.707 127.043,166.748 126.215,166.653 126.120 C 166.558 126.024,166.354 126.690,166.200 127.600 M243.670 127.400 C 243.657 127.840,243.795 128.920,243.977 129.800 C 244.255 131.145,244.308 131.209,244.307 130.200 C 244.305 128.799,243.708 126.170,243.670 127.400 M53.293 128.800 C 53.293 129.570,53.375 129.885,53.476 129.500 C 53.576 129.115,53.576 128.485,53.476 128.100 C 53.375 127.715,53.293 128.030,53.293 128.800 M148.721 132.500 C 148.612 134.535,148.635 137.550,148.774 139.200 C 148.962 141.440,149.037 140.504,149.069 135.500 C 149.116 127.955,149.014 127.069,148.721 132.500 M133.320 131.200 C 133.320 132.410,133.395 132.905,133.487 132.300 C 133.578 131.695,133.578 130.705,133.487 130.100 C 133.395 129.495,133.320 129.990,133.320 131.200 M165.758 135.400 C 165.758 138.480,165.821 139.687,165.897 138.082 C 165.973 136.478,165.973 133.958,165.896 132.482 C 165.819 131.007,165.757 132.320,165.758 135.400 M52.954 135.600 C 52.954 138.350,53.018 139.475,53.096 138.100 C 53.174 136.725,53.174 134.475,53.096 133.100 C 53.018 131.725,52.954 132.850,52.954 135.600 M261.353 135.800 C 261.353 138.440,261.418 139.468,261.497 138.084 C 261.575 136.701,261.574 134.541,261.495 133.284 C 261.416 132.028,261.352 133.160,261.353 135.800 M116.493 132.800 C 116.493 133.570,116.575 133.885,116.676 133.500 C 116.776 133.115,116.776 132.485,116.676 132.100 C 116.575 131.715,116.493 132.030,116.493 132.800 M69.737 135.400 C 69.739 137.160,69.809 137.830,69.893 136.889 C 69.978 135.949,69.977 134.509,69.891 133.689 C 69.805 132.870,69.736 133.640,69.737 135.400 M244.537 135.800 C 244.539 137.560,244.609 138.230,244.693 137.289 C 244.778 136.349,244.777 134.909,244.691 134.089 C 244.605 133.270,244.536 134.040,244.537 135.800 M133.709 135.600 C 133.709 136.590,133.787 136.995,133.882 136.500 C 133.978 136.005,133.978 135.195,133.882 134.700 C 133.787 134.205,133.709 134.610,133.709 135.600 M133.309 140.000 C 133.309 140.990,133.387 141.395,133.482 140.900 C 133.578 140.405,133.578 139.595,133.482 139.100 C 133.387 138.605,133.309 139.010,133.309 140.000 M243.833 141.633 C 243.683 142.766,243.641 143.774,243.739 143.872 C 243.837 143.971,244.045 143.128,244.200 142.000 C 244.355 140.872,244.398 139.864,244.294 139.761 C 244.191 139.658,243.984 140.500,243.833 141.633 M53.228 142.033 C 53.244 142.785,53.412 143.760,53.603 144.200 C 53.826 144.715,53.867 144.287,53.718 143.000 C 53.444 140.622,53.189 140.119,53.228 142.033 M166.087 142.400 C 166.083 142.950,166.224 143.850,166.400 144.400 C 166.831 145.744,166.831 144.292,166.400 142.600 C 166.126 141.522,166.094 141.502,166.087 142.400 M132.854 142.800 C 132.819 143.350,132.696 144.250,132.583 144.800 L 132.377 145.800 132.807 144.815 C 133.043 144.274,133.165 143.374,133.078 142.815 L 132.920 141.800 132.854 142.800 M260.459 145.000 C 260.420 145.660,260.296 146.650,260.183 147.200 L 259.977 148.200 260.408 147.214 C 260.644 146.672,260.768 145.682,260.683 145.014 L 260.528 143.800 260.459 145.000 M166.818 146.054 C 166.808 146.414,167.063 147.314,167.384 148.054 C 168.140 149.794,168.158 149.073,167.412 147.000 C 167.095 146.120,166.827 145.694,166.818 146.054 M72.000 146.153 C 72.000 146.582,73.190 148.800,73.421 148.800 C 73.531 148.800,73.323 148.215,72.959 147.500 C 72.217 146.040,72.000 145.736,72.000 146.153 M131.525 148.296 C 131.154 149.555,130.911 150.644,130.985 150.718 C 131.199 150.933,132.479 146.837,132.333 146.403 C 132.260 146.186,131.896 147.038,131.525 148.296 M113.325 148.032 C 112.850 148.900,112.629 149.506,112.834 149.379 C 113.277 149.105,114.518 146.784,114.324 146.591 C 114.250 146.516,113.800 147.165,113.325 148.032 M242.629 147.429 C 242.481 148.015,242.438 148.572,242.532 148.666 C 242.627 148.760,242.824 148.358,242.971 147.771 C 243.119 147.185,243.162 146.628,243.068 146.534 C 242.973 146.440,242.776 146.842,242.629 147.429 M259.111 151.261 C 258.741 152.641,258.503 153.836,258.582 153.915 C 258.798 154.131,260.063 149.590,259.913 149.139 C 259.842 148.925,259.481 149.880,259.111 151.261 M168.028 149.692 C 167.982 150.165,169.286 153.248,169.458 153.075 C 169.545 152.988,169.266 152.125,168.837 151.158 C 168.408 150.191,168.044 149.531,168.028 149.692 M110.027 152.509 C 108.555 154.196,108.341 154.548,109.362 153.600 C 110.704 152.354,112.660 149.985,112.327 150.009 C 112.257 150.014,111.222 151.139,110.027 152.509 M55.636 151.000 C 55.636 151.220,56.070 152.210,56.600 153.200 C 57.130 154.190,57.564 154.820,57.564 154.600 C 57.564 154.380,57.130 153.390,56.600 152.400 C 56.070 151.410,55.636 150.780,55.636 151.000 M129.265 153.817 C 128.595 155.288,128.723 155.602,129.447 154.265 C 129.786 153.640,129.988 153.054,129.896 152.963 C 129.805 152.871,129.521 153.256,129.265 153.817 M240.231 153.903 C 240.098 154.323,239.361 155.731,238.593 157.033 C 237.826 158.335,237.577 158.952,238.041 158.404 C 239.068 157.190,240.927 153.594,240.663 153.330 C 240.559 153.225,240.364 153.483,240.231 153.903 M58.200 156.400 C 58.541 157.060,58.911 157.600,59.021 157.600 C 59.131 157.600,58.941 157.060,58.600 156.400 C 58.259 155.740,57.889 155.200,57.779 155.200 C 57.669 155.200,57.859 155.740,58.200 156.400 M127.800 156.800 C 127.459 157.460,127.269 158.000,127.379 158.000 C 127.489 158.000,127.859 157.460,128.200 156.800 C 128.541 156.140,128.731 155.600,128.621 155.600 C 128.511 155.600,128.141 156.140,127.800 156.800 M59.566 158.700 C 59.783 159.085,60.434 159.940,61.012 160.600 C 61.808 161.508,61.748 161.338,60.764 159.900 C 59.480 158.022,58.802 157.344,59.566 158.700 M256.272 159.419 C 255.332 161.389,255.464 161.724,256.447 159.862 C 256.893 159.016,257.187 158.254,257.101 158.167 C 257.014 158.081,256.641 158.644,256.272 159.419 M173.191 159.988 C 173.657 160.641,174.242 161.302,174.491 161.456 C 174.741 161.611,174.441 161.076,173.825 160.268 C 172.488 158.515,171.984 158.292,173.191 159.988 M125.200 160.800 C 124.730 161.460,124.436 162.000,124.546 162.000 C 124.656 162.000,125.130 161.460,125.600 160.800 C 126.070 160.140,126.364 159.600,126.254 159.600 C 126.144 159.600,125.670 160.140,125.200 160.800 M236.000 160.800 C 235.530 161.460,235.236 162.000,235.346 162.000 C 235.456 162.000,235.930 161.460,236.400 160.800 C 236.870 160.140,237.164 159.600,237.054 159.600 C 236.944 159.600,236.470 160.140,236.000 160.800 M122.975 163.700 L 121.800 165.000 123.100 163.825 C 123.815 163.179,124.400 162.594,124.400 162.525 C 124.400 162.216,124.070 162.488,122.975 163.700 M177.583 165.300 C 179.241 167.066,179.600 167.384,179.600 167.083 C 179.600 167.019,178.745 166.164,177.700 165.183 L 175.800 163.400 177.583 165.300 M65.400 166.000 C 66.483 167.100,67.460 168.000,67.570 168.000 C 67.680 168.000,66.883 167.100,65.800 166.000 C 64.717 164.900,63.740 164.000,63.630 164.000 C 63.520 164.000,64.317 164.900,65.400 166.000 M230.378 167.100 L 229.000 168.600 230.500 167.222 C 231.896 165.938,232.184 165.600,231.878 165.600 C 231.812 165.600,231.137 166.275,230.378 167.100 M118.975 167.700 L 117.800 169.000 119.100 167.825 C 120.312 166.730,120.584 166.400,120.275 166.400 C 120.206 166.400,119.621 166.985,118.975 167.700 M68.144 168.309 C 68.460 168.821,70.800 170.553,70.800 170.275 C 70.800 170.176,70.139 169.591,69.332 168.975 C 68.524 168.359,67.989 168.059,68.144 168.309 M250.800 169.200 C 250.330 169.860,250.036 170.400,250.146 170.400 C 250.256 170.400,250.730 169.860,251.200 169.200 C 251.670 168.540,251.964 168.000,251.854 168.000 C 251.744 168.000,251.270 168.540,250.800 169.200 M160.000 170.800 C 160.470 171.460,160.944 172.000,161.054 172.000 C 161.164 172.000,160.870 171.460,160.400 170.800 C 159.930 170.140,159.456 169.600,159.346 169.600 C 159.236 169.600,159.530 170.140,160.000 170.800 M184.200 170.607 C 184.640 170.966,185.360 171.435,185.800 171.651 L 186.600 172.044 185.800 171.393 C 185.360 171.034,184.640 170.565,184.200 170.349 L 183.400 169.956 184.200 170.607 M73.200 171.964 C 73.750 172.414,74.380 172.783,74.600 172.785 C 75.028 172.788,74.305 172.234,73.000 171.560 C 72.469 171.285,72.536 171.421,73.200 171.964 M111.500 172.629 C 110.005 173.440,110.096 173.778,111.600 173.000 C 112.260 172.659,112.800 172.294,112.800 172.190 C 112.800 171.932,112.757 171.947,111.500 172.629 M161.200 172.525 C 161.200 172.594,161.785 173.179,162.500 173.825 L 163.800 175.000 162.625 173.700 C 161.530 172.488,161.200 172.216,161.200 172.525 M189.200 173.366 C 189.750 173.660,190.650 174.012,191.200 174.149 C 191.750 174.286,191.480 174.052,190.600 173.629 C 188.790 172.758,187.668 172.548,189.200 173.366 M243.600 177.722 C 241.510 179.764,239.080 182.027,238.200 182.752 C 236.750 183.945,236.731 183.983,238.000 183.150 C 239.348 182.264,248.009 174.024,247.600 174.015 C 247.490 174.012,245.690 175.681,243.600 177.722 M195.400 175.600 C 195.840 175.789,196.560 175.938,197.000 175.932 C 197.643 175.923,197.604 175.857,196.800 175.600 C 195.432 175.162,194.381 175.162,195.400 175.600 M201.305 176.687 C 201.914 176.779,202.814 176.777,203.305 176.682 C 203.797 176.587,203.300 176.511,202.200 176.514 C 201.100 176.517,200.697 176.595,201.305 176.687 M207.100 176.682 C 207.595 176.778,208.405 176.778,208.900 176.682 C 209.395 176.587,208.990 176.509,208.000 176.509 C 207.010 176.509,206.605 176.587,207.100 176.682 M293.000 177.176 C 292.546 177.357,293.499 177.417,295.200 177.315 C 299.107 177.082,299.681 176.864,296.400 176.860 C 294.970 176.858,293.440 177.000,293.000 177.176 M303.800 176.999 C 304.709 177.307,309.748 177.482,309.000 177.180 C 308.560 177.002,307.120 176.858,305.800 176.860 C 304.480 176.862,303.580 176.924,303.800 176.999 M91.105 177.483 C 91.602 177.579,92.322 177.575,92.705 177.475 C 93.087 177.375,92.680 177.296,91.800 177.301 C 90.920 177.305,90.607 177.387,91.105 177.483 M94.100 177.476 C 94.485 177.576,95.115 177.576,95.500 177.476 C 95.885 177.375,95.570 177.293,94.800 177.293 C 94.030 177.293,93.715 177.375,94.100 177.476 M288.200 178.000 C 287.181 178.438,288.232 178.438,289.600 178.000 C 290.404 177.743,290.443 177.677,289.800 177.668 C 289.360 177.662,288.640 177.811,288.200 178.000 M312.400 178.000 C 313.768 178.438,314.819 178.438,313.800 178.000 C 313.360 177.811,312.640 177.662,312.200 177.668 C 311.557 177.677,311.596 177.743,312.400 178.000 M282.000 179.618 C 281.562 179.915,281.724 179.952,282.600 179.756 C 284.071 179.427,284.390 179.198,283.367 179.206 C 282.945 179.209,282.330 179.395,282.000 179.618 M168.400 179.725 C 168.400 179.794,168.985 180.379,169.700 181.025 L 171.000 182.200 169.825 180.900 C 168.730 179.688,168.400 179.416,168.400 179.725 M272.700 183.426 C 271.655 183.970,270.800 184.505,270.800 184.614 C 270.800 184.793,274.760 182.923,275.167 182.552 C 275.662 182.101,274.361 182.562,272.700 183.426 M268.800 185.636 C 268.136 186.179,268.069 186.315,268.600 186.040 C 269.905 185.366,270.628 184.812,270.200 184.815 C 269.980 184.817,269.350 185.186,268.800 185.636 M181.200 188.600 C 182.190 189.130,183.180 189.564,183.400 189.564 C 183.620 189.564,182.990 189.130,182.000 188.600 C 181.010 188.070,180.020 187.636,179.800 187.636 C 179.580 187.636,180.210 188.070,181.200 188.600 M221.200 191.400 C 220.430 191.697,220.070 191.945,220.400 191.952 C 220.730 191.958,221.540 191.717,222.200 191.414 C 223.745 190.707,223.026 190.697,221.200 191.400 M256.800 195.000 C 255.161 196.650,253.910 198.000,254.020 198.000 C 254.130 198.000,255.561 196.650,257.200 195.000 C 258.839 193.350,260.090 192.000,259.980 192.000 C 259.870 192.000,258.439 193.350,256.800 195.000 M192.800 192.782 C 193.130 193.005,193.745 193.191,194.167 193.194 C 195.190 193.202,194.871 192.973,193.400 192.644 C 192.524 192.448,192.362 192.485,192.800 192.782 M216.400 192.800 C 215.576 193.064,215.541 193.126,216.200 193.154 C 216.640 193.173,217.270 193.013,217.600 192.800 C 218.301 192.347,217.814 192.347,216.400 192.800 M344.600 194.800 C 345.906 196.120,347.065 197.200,347.175 197.200 C 347.285 197.200,346.306 196.120,345.000 194.800 C 343.694 193.480,342.535 192.400,342.425 192.400 C 342.315 192.400,343.294 193.480,344.600 194.800 M87.724 193.499 C 90.983 193.567,96.203 193.566,99.324 193.499 C 102.446 193.431,99.780 193.376,93.400 193.377 C 87.020 193.377,84.466 193.432,87.724 193.499 M76.400 194.000 C 75.056 194.431,76.508 194.431,78.200 194.000 C 79.278 193.726,79.298 193.694,78.400 193.687 C 77.850 193.683,76.950 193.824,76.400 194.000 M107.633 193.747 C 107.725 193.828,108.520 194.004,109.400 194.138 C 110.515 194.307,110.758 194.271,110.200 194.019 C 109.432 193.671,107.290 193.444,107.633 193.747 M198.305 193.883 C 198.802 193.979,199.522 193.975,199.905 193.875 C 200.287 193.775,199.880 193.696,199.000 193.701 C 198.120 193.705,197.807 193.787,198.305 193.883 M210.305 193.883 C 210.802 193.979,211.522 193.975,211.905 193.875 C 212.287 193.775,211.880 193.696,211.000 193.701 C 210.120 193.705,209.807 193.787,210.305 193.883 M297.900 194.282 C 298.395 194.378,299.205 194.378,299.700 194.282 C 300.195 194.187,299.790 194.109,298.800 194.109 C 297.810 194.109,297.405 194.187,297.900 194.282 M302.500 194.276 C 302.885 194.376,303.515 194.376,303.900 194.276 C 304.285 194.175,303.970 194.093,303.200 194.093 C 302.430 194.093,302.115 194.175,302.500 194.276 M349.200 199.800 C 349.946 200.570,350.647 201.200,350.757 201.200 C 350.867 201.200,350.346 200.570,349.600 199.800 C 348.854 199.030,348.153 198.400,348.043 198.400 C 347.933 198.400,348.454 199.030,349.200 199.800 M122.762 199.522 C 123.447 200.074,123.642 200.514,123.439 201.049 C 123.218 201.629,123.261 201.692,123.629 201.327 C 124.263 200.699,123.862 199.759,122.723 199.199 C 121.811 198.752,121.812 198.756,122.762 199.522 M252.175 200.100 L 251.000 201.400 252.300 200.225 C 253.015 199.579,253.600 198.994,253.600 198.925 C 253.600 198.616,253.270 198.888,252.175 200.100 M322.800 199.779 C 322.800 199.889,323.340 200.259,324.000 200.600 C 324.660 200.941,325.200 201.131,325.200 201.021 C 325.200 200.911,324.660 200.541,324.000 200.200 C 323.340 199.859,322.800 199.669,322.800 199.779 M352.000 203.400 C 352.681 204.390,353.328 205.200,353.438 205.200 C 353.548 205.200,353.081 204.390,352.400 203.400 C 351.719 202.410,351.072 201.600,350.962 201.600 C 350.852 201.600,351.319 202.410,352.000 203.400 M57.385 204.500 L 55.400 206.600 57.500 204.615 C 59.451 202.771,59.783 202.400,59.485 202.400 C 59.422 202.400,58.477 203.345,57.385 204.500 M248.975 204.268 C 248.359 205.076,248.059 205.611,248.309 205.456 C 248.821 205.140,250.553 202.800,250.275 202.800 C 250.176 202.800,249.591 203.461,248.975 204.268 M158.500 204.287 C 159.105 204.378,160.095 204.378,160.700 204.287 C 161.305 204.195,160.810 204.120,159.600 204.120 C 158.390 204.120,157.895 204.195,158.500 204.287 M169.700 204.287 C 170.305 204.378,171.295 204.378,171.900 204.287 C 172.505 204.195,172.010 204.120,170.800 204.120 C 169.590 204.120,169.095 204.195,169.700 204.287 M117.775 205.700 L 116.600 207.000 117.900 205.825 C 118.615 205.179,119.200 204.594,119.200 204.525 C 119.200 204.216,118.870 204.488,117.775 205.700 M176.600 205.200 C 177.040 205.389,177.670 205.544,178.000 205.544 C 178.378 205.544,178.304 205.417,177.800 205.200 C 177.360 205.011,176.730 204.856,176.400 204.856 C 176.022 204.856,176.096 204.983,176.600 205.200 M228.400 206.027 C 227.923 206.365,227.978 206.403,228.670 206.209 C 229.264 206.042,229.682 206.193,229.985 206.682 C 230.399 207.351,230.421 207.346,230.310 206.605 C 230.172 205.685,229.267 205.411,228.400 206.027 M247.312 206.500 C 246.628 207.387,244.335 211.600,244.536 211.600 C 244.643 211.600,245.457 210.340,246.345 208.800 C 247.855 206.181,248.211 205.334,247.312 206.500 M268.000 207.800 C 267.028 208.790,266.323 209.600,266.433 209.600 C 266.543 209.600,267.428 208.790,268.400 207.800 C 269.372 206.810,270.077 206.000,269.967 206.000 C 269.857 206.000,268.972 206.810,268.000 207.800 M355.457 208.591 C 356.013 209.586,356.547 210.400,356.642 210.400 C 356.923 210.400,355.248 207.277,354.829 207.018 C 354.618 206.888,354.901 207.595,355.457 208.591 M54.148 208.100 C 52.217 210.296,49.202 215.200,49.784 215.200 C 49.894 215.200,50.372 214.435,50.846 213.500 C 51.320 212.565,52.492 210.765,53.451 209.500 C 55.235 207.144,55.558 206.496,54.148 208.100 M187.400 208.000 C 187.840 208.189,188.560 208.338,189.000 208.332 C 189.643 208.323,189.604 208.257,188.800 208.000 C 187.432 207.562,186.381 207.562,187.400 208.000 M335.196 209.594 C 335.890 210.471,336.667 211.318,336.923 211.476 C 337.178 211.634,336.693 210.916,335.845 209.881 C 334.997 208.847,334.220 208.000,334.118 208.000 C 334.016 208.000,334.501 208.718,335.196 209.594 M141.200 209.000 C 140.650 209.314,140.380 209.572,140.600 209.572 C 140.820 209.572,141.450 209.314,142.000 209.000 C 142.550 208.686,142.820 208.428,142.600 208.428 C 142.380 208.428,141.750 208.686,141.200 209.000 M190.800 208.800 C 192.168 209.238,193.219 209.238,192.200 208.800 C 191.760 208.611,191.040 208.462,190.600 208.468 C 189.957 208.477,189.996 208.543,190.800 208.800 M217.800 208.819 C 217.242 209.071,217.485 209.107,218.600 208.938 C 219.480 208.804,220.275 208.628,220.367 208.547 C 220.710 208.244,218.568 208.471,217.800 208.819 M193.700 209.476 C 194.085 209.576,194.715 209.576,195.100 209.476 C 195.485 209.375,195.170 209.293,194.400 209.293 C 193.630 209.293,193.315 209.375,193.700 209.476 M213.705 209.487 C 214.314 209.579,215.214 209.577,215.705 209.482 C 216.197 209.387,215.700 209.311,214.600 209.314 C 213.500 209.317,213.097 209.395,213.705 209.487 M112.378 211.100 L 111.000 212.600 112.500 211.222 C 113.896 209.938,114.184 209.600,113.878 209.600 C 113.812 209.600,113.137 210.275,112.378 211.100 M196.700 209.882 C 197.195 209.978,198.005 209.978,198.500 209.882 C 198.995 209.787,198.590 209.709,197.600 209.709 C 196.610 209.709,196.205 209.787,196.700 209.882 M209.705 209.887 C 210.314 209.979,211.214 209.977,211.705 209.882 C 212.197 209.787,211.700 209.711,210.600 209.714 C 209.500 209.717,209.097 209.795,209.705 209.887 M202.900 210.291 C 203.725 210.378,205.075 210.378,205.900 210.291 C 206.725 210.205,206.050 210.134,204.400 210.134 C 202.750 210.134,202.075 210.205,202.900 210.291 M228.065 211.017 C 227.395 212.488,227.523 212.802,228.247 211.465 C 228.586 210.840,228.788 210.254,228.696 210.163 C 228.605 210.071,228.321 210.456,228.065 211.017 M295.700 210.298 C 297.845 210.370,301.355 210.370,303.500 210.298 C 305.645 210.226,303.890 210.167,299.600 210.167 C 295.310 210.167,293.555 210.226,295.700 210.298 M310.848 211.000 C 311.204 211.440,311.595 212.070,311.716 212.400 C 311.903 212.909,311.942 212.904,311.968 212.362 C 311.986 212.011,311.595 211.381,311.100 210.962 C 310.208 210.206,310.206 210.207,310.848 211.000 M78.800 211.200 C 77.996 211.457,77.957 211.523,78.600 211.532 C 79.040 211.538,79.760 211.389,80.200 211.200 C 81.219 210.762,80.168 210.762,78.800 211.200 M104.100 211.076 C 104.485 211.176,105.115 211.176,105.500 211.076 C 105.885 210.975,105.570 210.893,104.800 210.893 C 104.030 210.893,103.715 210.975,104.100 211.076 M289.772 222.000 C 289.772 227.170,289.829 229.285,289.899 226.700 C 289.968 224.115,289.968 219.885,289.899 217.300 C 289.829 214.715,289.772 216.830,289.772 222.000 M312.172 222.200 C 312.172 227.260,312.229 229.275,312.299 226.677 C 312.369 224.080,312.368 219.940,312.298 217.477 C 312.228 215.015,312.171 217.140,312.172 222.200 M242.200 216.261 C 241.864 217.065,241.682 217.815,241.795 217.928 C 241.908 218.041,242.000 218.035,242.000 217.916 C 242.000 217.796,242.272 217.046,242.605 216.249 C 242.938 215.452,243.121 214.800,243.011 214.800 C 242.901 214.800,242.536 215.458,242.200 216.261 M358.818 214.860 C 358.808 215.003,359.248 216.083,359.796 217.260 C 360.344 218.437,360.786 219.130,360.778 218.800 C 360.764 218.204,358.853 214.362,358.818 214.860 M68.966 216.900 C 67.196 218.832,66.253 220.000,66.462 220.000 C 66.564 220.000,67.502 219.010,68.547 217.800 C 70.607 215.413,70.896 214.793,68.966 216.900 M260.600 217.200 C 260.259 217.860,260.069 218.400,260.179 218.400 C 260.289 218.400,260.659 217.860,261.000 217.200 C 261.341 216.540,261.531 216.000,261.421 216.000 C 261.311 216.000,260.941 216.540,260.600 217.200 M48.065 218.217 C 47.809 218.778,47.607 219.454,47.616 219.719 C 47.624 219.983,47.897 219.588,48.222 218.839 C 48.905 217.265,48.761 216.690,48.065 218.217 M341.800 218.800 C 342.141 219.460,342.511 220.000,342.621 220.000 C 342.731 220.000,342.541 219.460,342.200 218.800 C 341.859 218.140,341.489 217.600,341.379 217.600 C 341.269 217.600,341.459 218.140,341.800 218.800 M125.186 220.300 L 123.000 222.600 125.300 220.414 C 127.437 218.382,127.783 218.000,127.486 218.000 C 127.424 218.000,126.389 219.035,125.186 220.300 M342.834 220.600 C 342.834 220.820,343.178 221.630,343.600 222.400 C 344.022 223.170,344.366 223.620,344.366 223.400 C 344.366 223.180,344.022 222.370,343.600 221.600 C 343.178 220.830,342.834 220.380,342.834 220.600 M159.600 221.600 C 158.250 221.884,158.243 221.895,159.400 221.900 C 160.060 221.903,161.140 221.768,161.800 221.600 C 163.460 221.178,161.607 221.178,159.600 221.600 M167.633 221.350 C 167.725 221.432,168.880 221.600,170.200 221.723 C 171.778 221.870,172.189 221.835,171.400 221.620 C 170.166 221.285,167.336 221.082,167.633 221.350 M224.229 222.229 C 224.081 222.815,224.038 223.372,224.132 223.466 C 224.227 223.560,224.424 223.158,224.571 222.571 C 224.719 221.985,224.762 221.428,224.668 221.334 C 224.573 221.240,224.376 221.642,224.229 222.229 M257.675 223.019 C 256.470 225.500,256.605 225.847,257.846 223.461 C 258.401 222.394,258.787 221.453,258.703 221.370 C 258.619 221.286,258.157 222.028,257.675 223.019 M64.137 223.826 C 63.576 225.050,63.188 226.121,63.273 226.206 C 63.358 226.292,63.902 225.290,64.480 223.981 C 65.059 222.671,65.448 221.600,65.344 221.600 C 65.241 221.600,64.697 222.602,64.137 223.826 M361.806 222.400 C 362.520 225.258,363.200 227.058,362.979 225.505 C 362.861 224.683,362.494 223.423,362.161 222.705 C 361.736 221.789,361.631 221.698,361.806 222.400 M155.000 222.400 C 154.496 222.617,154.422 222.744,154.800 222.744 C 155.130 222.744,155.760 222.589,156.200 222.400 C 156.704 222.183,156.778 222.056,156.400 222.056 C 156.070 222.056,155.440 222.211,155.000 222.400 M174.200 222.400 C 174.640 222.589,175.270 222.744,175.600 222.744 C 175.978 222.744,175.904 222.617,175.400 222.400 C 174.960 222.211,174.330 222.056,174.000 222.056 C 173.622 222.056,173.696 222.183,174.200 222.400 M239.000 225.200 C 238.848 225.891,238.807 226.541,238.909 226.642 C 239.011 226.744,239.209 226.253,239.350 225.550 C 239.491 224.847,239.531 224.198,239.441 224.108 C 239.350 224.017,239.152 224.509,239.000 225.200 M45.849 225.015 C 45.712 225.373,45.615 225.966,45.634 226.333 C 45.653 226.700,45.827 226.469,46.021 225.820 C 46.398 224.558,46.265 223.933,45.849 225.015 M191.700 226.676 C 192.085 226.776,192.715 226.776,193.100 226.676 C 193.485 226.575,193.170 226.493,192.400 226.493 C 191.630 226.493,191.315 226.575,191.700 226.676 M212.305 227.083 C 212.802 227.179,213.522 227.175,213.905 227.075 C 214.287 226.975,213.880 226.896,213.000 226.901 C 212.120 226.905,211.807 226.987,212.305 227.083 M255.636 228.436 C 255.366 229.339,255.218 230.152,255.308 230.242 C 255.398 230.332,255.693 229.666,255.964 228.764 C 256.234 227.861,256.382 227.048,256.292 226.958 C 256.202 226.868,255.907 227.534,255.636 228.436 M141.538 228.586 C 140.515 229.337,139.556 230.147,139.409 230.386 C 139.261 230.625,140.144 230.069,141.370 229.152 C 143.307 227.704,143.891 227.171,143.500 227.210 C 143.445 227.215,142.562 227.835,141.538 228.586 M201.100 227.497 C 202.695 227.573,205.305 227.573,206.900 227.497 C 208.495 227.421,207.190 227.359,204.000 227.359 C 200.810 227.359,199.505 227.421,201.100 227.497 M363.268 227.600 C 363.288 228.639,363.918 230.346,363.932 229.400 C 363.938 228.960,363.789 228.240,363.600 227.800 C 363.389 227.310,363.261 227.232,363.268 227.600 M238.249 228.215 C 238.112 228.573,238.015 229.166,238.034 229.533 C 238.053 229.900,238.227 229.669,238.421 229.020 C 238.798 227.758,238.665 227.133,238.249 228.215 M137.206 232.194 C 136.463 232.961,135.932 233.650,136.027 233.725 C 136.122 233.800,136.806 233.173,137.546 232.331 C 139.229 230.418,139.012 230.331,137.206 232.194 M346.868 231.800 C 346.862 232.240,347.011 232.960,347.200 233.400 C 347.638 234.419,347.638 233.368,347.200 232.000 C 346.943 231.196,346.877 231.157,346.868 231.800 M311.999 232.100 C 312.000 232.265,316.275 232.363,321.500 232.319 C 331.060 232.237,329.958 232.094,318.299 231.903 C 314.834 231.846,311.999 231.935,311.999 232.100 M61.731 234.600 C 61.733 236.140,61.805 236.721,61.892 235.891 C 61.979 235.061,61.977 233.801,61.889 233.091 C 61.800 232.381,61.729 233.060,61.731 234.600 M275.278 232.298 C 277.631 232.369,281.591 232.369,284.078 232.299 C 286.565 232.229,284.640 232.171,279.800 232.170 C 274.960 232.170,272.925 232.228,275.278 232.298 M254.269 233.556 C 254.121 234.295,254.020 235.282,254.044 235.750 C 254.068 236.218,254.247 235.790,254.442 234.800 C 254.637 233.810,254.738 232.823,254.667 232.606 C 254.596 232.390,254.417 232.817,254.269 233.556 M364.493 234.000 C 364.493 234.770,364.575 235.085,364.676 234.700 C 364.776 234.315,364.776 233.685,364.676 233.300 C 364.575 232.915,364.493 233.230,364.493 234.000 M332.672 233.800 C 332.853 234.240,333.000 238.858,333.000 244.062 C 333.000 249.267,333.132 253.317,333.294 253.062 C 333.916 252.083,333.617 235.074,332.958 234.000 C 332.621 233.450,332.492 233.360,332.672 233.800 M134.744 235.100 C 133.593 236.489,133.106 237.200,133.304 237.200 C 133.414 237.200,133.986 236.570,134.573 235.800 C 135.663 234.371,135.795 233.832,134.744 235.100 M268.573 243.800 C 268.573 249.080,268.630 251.185,268.699 248.477 C 268.768 245.769,268.768 241.449,268.699 238.877 C 268.629 236.305,268.572 238.520,268.573 243.800 M347.701 235.800 C 347.705 236.680,347.787 236.993,347.883 236.495 C 347.979 235.998,347.975 235.278,347.875 234.895 C 347.775 234.513,347.696 234.920,347.701 235.800 M236.914 237.000 C 236.917 238.100,236.995 238.503,237.087 237.895 C 237.179 237.286,237.177 236.386,237.082 235.895 C 236.987 235.403,236.911 235.900,236.914 237.000 M365.008 237.000 C 365.109 237.880,365.193 239.286,365.196 240.124 C 365.198 241.037,365.360 241.548,365.600 241.400 C 366.104 241.089,366.131 236.800,365.629 236.800 C 365.425 236.800,365.161 236.485,365.042 236.100 C 364.923 235.715,364.907 236.120,365.008 237.000 M113.665 237.417 C 112.995 238.888,113.123 239.202,113.847 237.865 C 114.186 237.240,114.388 236.654,114.296 236.563 C 114.205 236.471,113.921 236.856,113.665 237.417 M253.720 238.800 C 253.720 240.010,253.795 240.505,253.887 239.900 C 253.978 239.295,253.978 238.305,253.887 237.700 C 253.795 237.095,253.720 237.590,253.720 238.800 M348.114 239.400 C 348.117 240.500,348.195 240.903,348.287 240.295 C 348.379 239.686,348.377 238.786,348.282 238.295 C 348.187 237.803,348.111 238.300,348.114 239.400 M45.964 239.933 C 46.180 240.336,46.671 240.921,47.055 241.233 C 47.487 241.584,47.390 241.304,46.801 240.500 C 45.751 239.065,45.357 238.798,45.964 239.933 M59.226 241.307 C 58.087 242.711,58.042 242.829,58.963 242.000 C 59.920 241.138,61.056 239.586,60.714 239.607 C 60.651 239.611,59.982 240.376,59.226 241.307 M236.544 244.000 C 236.544 246.090,236.612 246.945,236.694 245.900 C 236.776 244.855,236.776 243.145,236.694 242.100 C 236.612 241.055,236.544 241.910,236.544 244.000 M130.036 242.333 C 129.399 243.523,127.578 248.511,127.726 248.659 C 127.801 248.734,128.497 247.176,129.272 245.198 C 130.615 241.772,130.893 240.732,130.036 242.333 M348.501 243.800 C 348.505 244.680,348.587 244.993,348.683 244.495 C 348.779 243.998,348.775 243.278,348.675 242.895 C 348.575 242.513,348.496 242.920,348.501 243.800 M52.500 244.276 C 52.885 244.376,53.515 244.376,53.900 244.276 C 54.285 244.175,53.970 244.093,53.200 244.093 C 52.430 244.093,52.115 244.175,52.500 244.276 M365.196 247.476 C 365.193 248.314,365.109 249.720,365.008 250.600 C 364.907 251.480,364.923 251.883,365.043 251.495 C 365.163 251.107,365.427 250.893,365.630 251.019 C 365.841 251.149,366.000 250.214,366.000 248.847 C 366.000 247.527,365.820 246.336,365.600 246.200 C 365.360 246.052,365.198 246.563,365.196 247.476 M348.114 248.200 C 348.117 249.300,348.195 249.703,348.287 249.095 C 348.379 248.486,348.377 247.586,348.282 247.095 C 348.187 246.603,348.111 247.100,348.114 248.200 M253.720 248.800 C 253.720 250.010,253.795 250.505,253.887 249.900 C 253.978 249.295,253.978 248.305,253.887 247.700 C 253.795 247.095,253.720 247.590,253.720 248.800 M236.920 250.800 C 236.920 252.010,236.995 252.505,237.087 251.900 C 237.178 251.295,237.178 250.305,237.087 249.700 C 236.995 249.095,236.920 249.590,236.920 250.800 M109.453 251.236 C 109.314 251.931,109.221 252.972,109.247 253.550 C 109.272 254.128,109.455 253.627,109.652 252.439 C 110.037 250.121,109.873 249.134,109.453 251.236 M347.701 251.800 C 347.705 252.680,347.787 252.993,347.883 252.495 C 347.979 251.998,347.975 251.278,347.875 250.895 C 347.775 250.513,347.696 250.920,347.701 251.800 M126.600 252.000 C 126.448 252.691,126.407 253.341,126.509 253.442 C 126.611 253.544,126.809 253.053,126.950 252.350 C 127.283 250.683,126.960 250.360,126.600 252.000 M254.095 252.400 C 254.095 252.950,254.232 253.940,254.400 254.600 C 254.672 255.670,254.705 255.692,254.705 254.800 C 254.705 254.250,254.568 253.260,254.400 252.600 C 254.128 251.530,254.095 251.508,254.095 252.400 M364.493 253.600 C 364.493 254.370,364.575 254.685,364.676 254.300 C 364.776 253.915,364.776 253.285,364.676 252.900 C 364.575 252.515,364.493 252.830,364.493 253.600 M237.287 254.000 C 237.283 254.550,237.424 255.450,237.600 256.000 C 238.031 257.344,238.031 255.892,237.600 254.200 C 237.326 253.122,237.294 253.102,237.287 254.000 M108.924 257.000 C 108.926 258.320,109.001 258.812,109.090 258.093 C 109.179 257.374,109.177 256.294,109.086 255.693 C 108.995 255.092,108.922 255.680,108.924 257.000 M275.700 255.498 C 278.065 255.569,281.935 255.569,284.300 255.498 C 286.665 255.428,284.730 255.370,280.000 255.370 C 275.270 255.370,273.335 255.428,275.700 255.498 M289.600 265.368 C 289.814 276.272,290.130 277.665,292.370 277.575 C 292.791 277.558,292.715 277.434,292.143 277.203 C 290.111 276.384,290.000 275.755,290.000 265.111 C 290.000 259.660,289.865 255.200,289.700 255.200 C 289.535 255.199,289.490 259.775,289.600 265.368 M311.999 255.500 C 311.999 255.665,314.744 255.754,318.099 255.697 C 329.532 255.503,330.613 255.363,321.300 255.281 C 316.185 255.237,312.000 255.335,311.999 255.500 M312.092 265.267 C 312.041 270.254,311.896 274.664,311.770 275.067 C 311.561 275.733,311.580 275.738,311.977 275.122 C 312.271 274.667,312.377 271.437,312.300 265.322 L 312.184 256.200 312.092 265.267 M255.256 257.600 C 255.256 257.930,255.411 258.560,255.600 259.000 C 255.817 259.504,255.944 259.578,255.944 259.200 C 255.944 258.870,255.789 258.240,255.600 257.800 C 255.383 257.296,255.256 257.222,255.256 257.600 M125.781 272.600 C 125.781 280.960,125.834 284.437,125.899 280.326 C 125.964 276.216,125.964 269.376,125.900 265.126 C 125.835 260.877,125.782 264.240,125.781 272.600 M238.006 258.233 C 238.009 258.655,238.195 259.270,238.418 259.600 C 238.715 260.038,238.752 259.876,238.556 259.000 C 238.227 257.529,237.998 257.210,238.006 258.233 M363.450 258.850 C 363.309 259.553,363.269 260.202,363.359 260.292 C 363.450 260.383,363.648 259.891,363.800 259.200 C 363.952 258.509,363.993 257.859,363.891 257.758 C 363.789 257.656,363.591 258.147,363.450 258.850 M238.868 261.400 C 238.862 261.840,239.011 262.560,239.200 263.000 C 239.638 264.019,239.638 262.968,239.200 261.600 C 238.943 260.796,238.877 260.757,238.868 261.400 M362.832 261.286 C 362.814 261.663,362.517 262.805,362.171 263.824 C 361.825 264.842,361.620 265.753,361.714 265.847 C 362.002 266.136,363.284 261.646,363.067 261.106 C 362.940 260.791,362.851 260.859,362.832 261.286 M256.828 262.600 C 256.828 262.820,257.086 263.450,257.400 264.000 C 257.714 264.550,257.972 264.820,257.972 264.600 C 257.972 264.380,257.714 263.750,257.400 263.200 C 257.086 262.650,256.828 262.380,256.828 262.600 M239.616 264.254 C 239.607 264.504,239.863 265.314,240.184 266.054 C 240.506 266.794,240.776 267.196,240.784 266.946 C 240.793 266.696,240.537 265.886,240.216 265.146 C 239.894 264.406,239.624 264.004,239.616 264.254 M343.265 265.817 C 342.595 267.288,342.723 267.602,343.447 266.265 C 343.786 265.640,343.988 265.054,343.896 264.963 C 343.805 264.871,343.521 265.256,343.265 265.817 M360.475 268.675 C 360.011 269.934,359.697 271.030,359.777 271.110 C 359.857 271.190,360.306 270.229,360.775 268.975 C 361.244 267.721,361.558 266.625,361.473 266.540 C 361.388 266.455,360.939 267.416,360.475 268.675 M341.800 268.800 C 341.459 269.460,341.269 270.000,341.379 270.000 C 341.489 270.000,341.859 269.460,342.200 268.800 C 342.541 268.140,342.731 267.600,342.621 267.600 C 342.511 267.600,342.141 268.140,341.800 268.800 M260.600 270.400 C 260.941 271.060,261.311 271.600,261.421 271.600 C 261.531 271.600,261.341 271.060,261.000 270.400 C 260.659 269.740,260.289 269.200,260.179 269.200 C 260.069 269.200,260.259 269.740,260.600 270.400 M241.600 269.684 C 241.600 270.116,242.815 272.800,243.011 272.800 C 243.121 272.800,242.933 272.134,242.593 271.321 C 241.993 269.886,241.600 269.238,241.600 269.684 M339.785 272.100 C 339.168 273.035,338.920 273.589,339.232 273.331 C 339.833 272.834,341.364 270.400,341.076 270.400 C 340.983 270.400,340.402 271.165,339.785 272.100 M243.388 273.800 C 243.812 275.103,247.188 281.145,247.654 281.433 C 247.890 281.579,247.806 281.271,247.468 280.749 C 247.129 280.227,246.014 278.270,244.990 276.400 C 243.966 274.530,243.246 273.360,243.388 273.800 M336.575 276.500 L 335.400 277.800 336.700 276.625 C 337.415 275.979,338.000 275.394,338.000 275.325 C 338.000 275.016,337.670 275.288,336.575 276.500 M356.046 278.004 C 355.552 278.882,355.233 279.600,355.335 279.600 C 355.606 279.600,357.259 276.726,357.087 276.554 C 357.008 276.474,356.539 277.127,356.046 278.004 M267.800 279.600 C 268.883 280.700,269.860 281.600,269.970 281.600 C 270.080 281.600,269.283 280.700,268.200 279.600 C 267.117 278.500,266.140 277.600,266.030 277.600 C 265.920 277.600,266.717 278.500,267.800 279.600 M331.381 281.700 L 329.800 283.400 331.500 281.819 C 333.081 280.348,333.384 280.000,333.081 280.000 C 333.016 280.000,332.251 280.765,331.381 281.700 M270.400 281.725 C 270.400 281.794,270.985 282.379,271.700 283.025 L 273.000 284.200 271.825 282.900 C 270.730 281.688,270.400 281.416,270.400 281.725 M248.800 283.200 C 249.270 283.860,249.744 284.400,249.854 284.400 C 249.964 284.400,249.670 283.860,249.200 283.200 C 248.730 282.540,248.256 282.000,248.146 282.000 C 248.036 282.000,248.330 282.540,248.800 283.200 M352.023 284.300 C 351.291 285.345,351.031 285.897,351.446 285.527 C 352.171 284.880,353.799 282.400,353.500 282.400 C 353.420 282.400,352.755 283.255,352.023 284.300 M250.800 286.125 C 250.800 286.194,251.385 286.779,252.100 287.425 L 253.400 288.600 252.225 287.300 C 251.130 286.088,250.800 285.816,250.800 286.125 M108.909 288.400 C 108.909 289.390,108.987 289.795,109.082 289.300 C 109.178 288.805,109.178 287.995,109.082 287.500 C 108.987 287.005,108.909 287.410,108.909 288.400 M256.600 292.400 C 258.571 294.380,260.273 296.000,260.383 296.000 C 260.493 296.000,258.971 294.380,257.000 292.400 C 255.029 290.420,253.327 288.800,253.217 288.800 C 253.107 288.800,254.629 290.420,256.600 292.400 M345.191 292.300 L 341.800 295.800 345.300 292.409 C 348.551 289.259,348.982 288.800,348.691 288.800 C 348.631 288.800,347.056 290.375,345.191 292.300 M126.714 289.800 C 126.941 290.240,127.638 291.049,128.263 291.599 L 129.400 292.597 128.203 291.199 C 126.307 288.982,126.280 288.958,126.714 289.800 M109.268 291.000 C 109.262 291.440,109.411 292.160,109.600 292.600 C 110.038 293.619,110.038 292.568,109.600 291.200 C 109.343 290.396,109.277 290.357,109.268 291.000 M294.305 293.083 C 294.802 293.179,295.522 293.175,295.905 293.075 C 296.287 292.975,295.880 292.896,295.000 292.901 C 294.120 292.905,293.807 292.987,294.305 293.083 M306.500 293.076 C 306.885 293.176,307.515 293.176,307.900 293.076 C 308.285 292.975,307.970 292.893,307.200 292.893 C 306.430 292.893,306.115 292.975,306.500 293.076 M158.100 293.500 C 172.565 293.558,196.235 293.558,210.700 293.500 C 225.165 293.442,213.330 293.394,184.400 293.394 C 155.470 293.394,143.635 293.442,158.100 293.500 M299.511 293.493 C 300.451 293.578,301.891 293.577,302.711 293.491 C 303.530 293.405,302.760 293.336,301.000 293.337 C 299.240 293.339,298.570 293.409,299.511 293.493 M110.202 294.400 C 110.566 295.611,111.950 298.400,112.186 298.400 C 112.364 298.400,110.420 293.946,110.091 293.600 C 109.986 293.490,110.036 293.850,110.202 294.400 M239.922 296.700 C 240.577 297.525,241.528 298.560,242.036 299.000 C 242.544 299.440,242.079 298.765,241.003 297.500 C 238.813 294.924,238.090 294.389,239.922 296.700 M246.600 304.000 C 248.792 306.200,250.675 308.000,250.785 308.000 C 250.895 308.000,249.192 306.200,247.000 304.000 C 244.808 301.800,242.925 300.000,242.815 300.000 C 242.705 300.000,244.408 301.800,246.600 304.000 M329.800 303.427 C 326.201 305.404,326.001 305.823,329.511 304.032 C 331.564 302.985,333.720 301.591,333.200 301.647 C 333.090 301.659,331.560 302.460,329.800 303.427 M252.434 309.447 C 252.965 310.133,253.480 310.623,253.579 310.535 C 253.677 310.447,253.243 309.886,252.613 309.288 L 251.469 308.200 252.434 309.447 M312.400 309.600 C 311.596 309.857,311.557 309.923,312.200 309.932 C 312.640 309.938,313.360 309.789,313.800 309.600 C 314.819 309.162,313.768 309.162,312.400 309.600 M126.800 310.400 C 126.800 310.620,127.070 310.800,127.400 310.800 C 127.730 310.800,128.000 310.620,128.000 310.400 C 128.000 310.180,127.730 310.000,127.400 310.000 C 127.070 310.000,126.800 310.180,126.800 310.400 M291.400 310.400 C 291.536 310.620,292.087 310.800,292.624 310.800 C 293.161 310.800,293.600 310.620,293.600 310.400 C 293.600 310.180,293.049 310.000,292.376 310.000 C 291.663 310.000,291.256 310.167,291.400 310.400 M308.400 310.400 C 308.400 310.620,308.839 310.800,309.376 310.800 C 309.913 310.800,310.464 310.620,310.600 310.400 C 310.744 310.167,310.337 310.000,309.624 310.000 C 308.951 310.000,308.400 310.180,308.400 310.400 " stroke="none" fill="#64bcd4" fill-rule="evenodd"></path></g></svg>