<svg id="svg" xmlns="http://www.w3.org/2000/svg" xmlns:xlink="http://www.w3.org/1999/xlink" width="400" height="400" viewBox="0, 0, 400,400"><g id="svgg"><path id="path0" d="M195.200 54.800 C 194.870 55.013,193.846 55.191,192.924 55.194 C 192.002 55.197,191.151 55.356,191.032 55.547 C 190.914 55.739,190.084 56.012,189.187 56.156 C 188.290 56.299,186.711 56.793,185.678 57.254 C 184.645 57.715,182.876 58.509,181.747 59.019 C 179.978 59.817,176.965 61.670,173.200 64.275 C 169.262 67.000,163.583 74.192,160.783 80.000 C 158.626 84.476,157.600 87.373,157.600 88.990 C 157.600 89.520,157.442 90.051,157.249 90.170 C 156.124 90.865,156.078 106.261,157.188 110.200 C 158.026 113.173,158.987 116.251,159.248 116.800 C 159.404 117.130,159.794 118.030,160.113 118.800 C 161.533 122.226,161.811 122.800,162.051 122.800 C 162.192 122.800,162.416 123.115,162.549 123.500 C 162.682 123.885,163.108 124.666,163.495 125.236 C 163.883 125.806,164.675 126.976,165.255 127.836 C 166.212 129.255,172.595 135.645,174.672 137.263 C 177.036 139.105,180.573 141.085,183.800 142.374 C 185.529 143.064,187.032 143.709,187.695 144.047 C 188.077 144.241,188.730 144.400,189.146 144.400 C 190.196 144.400,191.066 145.494,190.481 146.079 C 190.237 146.323,188.093 146.665,185.718 146.839 C 181.880 147.119,179.852 147.375,174.800 148.218 C 174.030 148.347,172.590 148.541,171.600 148.649 C 170.610 148.758,169.530 148.959,169.200 149.097 C 168.870 149.234,167.160 149.570,165.400 149.845 C 163.640 150.119,161.300 150.544,160.200 150.790 C 159.100 151.035,157.660 151.340,157.000 151.468 C 156.340 151.596,155.620 151.838,155.400 152.005 C 155.180 152.173,154.055 152.437,152.900 152.593 C 151.746 152.748,150.700 153.038,150.577 153.237 C 150.454 153.437,149.834 153.600,149.200 153.600 C 148.566 153.600,147.936 153.780,147.800 154.000 C 147.664 154.220,147.021 154.400,146.371 154.400 C 145.721 154.400,144.877 154.569,144.495 154.777 C 144.113 154.984,142.720 155.452,141.400 155.817 C 139.148 156.439,138.568 156.638,136.300 157.569 C 135.805 157.773,134.320 158.252,133.000 158.635 C 131.680 159.018,130.420 159.449,130.200 159.594 C 129.980 159.738,128.990 160.099,128.000 160.396 C 122.481 162.050,121.887 162.723,123.314 165.705 C 123.865 166.857,124.537 168.520,124.807 169.400 C 125.077 170.280,125.456 171.313,125.649 171.695 C 125.842 172.077,126.000 172.994,126.000 173.733 C 126.000 175.344,127.329 176.831,128.089 176.071 C 128.348 175.812,128.963 175.600,129.456 175.600 C 129.949 175.600,130.464 175.420,130.600 175.200 C 130.736 174.980,131.152 174.799,131.524 174.798 C 131.896 174.796,132.716 174.526,133.346 174.198 C 133.976 173.869,134.743 173.600,135.051 173.600 C 135.359 173.600,135.923 173.438,136.305 173.240 C 136.687 173.042,138.080 172.555,139.400 172.158 C 140.720 171.761,141.971 171.293,142.180 171.118 C 142.389 170.943,142.886 170.800,143.285 170.800 C 143.684 170.800,144.323 170.642,144.705 170.449 C 145.710 169.942,147.956 169.291,149.800 168.972 C 150.680 168.820,151.580 168.562,151.800 168.398 C 152.020 168.234,152.740 168.007,153.400 167.894 C 154.811 167.650,160.861 166.136,162.628 165.584 C 163.304 165.373,164.303 165.200,164.848 165.200 C 165.394 165.200,166.011 165.037,166.220 164.839 C 166.429 164.640,167.410 164.385,168.400 164.272 C 169.390 164.159,172.000 163.768,174.200 163.404 C 191.860 160.477,215.854 160.714,231.200 163.968 C 232.190 164.178,233.540 164.460,234.200 164.596 C 236.368 165.042,242.541 166.432,245.600 167.163 C 246.370 167.347,247.810 167.774,248.800 168.112 C 249.790 168.450,251.230 168.848,252.000 168.996 C 253.783 169.339,256.001 169.998,256.895 170.449 C 257.277 170.642,257.941 170.800,258.371 170.800 C 258.801 170.800,259.264 170.980,259.400 171.200 C 260.226 172.536,260.750 171.457,260.907 168.100 C 261.091 164.166,261.977 160.330,262.951 159.254 C 264.163 157.915,263.628 156.738,261.600 156.283 C 259.465 155.804,256.964 155.117,256.200 154.799 C 255.760 154.616,254.950 154.350,254.400 154.206 C 253.850 154.063,252.770 153.767,252.000 153.547 C 251.230 153.328,249.520 152.880,248.200 152.553 C 246.880 152.225,245.125 151.786,244.300 151.578 C 239.829 150.451,238.811 150.245,230.400 148.761 C 226.414 148.058,223.862 147.711,218.800 147.183 C 210.647 146.332,210.541 145.461,218.200 142.222 C 219.080 141.850,220.250 141.335,220.800 141.078 C 221.730 140.642,225.700 138.127,228.000 136.516 C 229.536 135.440,234.531 130.392,235.833 128.600 C 236.472 127.720,237.091 126.910,237.207 126.800 C 238.206 125.856,242.800 116.930,242.800 115.934 C 242.800 115.556,242.980 115.136,243.200 115.000 C 243.420 114.864,243.600 114.349,243.600 113.856 C 243.600 113.363,243.758 112.789,243.951 112.580 C 245.905 110.467,245.902 89.957,243.947 87.820 C 243.756 87.611,243.600 87.037,243.600 86.544 C 243.600 86.051,243.443 85.550,243.252 85.432 C 243.060 85.314,242.800 84.700,242.674 84.068 C 242.216 81.781,239.558 76.725,236.729 72.760 C 233.538 68.288,223.968 60.000,221.996 60.000 C 221.778 60.000,221.600 59.820,221.600 59.600 C 221.600 59.380,221.375 59.199,221.100 59.198 C 220.825 59.197,219.790 58.786,218.800 58.284 C 216.044 56.887,211.298 55.557,206.493 54.836 C 202.904 54.298,196.011 54.276,195.200 54.800 M208.800 70.500 C 212.095 71.534,216.397 73.572,216.399 74.100 C 216.400 74.265,216.588 74.400,216.817 74.400 C 218.307 74.400,223.262 79.136,225.856 83.038 C 227.672 85.770,228.314 87.078,230.060 91.600 C 230.984 93.996,230.791 107.410,229.806 109.200 C 229.382 109.970,229.074 110.740,229.122 110.912 C 229.216 111.252,226.207 117.150,225.069 118.857 C 224.164 120.215,217.985 125.600,216.070 126.700 C 213.491 128.182,212.084 128.762,208.200 129.945 C 204.944 130.937,201.117 131.241,198.000 130.755 C 196.790 130.567,195.080 130.308,194.200 130.180 C 193.320 130.052,192.429 129.779,192.220 129.574 C 192.011 129.368,191.533 129.200,191.157 129.200 C 190.396 129.200,186.276 127.179,186.067 126.704 C 185.993 126.537,185.626 126.400,185.250 126.400 C 184.874 126.400,183.899 125.770,183.082 125.000 C 182.266 124.230,181.429 123.600,181.222 123.600 C 181.016 123.600,180.016 122.520,179.000 121.200 C 177.984 119.880,177.012 118.800,176.840 118.800 C 176.668 118.800,176.018 117.855,175.395 116.700 C 174.772 115.545,174.159 114.510,174.031 114.400 C 173.488 113.931,172.800 112.347,172.800 111.566 C 172.800 111.101,172.548 110.154,172.240 109.460 C 170.881 106.403,170.096 94.882,171.200 94.200 C 171.420 94.064,171.600 93.434,171.600 92.800 C 171.600 92.166,171.780 91.536,172.000 91.400 C 172.220 91.264,172.401 90.848,172.402 90.476 C 172.404 90.104,172.674 89.284,173.002 88.654 C 173.331 88.024,173.600 87.259,173.600 86.954 C 173.600 86.649,173.780 86.400,174.000 86.400 C 174.220 86.400,174.400 86.040,174.400 85.600 C 174.400 85.160,174.580 84.800,174.800 84.800 C 175.020 84.800,175.204 84.575,175.210 84.300 C 175.227 83.407,182.509 75.200,183.284 75.200 C 183.476 75.200,183.991 74.867,184.428 74.460 C 185.425 73.531,189.205 71.600,190.026 71.600 C 190.364 71.600,190.811 71.451,191.020 71.270 C 191.384 70.953,193.720 70.200,195.400 69.857 C 197.204 69.489,207.092 69.963,208.800 70.500 M281.600 161.837 C 273.857 164.694,275.178 176.400,283.243 176.400 C 284.399 176.400,284.661 176.309,287.000 175.101 C 294.007 171.482,288.973 159.117,281.600 161.837 M100.907 169.481 C 98.654 169.917,96.395 173.568,96.413 176.746 C 96.469 186.167,109.909 186.282,110.336 176.865 C 110.590 171.290,106.822 168.339,100.907 169.481 M305.185 175.849 C 304.096 178.741,302.484 181.515,300.719 183.531 C 297.949 186.697,297.862 186.516,303.600 189.514 C 310.233 192.980,310.996 193.395,311.200 193.646 C 311.310 193.781,311.850 194.032,312.400 194.204 C 312.950 194.375,314.298 195.120,315.395 195.858 C 316.492 196.596,317.520 197.200,317.681 197.200 C 318.595 197.200,324.670 201.626,325.147 202.638 C 325.447 203.277,325.852 204.113,326.047 204.495 C 326.528 205.441,326.494 208.694,326.000 209.000 C 325.780 209.136,325.600 209.515,325.600 209.843 C 325.600 210.375,323.382 214.145,322.369 215.337 C 322.152 215.592,320.554 217.960,318.818 220.600 C 313.241 229.081,311.161 229.406,301.194 223.353 C 296.612 220.570,279.669 212.069,274.600 210.009 C 274.160 209.830,272.792 209.215,271.560 208.642 C 270.328 208.069,269.156 207.600,268.954 207.600 C 268.753 207.600,267.476 207.058,266.118 206.395 C 264.759 205.732,263.093 205.079,262.415 204.943 C 261.738 204.808,261.086 204.540,260.968 204.348 C 260.850 204.157,260.328 204.000,259.810 204.000 C 259.291 204.000,258.807 203.857,258.733 203.683 C 258.660 203.509,256.980 202.857,255.000 202.234 C 253.020 201.611,251.040 200.954,250.600 200.774 C 248.931 200.091,247.164 199.932,246.584 200.414 C 245.750 201.105,245.724 266.203,246.557 267.300 C 247.407 268.419,259.783 268.353,260.386 267.226 C 260.658 266.719,260.800 258.586,260.800 243.595 L 260.800 220.736 262.098 221.022 C 262.813 221.178,264.028 221.578,264.798 221.910 C 268.267 223.401,269.591 223.992,272.400 225.302 C 276.937 227.418,288.388 233.110,290.200 234.150 C 293.289 235.924,295.818 237.329,297.700 238.316 C 298.745 238.865,299.600 239.439,299.600 239.592 C 299.600 239.745,300.635 240.206,301.900 240.617 C 303.165 241.028,304.371 241.507,304.580 241.682 C 304.789 241.857,305.813 242.000,306.856 242.000 C 307.899 242.000,308.864 242.180,309.000 242.400 C 309.136 242.620,310.036 242.800,311.000 242.800 C 311.964 242.800,312.864 242.620,313.000 242.400 C 313.136 242.180,313.856 242.000,314.600 242.000 C 315.344 242.000,316.050 241.843,316.168 241.652 C 316.286 241.460,316.971 241.186,317.689 241.042 C 319.342 240.712,321.200 239.897,321.200 239.502 C 321.200 239.336,321.427 239.200,321.704 239.200 C 321.981 239.200,322.693 238.750,323.287 238.200 C 323.880 237.650,324.476 237.200,324.611 237.200 C 325.170 237.200,330.800 229.992,330.800 229.276 C 330.800 229.051,330.941 228.807,331.114 228.733 C 331.527 228.558,338.085 218.144,338.755 216.600 C 340.518 212.536,341.510 207.012,340.864 204.855 C 340.609 204.004,340.400 202.664,340.400 201.877 C 340.400 201.091,340.220 200.336,340.000 200.200 C 339.780 200.064,339.600 199.643,339.600 199.265 C 339.600 195.107,332.032 187.934,322.200 182.774 C 321.100 182.197,319.120 181.111,317.800 180.361 C 316.480 179.611,313.960 178.284,312.200 177.411 C 310.440 176.538,308.895 175.677,308.768 175.498 C 308.033 174.467,305.617 174.704,305.185 175.849 M77.828 183.800 C 76.549 184.570,75.380 185.200,75.229 185.200 C 75.079 185.200,74.397 185.605,73.715 186.100 C 73.033 186.595,72.058 187.270,71.550 187.600 C 62.441 193.507,58.446 205.655,62.472 215.200 C 63.299 217.162,64.807 220.020,65.215 220.400 C 65.333 220.510,66.859 222.850,68.606 225.600 C 70.352 228.350,71.920 230.660,72.091 230.733 C 72.261 230.807,72.400 231.047,72.400 231.267 C 72.400 232.868,78.587 238.694,82.000 240.309 C 87.371 242.849,96.594 242.693,101.400 239.979 C 102.060 239.607,103.230 238.964,104.000 238.551 C 104.770 238.138,105.490 237.686,105.600 237.546 C 106.202 236.784,119.243 229.993,127.400 226.194 C 129.600 225.169,132.290 223.896,133.379 223.365 C 134.467 222.834,135.571 222.400,135.833 222.400 C 136.094 222.400,136.824 222.131,137.454 221.802 C 138.084 221.474,138.900 221.204,139.267 221.202 C 139.633 221.201,140.004 220.988,140.090 220.729 C 141.005 217.984,141.200 222.056,141.200 243.944 C 141.200 261.374,141.318 267.158,141.680 267.520 C 142.484 268.324,155.044 268.184,155.357 267.367 C 155.880 266.004,155.628 199.504,155.100 199.697 C 154.825 199.798,153.520 200.195,152.200 200.580 C 150.880 200.965,149.440 201.423,149.000 201.598 C 148.560 201.772,147.300 202.228,146.200 202.610 C 145.100 202.992,144.029 203.462,143.820 203.653 C 143.611 203.844,143.037 204.000,142.544 204.000 C 142.051 204.000,141.545 204.166,141.419 204.369 C 141.294 204.572,140.614 204.865,139.909 205.020 C 139.203 205.175,138.350 205.438,138.013 205.604 C 137.676 205.771,136.950 206.089,136.400 206.313 C 135.850 206.536,134.743 207.007,133.940 207.359 C 133.136 207.712,132.369 208.000,132.235 208.000 C 132.101 208.000,131.138 208.378,130.096 208.840 C 129.053 209.302,127.840 209.829,127.400 210.012 C 123.672 211.560,106.351 219.964,106.000 220.396 C 105.890 220.531,105.080 220.974,104.200 221.380 C 103.320 221.785,101.848 222.631,100.928 223.259 C 100.008 223.886,99.106 224.400,98.923 224.400 C 98.739 224.400,97.660 225.026,96.525 225.790 C 91.189 229.384,87.703 227.950,82.600 220.062 C 82.380 219.722,82.056 219.254,81.879 219.022 C 74.033 208.707,73.729 203.173,80.800 199.356 C 81.570 198.940,82.290 198.510,82.400 198.400 C 82.782 198.018,84.209 197.200,85.700 196.507 C 86.525 196.125,87.200 195.674,87.200 195.506 C 87.200 195.338,87.434 195.200,87.720 195.200 C 89.124 195.200,89.050 194.307,87.510 192.675 C 84.867 189.874,83.756 188.082,81.943 183.700 C 81.263 182.056,80.701 182.070,77.828 183.800 M175.903 192.551 C 174.385 193.224,172.000 195.610,172.000 196.455 C 172.000 196.839,171.820 197.264,171.600 197.400 C 169.966 198.410,172.658 205.600,174.670 205.600 C 174.961 205.600,175.200 205.743,175.200 205.917 C 175.200 207.702,181.018 206.891,183.217 204.800 C 188.929 199.366,182.985 189.412,175.903 192.551 M220.200 238.805 C 212.428 242.712,216.761 254.252,225.281 252.337 C 227.055 251.939,230.000 249.456,230.000 248.359 C 230.000 247.968,230.145 247.557,230.323 247.447 C 231.114 246.959,230.110 241.963,228.928 240.503 C 226.936 238.042,223.174 237.310,220.200 238.805 M53.149 284.241 C 51.482 285.122,51.114 286.602,51.265 291.813 L 51.400 296.489 52.785 297.645 L 54.170 298.800 201.085 298.800 C 298.762 298.800,348.000 298.666,348.000 298.400 C 348.000 298.180,348.273 298.000,348.606 298.000 C 351.703 298.000,351.725 285.788,348.631 284.182 C 346.978 283.325,54.771 283.383,53.149 284.241 " stroke="none" fill="#fbfbfb" fill-rule="evenodd"></path><path id="path1" d="M183.600 2.838 C 70.481 12.607,-11.007 113.035,3.010 225.400 C 14.070 314.052,85.618 385.504,174.400 396.558 C 304.092 412.705,413.110 304.080,396.962 174.800 C 383.954 70.660,288.558 -6.226,183.600 2.838 M208.400 54.586 C 209.830 54.908,211.900 55.368,213.000 55.609 C 215.328 56.119,215.568 56.211,219.800 58.235 C 228.350 62.324,240.400 73.859,240.400 77.954 C 240.400 78.199,240.580 78.400,240.800 78.400 C 241.020 78.400,241.200 78.760,241.200 79.200 C 241.200 79.640,241.336 80.000,241.502 80.000 C 241.897 80.000,242.712 81.858,243.042 83.511 C 243.186 84.229,243.460 84.914,243.652 85.032 C 243.843 85.150,244.000 85.676,244.000 86.200 C 244.000 86.724,244.160 87.252,244.356 87.373 C 244.716 87.595,244.799 87.968,245.618 93.000 C 246.496 98.393,245.610 111.723,244.286 113.047 C 244.129 113.205,244.000 113.743,244.000 114.243 C 244.000 114.743,243.820 115.264,243.600 115.400 C 243.380 115.536,243.200 115.938,243.200 116.294 C 243.200 120.065,231.188 136.261,227.530 137.422 C 227.128 137.550,226.800 137.822,226.800 138.027 C 226.800 138.232,226.620 138.400,226.401 138.400 C 226.181 138.400,225.146 139.000,224.101 139.733 C 222.394 140.930,221.347 141.469,218.000 142.874 C 217.450 143.105,216.687 143.452,216.305 143.647 C 215.923 143.841,215.351 144.000,215.032 144.000 C 214.406 144.000,213.758 145.490,214.194 145.930 C 214.341 146.079,216.562 146.419,219.130 146.687 C 223.896 147.184,227.283 147.656,231.200 148.369 C 232.410 148.589,234.750 148.962,236.400 149.197 C 238.050 149.433,239.713 149.800,240.095 150.013 C 240.477 150.226,241.321 150.400,241.971 150.400 C 242.621 150.400,243.252 150.560,243.373 150.756 C 243.494 150.951,244.179 151.210,244.896 151.331 C 248.570 151.949,251.039 152.526,251.380 152.844 C 251.589 153.040,252.176 153.200,252.685 153.200 C 253.194 153.200,253.923 153.363,254.305 153.563 C 255.328 154.098,259.178 155.200,260.022 155.200 C 260.424 155.200,260.864 155.380,261.000 155.600 C 261.136 155.820,261.642 156.006,262.124 156.013 C 263.540 156.033,264.349 156.888,264.114 158.115 C 264.000 158.712,263.770 159.200,263.602 159.200 C 262.751 159.200,261.561 164.150,261.318 168.700 C 261.104 172.702,261.208 172.656,256.600 170.774 C 255.709 170.410,252.499 169.646,250.496 169.322 C 249.779 169.206,249.094 168.951,248.973 168.756 C 248.852 168.560,248.324 168.400,247.800 168.400 C 247.276 168.400,246.736 168.220,246.600 168.000 C 246.464 167.780,245.984 167.600,245.534 167.600 C 244.411 167.600,239.160 166.411,238.305 165.964 C 237.923 165.764,237.066 165.600,236.400 165.600 C 235.734 165.600,234.877 165.433,234.495 165.230 C 234.113 165.026,232.270 164.645,230.400 164.382 C 228.530 164.120,226.010 163.743,224.800 163.546 C 223.590 163.348,220.980 163.034,219.000 162.848 C 217.020 162.663,215.130 162.409,214.800 162.285 C 211.477 161.035,187.212 161.863,176.800 163.582 C 175.370 163.818,172.580 164.271,170.600 164.589 C 164.937 165.498,164.251 165.632,163.400 166.000 C 162.960 166.190,162.060 166.435,161.400 166.544 C 158.979 166.944,156.182 167.642,155.505 168.016 C 155.123 168.227,154.394 168.400,153.885 168.400 C 153.376 168.400,152.789 168.551,152.580 168.735 C 152.371 168.920,150.670 169.399,148.800 169.800 C 146.930 170.201,145.229 170.680,145.020 170.865 C 144.811 171.049,144.226 171.200,143.720 171.200 C 143.214 171.200,142.800 171.380,142.800 171.600 C 142.800 171.820,142.509 172.000,142.154 172.000 C 141.451 172.000,137.826 173.102,136.705 173.656 C 136.323 173.845,135.759 174.000,135.451 174.000 C 135.143 174.000,134.376 174.269,133.746 174.598 C 133.116 174.926,132.296 175.196,131.924 175.198 C 131.552 175.199,131.136 175.380,131.000 175.600 C 130.864 175.820,130.324 176.000,129.800 176.000 C 129.276 176.000,128.736 176.180,128.600 176.400 C 127.513 178.158,126.037 176.591,125.210 172.800 C 124.594 169.975,123.680 167.433,122.521 165.323 C 121.034 162.616,121.691 161.863,127.000 160.190 C 128.926 159.583,130.313 159.046,131.615 158.403 C 131.954 158.236,132.988 157.971,133.913 157.815 C 134.839 157.658,135.697 157.366,135.822 157.165 C 135.946 156.964,136.487 156.800,137.024 156.800 C 137.561 156.800,138.000 156.620,138.000 156.400 C 138.000 156.180,138.439 156.000,138.976 156.000 C 139.513 156.000,140.049 155.844,140.168 155.653 C 140.286 155.461,141.142 155.184,142.071 155.035 C 143.000 154.886,143.949 154.615,144.180 154.433 C 144.411 154.250,145.140 154.003,145.800 153.883 C 146.460 153.764,147.720 153.461,148.600 153.210 C 149.480 152.960,150.920 152.586,151.800 152.380 C 154.078 151.846,156.468 151.163,157.400 150.779 C 157.840 150.598,158.830 150.353,159.600 150.234 C 162.013 149.862,168.503 148.781,170.800 148.368 C 178.092 147.058,182.845 146.427,185.526 146.413 C 188.032 146.400,189.600 145.928,189.600 145.186 C 189.600 144.974,189.238 144.800,188.795 144.800 C 188.352 144.800,187.677 144.641,187.295 144.447 C 186.913 144.252,186.150 143.911,185.600 143.687 C 184.536 143.256,182.629 142.458,180.500 141.556 C 179.785 141.253,179.200 140.890,179.200 140.749 C 179.200 140.608,178.885 140.379,178.500 140.240 C 175.847 139.281,167.942 132.245,164.974 128.200 C 164.328 127.320,163.575 126.362,163.300 126.071 C 163.025 125.781,162.800 125.301,162.800 125.005 C 162.800 124.709,162.662 124.407,162.494 124.333 C 162.203 124.207,159.485 118.815,158.747 116.900 C 158.556 116.405,158.223 115.595,158.007 115.100 C 156.651 111.994,155.898 106.580,155.906 100.000 C 155.913 93.925,156.230 90.460,156.839 89.820 C 157.037 89.611,157.206 88.981,157.213 88.420 C 157.234 86.753,160.694 77.985,161.640 77.200 C 161.772 77.090,162.313 76.264,162.840 75.365 C 166.809 68.601,173.954 62.160,181.400 58.632 C 186.978 55.990,188.576 55.443,192.494 54.838 C 193.536 54.677,194.511 54.422,194.661 54.272 C 195.186 53.747,205.745 53.988,208.400 54.586 M195.989 70.389 C 195.665 70.566,194.455 70.838,193.300 70.993 C 192.145 71.148,191.200 71.438,191.200 71.638 C 191.200 71.837,190.845 72.000,190.412 72.000 C 188.195 72.000,178.000 79.497,178.000 81.128 C 178.000 81.311,177.592 81.843,177.094 82.311 C 175.866 83.466,172.800 89.623,172.800 90.937 C 172.800 91.276,172.620 91.664,172.400 91.800 C 172.180 91.936,172.000 92.566,172.000 93.200 C 172.000 93.834,171.820 94.464,171.600 94.600 C 171.367 94.744,171.200 97.004,171.200 100.024 C 171.200 103.208,171.354 105.200,171.600 105.200 C 171.820 105.200,172.000 105.809,172.000 106.554 C 172.000 107.299,172.269 108.424,172.598 109.054 C 172.926 109.684,173.209 110.650,173.227 111.200 C 173.244 111.750,173.597 112.740,174.011 113.400 C 174.426 114.060,175.067 115.194,175.438 115.921 C 175.808 116.647,177.166 118.406,178.455 119.829 C 179.745 121.252,180.800 122.592,180.800 122.808 C 180.800 123.024,180.995 123.200,181.233 123.200 C 181.471 123.200,182.434 123.830,183.374 124.600 C 184.314 125.370,185.379 126.000,185.741 126.000 C 186.104 126.000,186.400 126.159,186.400 126.353 C 186.400 126.548,186.715 126.812,187.100 126.942 C 187.485 127.071,188.070 127.334,188.400 127.526 C 190.001 128.459,190.857 128.800,191.595 128.800 C 192.038 128.800,192.400 128.942,192.400 129.117 C 192.400 129.388,198.659 130.422,200.400 130.438 C 202.998 130.462,208.330 129.636,208.622 129.165 C 208.746 128.964,209.256 128.800,209.756 128.800 C 210.256 128.800,211.550 128.351,212.632 127.802 C 213.714 127.253,214.825 126.803,215.100 126.802 C 215.375 126.801,215.600 126.620,215.600 126.400 C 215.600 126.180,215.839 126.000,216.130 126.000 C 216.422 126.000,217.083 125.550,217.600 125.000 C 218.117 124.450,218.703 124.000,218.903 124.000 C 219.103 124.000,219.879 123.370,220.626 122.600 C 221.374 121.830,222.126 121.200,222.298 121.200 C 222.470 121.200,222.968 120.720,223.405 120.134 C 223.842 119.548,224.412 118.854,224.670 118.592 C 224.929 118.331,225.431 117.422,225.786 116.572 C 226.141 115.723,226.568 114.932,226.736 114.814 C 227.259 114.448,228.400 111.722,228.400 110.840 C 228.400 110.378,228.580 110.000,228.800 110.000 C 229.020 110.000,229.200 109.676,229.200 109.280 C 229.200 108.884,229.398 108.362,229.640 108.120 C 231.010 106.750,230.324 91.767,228.802 89.800 C 228.632 89.580,228.367 88.815,228.214 88.100 C 228.062 87.385,227.771 86.800,227.568 86.800 C 227.366 86.800,227.200 86.513,227.200 86.163 C 227.200 85.813,226.795 84.998,226.300 84.352 C 223.250 80.370,221.422 78.311,219.724 76.947 C 218.666 76.096,217.710 75.310,217.600 75.200 C 217.184 74.784,214.957 73.545,213.900 73.142 C 213.295 72.911,212.800 72.559,212.800 72.361 C 212.800 72.162,212.386 72.000,211.880 72.000 C 211.374 72.000,210.789 71.853,210.580 71.673 C 210.230 71.372,207.002 70.543,205.600 70.394 C 203.133 70.133,196.466 70.130,195.989 70.389 M285.572 161.288 C 290.477 162.962,292.600 169.040,289.741 173.229 C 284.772 180.510,274.157 175.567,276.028 166.843 C 276.910 162.732,281.675 159.958,285.572 161.288 M108.596 170.808 C 115.654 177.869,106.189 188.902,98.564 182.501 C 94.992 179.503,95.047 172.189,98.656 170.208 C 99.065 169.984,99.490 169.692,99.600 169.560 C 100.955 167.934,106.492 168.702,108.596 170.808 M309.600 175.526 C 310.810 176.100,311.860 176.712,311.933 176.885 C 312.007 177.058,312.249 177.200,312.473 177.200 C 312.928 177.200,315.690 178.436,316.000 178.779 C 316.110 178.901,317.145 179.495,318.300 180.100 C 319.455 180.705,321.345 181.695,322.500 182.300 C 323.655 182.905,324.690 183.490,324.800 183.600 C 324.910 183.710,325.360 183.993,325.800 184.229 C 328.058 185.441,329.420 186.221,329.600 186.402 C 329.710 186.514,330.520 187.124,331.400 187.759 C 333.474 189.256,338.000 193.963,338.000 194.623 C 338.000 194.904,338.135 195.193,338.300 195.267 C 338.767 195.474,340.000 198.337,340.000 199.214 C 340.000 199.646,340.157 200.000,340.348 200.000 C 341.587 200.000,341.597 213.061,340.358 213.826 C 340.161 213.948,340.000 214.334,340.000 214.684 C 340.000 215.454,338.032 219.589,337.313 220.329 C 337.031 220.619,336.800 220.990,336.800 221.153 C 336.800 221.316,336.485 221.808,336.100 222.246 C 335.218 223.251,334.504 224.356,334.024 225.461 C 333.818 225.935,333.447 226.447,333.200 226.600 C 332.953 226.753,332.582 227.265,332.376 227.739 C 331.933 228.757,331.102 230.118,330.750 230.400 C 330.613 230.510,330.163 231.156,329.750 231.836 C 328.538 233.834,325.437 237.561,324.970 237.581 C 324.733 237.591,324.148 238.016,323.670 238.525 C 323.192 239.034,322.171 239.697,321.401 240.000 C 320.630 240.302,320.000 240.680,320.000 240.839 C 320.000 240.999,319.281 241.251,318.402 241.400 C 317.523 241.548,316.703 241.834,316.578 242.035 C 316.454 242.236,315.859 242.400,315.256 242.400 C 314.653 242.400,313.977 242.583,313.753 242.807 C 312.776 243.784,310.923 243.927,309.206 243.158 C 308.274 242.741,306.823 242.400,305.980 242.400 C 305.137 242.400,304.346 242.236,304.222 242.035 C 304.097 241.834,303.277 241.548,302.398 241.400 C 301.519 241.251,300.800 240.986,300.800 240.811 C 300.800 240.636,300.485 240.392,300.100 240.269 C 299.715 240.145,298.500 239.520,297.400 238.879 C 295.469 237.754,292.254 235.937,290.600 235.036 C 290.160 234.796,289.710 234.509,289.600 234.397 C 289.490 234.286,287.060 233.026,284.200 231.597 C 281.340 230.169,278.940 228.865,278.867 228.700 C 278.793 228.535,278.388 228.400,277.967 228.400 C 277.545 228.400,277.200 228.240,277.200 228.045 C 277.200 227.849,276.570 227.571,275.800 227.426 C 275.030 227.282,274.400 226.992,274.400 226.782 C 274.400 226.572,274.175 226.399,273.900 226.398 C 273.625 226.397,272.514 225.947,271.432 225.398 C 270.350 224.849,269.225 224.400,268.932 224.400 C 268.639 224.400,268.400 224.220,268.400 224.000 C 268.400 223.780,268.128 223.600,267.795 223.600 C 267.462 223.600,266.877 223.442,266.495 223.249 C 260.633 220.285,261.202 218.029,261.187 244.300 C 261.177 262.542,261.070 267.137,260.643 267.700 C 259.866 268.724,247.457 268.757,246.331 267.738 C 245.281 266.788,245.181 200.876,246.229 199.829 C 246.937 199.120,248.227 198.996,248.600 199.600 C 248.736 199.820,249.289 200.000,249.829 200.000 C 250.369 200.000,251.123 200.172,251.505 200.383 C 251.887 200.593,253.640 201.239,255.400 201.819 C 257.160 202.399,258.771 203.037,258.980 203.237 C 259.189 203.436,259.774 203.600,260.280 203.600 C 260.786 203.600,261.200 203.756,261.200 203.948 C 261.200 204.139,261.785 204.390,262.500 204.506 C 263.215 204.622,265.020 205.276,266.510 205.959 C 268.001 206.641,269.333 207.200,269.470 207.200 C 269.608 207.200,270.638 207.629,271.760 208.152 C 272.882 208.676,274.520 209.405,275.400 209.772 C 276.280 210.139,277.313 210.610,277.695 210.819 C 278.077 211.029,278.662 211.200,278.995 211.200 C 279.328 211.200,279.600 211.380,279.600 211.600 C 279.600 211.820,279.825 211.996,280.100 211.991 C 280.598 211.983,294.420 218.791,294.800 219.232 C 294.910 219.360,295.585 219.719,296.300 220.030 C 297.015 220.341,297.600 220.717,297.600 220.866 C 297.600 221.015,298.140 221.255,298.800 221.400 C 299.460 221.545,300.000 221.829,300.000 222.032 C 300.000 222.234,300.255 222.400,300.567 222.400 C 300.878 222.400,301.193 222.535,301.267 222.700 C 301.340 222.865,302.120 223.358,303.000 223.796 C 303.880 224.234,304.690 224.684,304.800 224.796 C 308.263 228.326,315.944 226.589,317.418 221.943 C 317.548 221.534,317.822 221.200,318.027 221.200 C 318.232 221.200,318.400 221.016,318.400 220.791 C 318.400 220.306,320.469 217.058,320.900 216.867 C 321.065 216.793,321.200 216.569,321.200 216.368 C 321.200 216.166,321.811 215.146,322.557 214.101 C 325.334 210.213,326.824 205.756,325.600 205.000 C 325.380 204.864,325.200 204.403,325.200 203.976 C 325.200 203.200,322.242 200.000,321.524 200.000 C 321.315 200.000,320.392 199.490,319.472 198.866 C 318.552 198.242,317.260 197.458,316.600 197.124 C 315.940 196.790,314.258 195.860,312.862 195.058 C 311.465 194.256,310.175 193.600,309.995 193.600 C 309.814 193.600,309.607 193.465,309.533 193.300 C 309.460 193.135,307.150 191.864,304.400 190.477 C 296.942 186.712,296.963 186.747,300.147 183.518 C 301.603 182.041,304.800 176.402,304.800 175.311 C 304.800 173.813,306.118 173.872,309.600 175.526 M82.000 182.376 C 82.000 182.803,82.180 183.264,82.400 183.400 C 82.620 183.536,82.800 184.087,82.800 184.624 C 82.800 185.161,82.980 185.600,83.200 185.600 C 83.420 185.600,83.600 185.809,83.600 186.065 C 83.600 186.876,86.068 190.530,87.933 192.480 C 89.944 194.583,89.879 195.027,87.419 195.992 C 86.639 196.299,86.000 196.676,86.000 196.831 C 86.000 196.986,85.550 197.226,85.000 197.364 C 84.450 197.502,84.000 197.792,84.000 198.008 C 84.000 198.223,83.823 198.400,83.608 198.400 C 79.805 198.400,73.699 207.730,76.407 209.404 C 76.630 209.542,76.722 209.802,76.611 209.982 C 76.500 210.162,76.696 210.547,77.046 210.838 C 77.397 211.129,77.844 211.735,78.041 212.184 C 78.450 213.120,79.292 214.506,79.629 214.800 C 80.020 215.141,84.800 222.526,84.800 222.789 C 84.800 225.280,91.503 227.769,94.294 226.315 C 99.348 223.681,100.637 222.965,101.086 222.542 C 101.354 222.291,102.434 221.673,103.486 221.170 C 104.539 220.667,105.490 220.151,105.600 220.024 C 105.710 219.896,106.880 219.259,108.200 218.609 C 109.520 217.958,110.660 217.285,110.733 217.113 C 110.807 216.941,111.112 216.800,111.412 216.800 C 111.712 216.800,112.804 216.350,113.838 215.800 C 114.873 215.250,115.962 214.800,116.260 214.800 C 116.557 214.800,116.800 214.664,116.800 214.498 C 116.800 214.331,117.385 213.949,118.100 213.647 C 118.815 213.346,120.930 212.388,122.800 211.518 C 124.670 210.649,126.560 209.794,127.000 209.619 C 127.440 209.444,128.610 208.940,129.600 208.499 C 130.590 208.058,132.210 207.384,133.200 207.001 C 136.025 205.908,136.954 205.530,137.613 205.204 C 137.950 205.038,138.844 204.766,139.600 204.600 C 140.356 204.434,141.250 204.156,141.587 203.982 C 142.981 203.262,145.938 202.078,148.000 201.413 C 149.210 201.023,150.513 200.545,150.895 200.352 C 151.277 200.158,151.941 200.000,152.371 200.000 C 152.801 200.000,153.264 199.820,153.400 199.600 C 153.799 198.954,155.888 199.130,156.157 199.833 C 156.780 201.456,156.414 266.601,155.777 267.511 C 155.043 268.560,142.280 268.920,141.280 267.920 C 140.918 267.558,140.800 261.763,140.800 244.293 L 140.800 221.146 139.900 221.414 C 139.405 221.561,138.477 221.933,137.839 222.241 C 137.200 222.548,136.530 222.800,136.350 222.800 C 135.531 222.800,114.212 232.939,113.600 233.619 C 113.490 233.742,112.770 234.150,112.000 234.526 C 110.440 235.289,108.531 236.362,105.080 238.418 C 101.427 240.595,99.451 241.591,98.780 241.596 C 98.439 241.598,97.989 241.771,97.780 241.980 C 97.295 242.465,88.245 243.159,88.067 242.725 C 87.993 242.546,87.543 242.397,87.067 242.394 C 85.572 242.384,80.400 240.451,80.400 239.902 C 80.400 239.736,80.208 239.600,79.973 239.600 C 78.270 239.600,72.850 233.849,70.941 230.018 C 70.782 229.697,70.419 229.157,70.136 228.818 C 69.080 227.554,64.372 220.147,63.704 218.700 C 63.323 217.875,62.874 217.200,62.706 217.200 C 62.538 217.200,62.400 216.876,62.400 216.480 C 62.400 216.084,62.234 215.589,62.031 215.380 C 60.079 213.371,60.140 201.914,62.125 197.600 C 63.848 193.855,71.221 186.000,73.012 186.000 C 73.124 186.000,73.967 185.526,74.884 184.947 C 80.134 181.633,82.000 180.959,82.000 182.376 M181.888 192.443 C 186.983 195.282,187.771 200.513,183.751 204.811 C 182.728 205.905,181.566 206.800,181.169 206.800 C 180.772 206.800,180.336 206.980,180.200 207.200 C 179.553 208.246,174.185 206.693,172.876 205.081 C 167.316 198.235,174.416 188.279,181.888 192.443 M226.800 238.129 C 230.606 239.922,232.292 245.071,230.300 248.816 C 227.676 253.749,221.596 254.713,217.931 250.777 C 212.010 244.420,218.999 234.453,226.800 238.129 M349.709 284.429 L 351.200 285.658 351.200 290.970 L 351.200 296.281 349.997 297.541 L 348.793 298.800 200.817 298.800 L 52.841 298.800 51.820 297.462 C 50.849 296.189,50.800 295.876,50.800 291.009 L 50.800 285.894 52.228 284.547 L 53.657 283.200 200.937 283.200 L 348.218 283.200 349.709 284.429 " stroke="none" fill="#34a4c4" fill-rule="evenodd"></path><path id="path2" d="M198.115 54.296 C 199.388 54.376,201.368 54.375,202.515 54.294 C 203.662 54.214,202.620 54.149,200.200 54.150 C 197.780 54.151,196.842 54.216,198.115 54.296 M170.000 66.600 C 169.028 67.590,168.323 68.400,168.433 68.400 C 168.543 68.400,169.428 67.590,170.400 66.600 C 171.372 65.610,172.077 64.800,171.967 64.800 C 171.857 64.800,170.972 65.610,170.000 66.600 M156.501 91.800 C 156.505 92.680,156.587 92.993,156.683 92.495 C 156.779 91.998,156.775 91.278,156.675 90.895 C 156.575 90.513,156.496 90.920,156.501 91.800 M156.501 108.200 C 156.505 109.080,156.587 109.393,156.683 108.895 C 156.779 108.398,156.775 107.678,156.675 107.295 C 156.575 106.913,156.496 107.320,156.501 108.200 M176.400 118.125 C 176.400 118.194,176.985 118.779,177.700 119.425 L 179.000 120.600 177.825 119.300 C 176.730 118.088,176.400 117.816,176.400 118.125 M220.975 122.500 L 219.800 123.800 221.100 122.625 C 221.815 121.979,222.400 121.394,222.400 121.325 C 222.400 121.016,222.070 121.288,220.975 122.500 M230.175 134.900 L 229.000 136.200 230.300 135.025 C 231.015 134.379,231.600 133.794,231.600 133.725 C 231.600 133.416,231.270 133.688,230.175 134.900 M175.105 147.883 C 175.602 147.979,176.322 147.975,176.705 147.875 C 177.087 147.775,176.680 147.696,175.800 147.701 C 174.920 147.705,174.607 147.787,175.105 147.883 M225.100 147.882 C 225.595 147.978,226.405 147.978,226.900 147.882 C 227.395 147.787,226.990 147.709,226.000 147.709 C 225.010 147.709,224.605 147.787,225.100 147.882 M169.700 148.676 C 170.085 148.776,170.715 148.776,171.100 148.676 C 171.485 148.575,171.170 148.493,170.400 148.493 C 169.630 148.493,169.315 148.575,169.700 148.676 M202.700 161.482 C 203.195 161.578,204.005 161.578,204.500 161.482 C 204.995 161.387,204.590 161.309,203.600 161.309 C 202.610 161.309,202.205 161.387,202.700 161.482 M207.900 161.882 C 208.395 161.978,209.205 161.978,209.700 161.882 C 210.195 161.787,209.790 161.709,208.800 161.709 C 207.810 161.709,207.405 161.787,207.900 161.882 M181.100 162.682 C 181.595 162.778,182.405 162.778,182.900 162.682 C 183.395 162.587,182.990 162.509,182.000 162.509 C 181.010 162.509,180.605 162.587,181.100 162.682 M218.307 162.690 C 219.026 162.779,220.106 162.777,220.707 162.686 C 221.308 162.595,220.720 162.522,219.400 162.524 C 218.080 162.526,217.588 162.601,218.307 162.690 M260.937 168.600 C 260.939 170.360,261.009 171.030,261.093 170.089 C 261.178 169.149,261.177 167.709,261.091 166.889 C 261.005 166.070,260.936 166.840,260.937 168.600 M281.566 176.526 C 281.747 176.707,282.593 176.793,283.447 176.719 L 285.000 176.583 283.119 176.390 C 282.084 176.284,281.385 176.345,281.566 176.526 M177.905 191.883 C 178.402 191.979,179.122 191.975,179.505 191.875 C 179.887 191.775,179.480 191.696,178.600 191.701 C 177.720 191.705,177.407 191.787,177.905 191.883 M82.500 198.446 C 81.137 199.319,80.695 199.906,81.900 199.243 C 82.818 198.739,84.256 197.627,84.000 197.619 C 83.890 197.616,83.215 197.988,82.500 198.446 M170.920 199.600 C 170.920 200.810,170.995 201.305,171.087 200.700 C 171.178 200.095,171.178 199.105,171.087 198.500 C 170.995 197.895,170.920 198.390,170.920 199.600 M340.352 201.287 C 340.537 202.398,340.593 202.455,340.719 201.654 C 340.801 201.133,340.703 200.543,340.501 200.341 C 340.279 200.119,340.221 200.493,340.352 201.287 M245.791 234.000 C 245.791 252.150,245.840 259.575,245.900 250.500 C 245.960 241.425,245.960 226.575,245.900 217.500 C 245.840 208.425,245.791 215.850,245.791 234.000 M60.493 204.800 C 60.493 205.570,60.575 205.885,60.676 205.500 C 60.776 205.115,60.776 204.485,60.676 204.100 C 60.575 203.715,60.493 204.030,60.493 204.800 M260.987 244.200 C 260.987 256.740,261.038 261.812,261.100 255.472 C 261.162 249.131,261.162 238.871,261.100 232.672 C 261.038 226.472,260.987 231.660,260.987 244.200 M325.600 236.474 C 324.610 237.376,324.160 237.924,324.600 237.692 C 325.352 237.294,327.952 234.781,327.575 234.816 C 327.479 234.825,326.590 235.571,325.600 236.474 M89.705 242.687 C 90.314 242.779,91.214 242.777,91.705 242.682 C 92.197 242.587,91.700 242.511,90.600 242.514 C 89.500 242.517,89.097 242.595,89.705 242.687 M145.519 268.298 C 147.344 268.372,150.224 268.372,151.919 268.297 C 153.614 268.222,152.120 268.161,148.600 268.162 C 145.080 268.162,143.694 268.224,145.519 268.298 M250.500 268.297 C 252.205 268.372,254.995 268.372,256.700 268.297 C 258.405 268.222,257.010 268.161,253.600 268.161 C 250.190 268.161,248.795 268.222,250.500 268.297 M127.267 283.500 C 167.675 283.556,233.915 283.556,274.467 283.500 C 315.020 283.444,281.960 283.398,201.000 283.398 C 120.040 283.398,86.860 283.444,127.267 283.500 " stroke="none" fill="#82c6d9" fill-rule="evenodd"></path><path id="path3" d="M193.400 54.800 L 191.800 55.086 193.200 55.137 C 193.970 55.165,194.870 55.013,195.200 54.800 C 195.855 54.377,195.762 54.377,193.400 54.800 M207.500 55.082 C 207.995 55.178,208.805 55.178,209.300 55.082 C 209.795 54.987,209.390 54.909,208.400 54.909 C 207.410 54.909,207.005 54.987,207.500 55.082 M190.000 55.488 C 188.533 55.751,188.162 56.296,189.592 56.086 C 190.262 55.988,190.908 55.749,191.029 55.554 C 191.149 55.359,191.192 55.225,191.124 55.254 C 191.056 55.284,190.550 55.390,190.000 55.488 M217.200 57.358 C 217.200 57.470,217.875 57.871,218.700 58.248 C 219.525 58.626,220.335 59.005,220.500 59.091 C 220.665 59.177,220.800 59.155,220.800 59.042 C 220.800 58.930,220.125 58.529,219.300 58.152 C 218.475 57.774,217.665 57.395,217.500 57.309 C 217.335 57.223,217.200 57.245,217.200 57.358 M173.400 63.850 C 172.681 64.462,172.534 64.705,173.033 64.457 C 173.766 64.093,175.141 62.776,174.749 62.814 C 174.667 62.822,174.060 63.288,173.400 63.850 M229.600 64.910 C 229.600 64.971,230.995 66.366,232.700 68.010 L 235.800 71.000 232.810 67.900 C 230.033 65.021,229.600 64.617,229.600 64.910 M194.800 70.000 L 193.400 70.295 194.676 70.347 C 195.378 70.376,196.064 70.220,196.200 70.000 C 196.336 69.780,196.392 69.624,196.324 69.653 C 196.256 69.682,195.570 69.838,194.800 70.000 M205.400 69.981 C 204.792 70.227,204.959 70.297,206.096 70.273 C 206.986 70.254,207.390 70.114,207.096 69.927 C 206.511 69.556,206.442 69.558,205.400 69.981 M208.616 70.826 C 208.712 70.981,209.323 71.186,209.974 71.282 C 210.625 71.377,211.079 71.329,210.984 71.174 C 210.888 71.019,210.277 70.814,209.626 70.718 C 208.975 70.623,208.521 70.671,208.616 70.826 M185.600 73.636 C 184.936 74.179,184.869 74.315,185.400 74.040 C 186.705 73.366,187.428 72.812,187.000 72.815 C 186.780 72.817,186.150 73.186,185.600 73.636 M219.000 75.865 C 221.213 78.050,224.010 80.372,222.600 78.855 C 221.720 77.908,220.460 76.759,219.800 76.302 C 219.140 75.845,218.780 75.648,219.000 75.865 M242.706 84.218 C 242.810 84.765,243.028 85.294,243.190 85.394 C 243.352 85.494,243.399 85.129,243.294 84.582 C 243.190 84.035,242.972 83.506,242.810 83.406 C 242.648 83.306,242.601 83.671,242.706 84.218 M157.152 89.113 C 157.021 89.907,157.079 90.281,157.301 90.059 C 157.503 89.857,157.601 89.267,157.519 88.746 C 157.393 87.945,157.337 88.002,157.152 89.113 M156.229 94.229 C 156.081 94.815,156.038 95.372,156.132 95.466 C 156.227 95.560,156.424 95.158,156.571 94.571 C 156.719 93.985,156.762 93.428,156.668 93.334 C 156.573 93.240,156.376 93.642,156.229 94.229 M170.975 94.521 C 170.865 94.808,170.826 97.373,170.889 100.221 L 171.004 105.400 171.202 99.699 C 171.397 94.084,171.371 93.489,170.975 94.521 M245.751 100.400 C 245.751 102.930,245.816 103.965,245.896 102.700 C 245.975 101.435,245.975 99.365,245.896 98.100 C 245.816 96.835,245.751 97.870,245.751 100.400 M156.093 99.600 C 156.093 100.370,156.175 100.685,156.276 100.300 C 156.376 99.915,156.376 99.285,156.276 98.900 C 156.175 98.515,156.093 98.830,156.093 99.600 M156.028 103.433 C 156.044 104.515,156.204 105.760,156.385 106.200 C 156.578 106.670,156.626 105.927,156.502 104.400 C 156.248 101.255,155.989 100.729,156.028 103.433 M230.220 105.300 C 229.923 106.264,229.670 109.264,229.906 109.027 C 230.170 108.764,230.741 104.800,230.516 104.800 C 230.438 104.800,230.305 105.025,230.220 105.300 M244.893 108.800 C 244.893 109.570,244.975 109.885,245.076 109.500 C 245.176 109.115,245.176 108.485,245.076 108.100 C 244.975 107.715,244.893 108.030,244.893 108.800 M157.058 110.800 C 157.375 112.525,157.602 112.851,157.594 111.567 C 157.591 111.035,157.411 110.330,157.194 110.000 C 156.918 109.578,156.877 109.815,157.058 110.800 M172.854 111.454 C 172.825 111.924,173.069 112.824,173.398 113.454 C 173.726 114.084,173.996 114.321,173.998 113.980 C 173.999 113.639,173.835 113.189,173.634 112.980 C 173.432 112.771,173.187 112.150,173.088 111.600 C 172.937 110.754,172.901 110.732,172.854 111.454 M159.047 117.079 C 159.437 118.258,160.426 120.400,160.581 120.400 C 160.856 120.400,160.301 118.786,159.952 118.570 C 159.758 118.451,159.600 118.014,159.600 117.600 C 159.600 117.186,159.422 116.737,159.205 116.603 C 158.972 116.459,158.907 116.655,159.047 117.079 M225.123 118.300 C 224.418 119.121,223.890 120.000,224.101 120.000 C 224.183 120.000,224.649 119.460,225.137 118.800 C 226.101 117.496,226.092 117.172,225.123 118.300 M240.629 120.861 C 240.283 121.555,240.000 122.225,240.000 122.350 C 240.000 122.697,241.033 121.094,241.321 120.300 C 241.736 119.155,241.306 119.504,240.629 120.861 M179.600 122.000 C 180.297 122.880,180.957 123.600,181.067 123.600 C 181.177 123.600,180.697 122.880,180.000 122.000 C 179.303 121.120,178.643 120.400,178.533 120.400 C 178.423 120.400,178.903 121.120,179.600 122.000 M183.709 125.600 C 184.269 126.040,184.857 126.400,185.017 126.400 C 185.177 126.400,184.850 126.040,184.291 125.600 C 183.731 125.160,183.143 124.800,182.983 124.800 C 182.823 124.800,183.150 125.160,183.709 125.600 M164.399 127.100 C 164.922 127.815,165.413 128.400,165.489 128.400 C 165.793 128.400,164.801 126.900,164.145 126.367 C 163.713 126.016,163.810 126.296,164.399 127.100 M214.465 127.192 C 212.802 128.120,212.507 128.402,213.460 128.151 C 214.137 127.974,216.462 126.399,216.000 126.432 C 215.890 126.440,215.199 126.781,214.465 127.192 M235.599 128.900 C 235.010 129.704,234.913 129.984,235.345 129.633 C 236.001 129.100,236.993 127.600,236.689 127.600 C 236.613 127.600,236.122 128.185,235.599 128.900 M166.800 130.110 C 166.800 130.171,168.195 131.566,169.900 133.210 L 173.000 136.200 170.010 133.100 C 167.233 130.221,166.800 129.817,166.800 130.110 M196.600 130.603 C 197.514 130.921,199.929 131.009,199.748 130.716 C 199.641 130.542,198.798 130.414,197.876 130.432 C 196.954 130.449,196.380 130.526,196.600 130.603 M203.052 130.716 C 202.944 130.890,203.518 130.967,204.328 130.887 C 206.542 130.669,206.805 130.467,204.924 130.432 C 204.002 130.414,203.159 130.542,203.052 130.716 M227.322 137.029 L 226.200 138.058 227.500 137.154 C 228.215 136.657,228.800 136.193,228.800 136.125 C 228.800 135.809,228.358 136.080,227.322 137.029 M189.992 144.869 C 190.247 145.178,190.229 145.524,189.942 145.870 C 189.638 146.236,189.634 146.400,189.927 146.400 C 190.708 146.400,190.903 145.530,190.249 144.960 C 189.894 144.651,189.778 144.610,189.992 144.869 M212.800 145.151 C 212.800 146.366,213.780 146.859,215.869 146.695 L 217.800 146.544 215.743 146.472 C 213.734 146.402,212.824 145.732,213.422 144.764 C 213.546 144.564,213.457 144.400,213.224 144.400 C 212.991 144.400,212.800 144.738,212.800 145.151 M185.091 146.689 C 185.801 146.777,187.061 146.779,187.891 146.692 C 188.721 146.605,188.140 146.533,186.600 146.531 C 185.060 146.529,184.381 146.600,185.091 146.689 M172.400 148.400 C 171.576 148.664,171.541 148.726,172.200 148.754 C 172.640 148.773,173.270 148.613,173.600 148.400 C 174.301 147.947,173.814 147.947,172.400 148.400 M167.200 149.200 L 165.400 149.480 167.076 149.540 C 167.998 149.573,168.864 149.420,169.000 149.200 C 169.136 148.980,169.192 148.827,169.124 148.860 C 169.056 148.893,168.190 149.046,167.200 149.200 M232.822 149.189 C 233.140 149.358,234.290 149.592,235.378 149.708 C 236.466 149.824,237.096 149.781,236.778 149.611 C 236.460 149.442,235.310 149.208,234.222 149.092 C 233.134 148.976,232.504 149.019,232.822 149.189 M157.200 151.200 C 156.376 151.464,156.341 151.526,157.000 151.554 C 157.440 151.573,158.070 151.413,158.400 151.200 C 159.101 150.747,158.614 150.747,157.200 151.200 M154.200 152.000 L 153.000 152.305 154.076 152.353 C 154.668 152.379,155.264 152.220,155.400 152.000 C 155.536 151.780,155.592 151.621,155.524 151.647 C 155.456 151.673,154.860 151.832,154.200 152.000 M246.433 152.143 C 246.525 152.221,247.230 152.401,248.000 152.542 C 248.985 152.723,249.222 152.682,248.800 152.406 C 248.258 152.050,246.037 151.803,246.433 152.143 M146.600 154.000 L 145.400 154.305 146.476 154.353 C 147.068 154.379,147.664 154.220,147.800 154.000 C 147.936 153.780,147.992 153.621,147.924 153.647 C 147.856 153.673,147.260 153.832,146.600 154.000 M253.600 153.982 C 253.930 154.205,254.545 154.391,254.967 154.394 C 255.990 154.402,255.671 154.173,254.200 153.844 C 253.324 153.648,253.162 153.685,253.600 153.982 M143.800 154.685 C 142.575 154.980,142.198 155.528,143.376 155.303 C 143.946 155.194,144.510 154.946,144.630 154.752 C 144.749 154.559,144.792 154.421,144.724 154.446 C 144.656 154.472,144.240 154.579,143.800 154.685 M256.216 154.826 C 256.312 154.981,256.923 155.186,257.574 155.282 C 258.225 155.377,258.679 155.329,258.584 155.174 C 258.488 155.019,257.877 154.814,257.226 154.718 C 256.575 154.623,256.121 154.671,256.216 154.826 M135.400 157.485 C 134.175 157.780,133.798 158.328,134.976 158.103 C 135.546 157.994,136.110 157.746,136.230 157.552 C 136.349 157.359,136.392 157.221,136.324 157.246 C 136.256 157.272,135.840 157.379,135.400 157.485 M205.900 161.482 C 206.395 161.578,207.205 161.578,207.700 161.482 C 208.195 161.387,207.790 161.309,206.800 161.309 C 205.810 161.309,205.405 161.387,205.900 161.482 M281.621 161.579 C 281.246 161.816,281.670 161.865,282.821 161.718 C 283.799 161.592,284.675 161.425,284.767 161.345 C 285.142 161.019,282.155 161.240,281.621 161.579 M184.202 161.968 C 183.764 162.139,184.934 162.205,186.802 162.115 C 191.439 161.892,192.059 161.697,188.200 161.675 C 186.440 161.664,184.641 161.796,184.202 161.968 M211.700 161.891 C 212.525 161.978,213.875 161.978,214.700 161.891 C 215.525 161.805,214.850 161.734,213.200 161.734 C 211.550 161.734,210.875 161.805,211.700 161.891 M178.000 162.806 C 177.578 163.082,177.815 163.123,178.800 162.942 C 180.525 162.625,180.851 162.398,179.567 162.406 C 179.035 162.409,178.330 162.589,178.000 162.806 M222.400 162.800 C 223.768 163.238,224.819 163.238,223.800 162.800 C 223.360 162.611,222.640 162.462,222.200 162.468 C 221.557 162.477,221.596 162.543,222.400 162.800 M287.200 162.525 C 287.200 162.594,287.785 163.179,288.500 163.825 L 289.800 165.000 288.625 163.700 C 287.530 162.488,287.200 162.216,287.200 162.525 M227.400 163.590 C 228.164 163.928,230.714 164.157,230.367 163.856 C 230.275 163.776,229.390 163.604,228.400 163.473 C 227.198 163.314,226.866 163.353,227.400 163.590 M171.700 163.876 C 172.085 163.976,172.715 163.976,173.100 163.876 C 173.485 163.775,173.170 163.693,172.400 163.693 C 171.630 163.693,171.315 163.775,171.700 163.876 M166.252 164.716 C 166.144 164.890,166.718 164.967,167.528 164.887 C 169.742 164.669,170.005 164.467,168.124 164.432 C 167.202 164.414,166.359 164.542,166.252 164.716 M232.900 164.676 C 233.285 164.776,233.915 164.776,234.300 164.676 C 234.685 164.575,234.370 164.493,233.600 164.493 C 232.830 164.493,232.515 164.575,232.900 164.676 M241.200 166.394 C 241.530 166.611,242.235 166.791,242.767 166.794 C 244.051 166.802,243.725 166.575,242.000 166.258 C 241.015 166.077,240.778 166.118,241.200 166.394 M276.267 166.267 C 275.899 166.634,275.929 171.109,276.300 171.338 C 276.465 171.440,276.600 170.281,276.600 168.762 C 276.600 167.243,276.585 166.000,276.567 166.000 C 276.548 166.000,276.413 166.120,276.267 166.267 M156.200 167.200 L 155.000 167.505 156.076 167.553 C 156.668 167.579,157.264 167.420,157.400 167.200 C 157.536 166.980,157.592 166.821,157.524 166.847 C 157.456 166.873,156.860 167.032,156.200 167.200 M101.246 169.163 C 100.905 169.379,101.442 169.441,102.646 169.324 C 105.355 169.060,105.733 168.868,103.600 168.838 C 102.610 168.824,101.551 168.970,101.246 169.163 M251.941 169.301 C 252.143 169.503,252.733 169.601,253.254 169.519 C 254.055 169.393,253.998 169.337,252.887 169.152 C 252.093 169.021,251.719 169.079,251.941 169.301 M146.000 169.888 C 144.533 170.151,144.162 170.696,145.592 170.486 C 146.262 170.388,146.908 170.149,147.029 169.954 C 147.149 169.759,147.192 169.625,147.124 169.654 C 147.056 169.684,146.550 169.790,146.000 169.888 M254.616 170.026 C 254.712 170.181,255.323 170.386,255.974 170.482 C 256.625 170.577,257.079 170.529,256.984 170.374 C 256.888 170.219,256.277 170.014,255.626 169.918 C 254.975 169.823,254.521 169.871,254.616 170.026 M125.580 173.310 C 125.775 174.958,125.783 174.967,125.919 173.649 C 125.996 172.906,125.906 172.146,125.720 171.960 C 125.533 171.773,125.471 172.381,125.580 173.310 M287.800 174.612 C 287.140 175.153,286.296 175.597,285.924 175.598 C 285.552 175.599,285.152 175.754,285.036 175.942 C 284.561 176.710,286.818 175.841,288.062 174.777 C 289.695 173.380,289.474 173.241,287.800 174.612 M110.395 176.682 C 110.288 178.267,110.344 179.419,110.521 179.241 C 110.697 179.064,110.785 177.767,110.716 176.359 L 110.591 173.800 110.395 176.682 M108.575 181.700 L 107.400 183.000 108.700 181.825 C 109.912 180.730,110.184 180.400,109.875 180.400 C 109.806 180.400,109.221 180.985,108.575 181.700 M79.850 182.319 C 79.726 182.520,80.052 182.603,80.575 182.503 C 81.254 182.373,81.587 182.532,81.740 183.060 C 81.926 183.704,81.944 183.696,81.873 183.000 C 81.788 182.166,80.262 181.652,79.850 182.319 M102.705 184.283 C 103.202 184.379,103.922 184.375,104.305 184.275 C 104.687 184.175,104.280 184.096,103.400 184.101 C 102.520 184.105,102.207 184.187,102.705 184.283 M329.400 187.007 C 329.840 187.366,330.560 187.835,331.000 188.051 L 331.800 188.444 331.000 187.793 C 330.560 187.434,329.840 186.965,329.400 186.749 L 328.600 186.356 329.400 187.007 M67.188 191.100 L 64.600 193.800 67.300 191.212 C 68.785 189.788,70.000 188.573,70.000 188.512 C 70.000 188.217,69.593 188.592,67.188 191.100 M334.000 190.600 C 334.746 191.370,335.447 192.000,335.557 192.000 C 335.667 192.000,335.146 191.370,334.400 190.600 C 333.654 189.830,332.953 189.200,332.843 189.200 C 332.733 189.200,333.254 189.830,334.000 190.600 M173.134 194.300 C 171.849 195.650,170.738 197.933,171.637 197.377 C 171.837 197.254,172.000 196.856,172.000 196.493 C 172.000 196.131,172.667 195.151,173.481 194.317 C 174.296 193.483,174.872 192.800,174.762 192.800 C 174.652 192.800,173.920 193.475,173.134 194.300 M63.814 195.035 C 63.441 195.604,63.205 196.138,63.289 196.222 C 63.373 196.307,63.758 195.841,64.144 195.188 C 65.006 193.728,64.748 193.609,63.814 195.035 M312.000 194.197 C 312.000 194.264,312.765 194.704,313.700 195.175 C 315.267 195.963,315.322 195.968,314.400 195.236 C 313.509 194.529,312.000 193.876,312.000 194.197 M318.000 197.620 C 319.387 198.561,320.178 198.835,319.200 198.036 C 318.650 197.586,318.020 197.217,317.800 197.215 C 317.580 197.213,317.670 197.396,318.000 197.620 M78.922 200.629 L 77.800 201.658 79.100 200.754 C 79.815 200.257,80.400 199.793,80.400 199.725 C 80.400 199.409,79.958 199.680,78.922 200.629 M155.600 233.480 C 155.490 252.224,155.536 267.424,155.702 267.258 C 155.869 267.091,155.959 251.755,155.902 233.178 L 155.800 199.400 155.600 233.480 M246.349 200.300 C 245.852 200.933,245.866 200.948,246.495 200.455 C 246.926 200.118,247.610 200.008,248.295 200.167 C 249.114 200.358,249.245 200.319,248.800 200.018 C 247.900 199.409,246.963 199.517,246.349 200.300 M148.200 201.485 C 146.975 201.780,146.598 202.328,147.776 202.103 C 148.346 201.994,148.910 201.746,149.030 201.552 C 149.149 201.359,149.192 201.221,149.124 201.246 C 149.056 201.272,148.640 201.379,148.200 201.485 M340.468 203.000 C 340.462 203.440,340.611 204.160,340.800 204.600 C 341.238 205.619,341.238 204.568,340.800 203.200 C 340.543 202.396,340.477 202.357,340.468 203.000 M325.800 206.800 C 325.800 208.078,325.935 209.040,326.100 208.938 C 326.265 208.836,326.400 207.874,326.400 206.800 C 326.400 205.726,326.265 204.764,326.100 204.662 C 325.935 204.560,325.800 205.522,325.800 206.800 M266.000 206.219 C 266.000 206.374,268.142 207.363,269.321 207.753 C 269.745 207.893,269.941 207.828,269.797 207.595 C 269.663 207.378,269.214 207.200,268.800 207.200 C 268.386 207.200,267.949 207.042,267.830 206.848 C 267.614 206.499,266.000 205.944,266.000 206.219 M340.650 209.650 C 340.509 210.353,340.469 211.002,340.559 211.092 C 340.650 211.183,340.848 210.691,341.000 210.000 C 341.152 209.309,341.193 208.659,341.091 208.558 C 340.989 208.456,340.791 208.947,340.650 209.650 M61.206 211.433 C 61.209 212.075,61.384 212.870,61.595 213.200 C 61.855 213.609,61.899 213.290,61.732 212.200 C 61.429 210.223,61.198 209.886,61.206 211.433 M324.153 212.100 C 322.776 214.436,322.686 214.635,323.387 213.800 C 324.200 212.832,324.900 211.600,324.638 211.600 C 324.533 211.600,324.315 211.825,324.153 212.100 M295.600 220.197 C 295.600 220.264,296.365 220.704,297.300 221.175 C 298.867 221.963,298.922 221.968,298.000 221.236 C 297.109 220.529,295.600 219.876,295.600 220.197 M104.224 221.013 C 103.225 221.768,103.595 221.763,105.054 221.002 C 105.684 220.674,105.930 220.410,105.600 220.415 C 105.270 220.421,104.651 220.690,104.224 221.013 M140.297 220.691 C 140.680 220.963,140.818 226.277,140.902 244.022 L 141.010 267.000 141.005 243.833 C 141.001 223.583,140.924 220.646,140.400 220.503 C 139.959 220.383,139.932 220.432,140.297 220.691 M99.665 223.592 C 98.002 224.520,97.707 224.802,98.660 224.551 C 99.337 224.374,101.662 222.799,101.200 222.832 C 101.090 222.840,100.399 223.181,99.665 223.592 M94.806 226.423 C 94.040 226.850,93.680 227.196,94.006 227.191 C 94.333 227.186,95.050 226.830,95.600 226.400 C 96.856 225.417,96.596 225.425,94.806 226.423 M88.833 226.944 C 88.925 227.023,89.540 227.208,90.200 227.356 C 91.076 227.552,91.238 227.515,90.800 227.218 C 90.260 226.853,88.432 226.598,88.833 226.944 M308.400 227.200 C 309.768 227.638,310.819 227.638,309.800 227.200 C 309.360 227.011,308.640 226.862,308.200 226.868 C 307.557 226.877,307.596 226.943,308.400 227.200 M311.300 227.076 C 311.685 227.176,312.315 227.176,312.700 227.076 C 313.085 226.975,312.770 226.893,312.000 226.893 C 311.230 226.893,310.915 226.975,311.300 227.076 M286.800 232.583 C 286.800 232.763,289.202 234.000,289.550 234.000 C 289.897 234.000,288.294 232.967,287.500 232.679 C 287.115 232.539,286.800 232.496,286.800 232.583 M327.200 234.400 C 326.503 235.280,326.023 236.000,326.133 236.000 C 326.243 236.000,326.903 235.280,327.600 234.400 C 328.297 233.520,328.777 232.800,328.667 232.800 C 328.557 232.800,327.897 233.520,327.200 234.400 M298.000 238.764 C 298.550 239.214,299.180 239.583,299.400 239.585 C 299.828 239.588,299.105 239.034,297.800 238.360 C 297.269 238.085,297.336 238.221,298.000 238.764 M217.523 240.700 C 216.818 241.521,216.290 242.400,216.501 242.400 C 216.583 242.400,217.049 241.860,217.537 241.200 C 218.501 239.896,218.492 239.572,217.523 240.700 M302.606 241.210 C 302.706 241.372,303.235 241.590,303.782 241.694 C 304.329 241.799,304.694 241.752,304.594 241.590 C 304.494 241.428,303.965 241.210,303.418 241.106 C 302.871 241.001,302.506 241.048,302.606 241.210 M317.400 241.085 C 316.175 241.380,315.798 241.928,316.976 241.703 C 317.546 241.594,318.110 241.346,318.230 241.152 C 318.349 240.959,318.392 240.821,318.324 240.846 C 318.256 240.872,317.840 240.979,317.400 241.085 M86.540 242.273 C 86.800 242.533,96.087 242.446,96.352 242.181 C 96.461 242.073,94.252 242.003,91.443 242.027 C 88.634 242.050,86.428 242.161,86.540 242.273 M305.800 242.203 C 306.714 242.521,309.129 242.609,308.948 242.316 C 308.841 242.142,307.998 242.014,307.076 242.032 C 306.154 242.049,305.580 242.126,305.800 242.203 M313.052 242.316 C 312.944 242.490,313.473 242.561,314.228 242.473 C 314.983 242.385,315.600 242.242,315.600 242.156 C 315.600 241.855,313.245 242.003,313.052 242.316 M310.305 243.083 C 310.802 243.179,311.522 243.175,311.905 243.075 C 312.287 242.975,311.880 242.896,311.000 242.901 C 310.120 242.905,309.807 242.987,310.305 243.083 M230.514 245.000 C 230.517 246.100,230.595 246.503,230.687 245.895 C 230.779 245.286,230.777 244.386,230.682 243.895 C 230.587 243.403,230.511 243.900,230.514 245.000 M217.200 249.725 C 217.200 249.794,217.785 250.379,218.500 251.025 L 219.800 252.200 218.625 250.900 C 217.530 249.688,217.200 249.416,217.200 249.725 M225.000 252.400 L 223.800 252.705 224.876 252.753 C 225.468 252.779,226.064 252.620,226.200 252.400 C 226.336 252.180,226.392 252.021,226.324 252.047 C 226.256 252.073,225.660 252.232,225.000 252.400 M221.300 252.676 C 221.685 252.776,222.315 252.776,222.700 252.676 C 223.085 252.575,222.770 252.493,222.000 252.493 C 221.230 252.493,220.915 252.575,221.300 252.676 M50.950 291.000 C 50.951 293.420,51.016 294.358,51.096 293.085 C 51.176 291.812,51.175 289.832,51.094 288.685 C 51.014 287.538,50.949 288.580,50.950 291.000 " stroke="none" fill="#b0dbe8" fill-rule="evenodd"></path><path id="path4" d="M204.900 54.276 C 205.285 54.376,205.915 54.376,206.300 54.276 C 206.685 54.175,206.370 54.093,205.600 54.093 C 204.830 54.093,204.515 54.175,204.900 54.276 M197.862 69.900 C 197.760 70.065,198.514 70.146,199.538 70.080 C 202.459 69.893,202.814 69.697,200.324 69.646 C 199.072 69.621,197.964 69.735,197.862 69.900 M221.989 79.000 C 223.179 80.320,224.233 81.490,224.331 81.600 C 224.428 81.710,224.318 81.440,224.085 81.000 C 223.852 80.560,222.798 79.390,221.743 78.400 L 219.825 76.600 221.989 79.000 M245.301 92.200 C 245.305 93.080,245.387 93.393,245.483 92.895 C 245.579 92.398,245.575 91.678,245.475 91.295 C 245.375 90.913,245.296 91.320,245.301 92.200 M155.759 100.000 C 155.759 103.190,155.821 104.495,155.897 102.900 C 155.973 101.305,155.973 98.695,155.897 97.100 C 155.821 95.505,155.759 96.810,155.759 100.000 M230.553 99.800 C 230.553 102.440,230.618 103.468,230.697 102.084 C 230.775 100.701,230.774 98.541,230.695 97.284 C 230.616 96.028,230.552 97.160,230.553 99.800 M179.599 121.500 C 180.122 122.215,180.613 122.800,180.689 122.800 C 180.993 122.800,180.001 121.300,179.345 120.767 C 178.913 120.416,179.010 120.696,179.599 121.500 M196.900 130.276 C 197.285 130.376,197.915 130.376,198.300 130.276 C 198.685 130.175,198.370 130.093,197.600 130.093 C 196.830 130.093,196.515 130.175,196.900 130.276 M204.305 130.283 C 204.802 130.379,205.522 130.375,205.905 130.275 C 206.287 130.175,205.880 130.096,205.000 130.101 C 204.120 130.105,203.807 130.187,204.305 130.283 M168.000 131.725 C 168.000 131.794,168.585 132.379,169.300 133.025 L 170.600 134.200 169.425 132.900 C 168.330 131.688,168.000 131.416,168.000 131.725 M179.100 147.082 C 179.595 147.178,180.405 147.178,180.900 147.082 C 181.395 146.987,180.990 146.909,180.000 146.909 C 179.010 146.909,178.605 146.987,179.100 147.082 M221.100 147.082 C 221.595 147.178,222.405 147.178,222.900 147.082 C 223.395 146.987,222.990 146.909,222.000 146.909 C 221.010 146.909,220.605 146.987,221.100 147.082 M237.160 149.720 C 237.346 149.906,238.106 149.996,238.849 149.919 C 240.167 149.783,240.158 149.775,238.510 149.580 C 237.581 149.471,236.973 149.533,237.160 149.720 M162.100 149.876 C 162.485 149.976,163.115 149.976,163.500 149.876 C 163.885 149.775,163.570 149.693,162.800 149.693 C 162.030 149.693,161.715 149.775,162.100 149.876 M282.705 161.083 C 283.202 161.179,283.922 161.175,284.305 161.075 C 284.687 160.975,284.280 160.896,283.400 160.901 C 282.520 160.905,282.207 160.987,282.705 161.083 M197.511 161.493 C 198.451 161.578,199.891 161.577,200.711 161.491 C 201.530 161.405,200.760 161.336,199.000 161.337 C 197.240 161.339,196.570 161.409,197.511 161.493 M205.300 161.876 C 205.685 161.976,206.315 161.976,206.700 161.876 C 207.085 161.775,206.770 161.693,206.000 161.693 C 205.230 161.693,204.915 161.775,205.300 161.876 M215.400 162.400 C 215.840 162.589,216.470 162.744,216.800 162.744 C 217.178 162.744,217.104 162.617,216.600 162.400 C 216.160 162.211,215.530 162.056,215.200 162.056 C 214.822 162.056,214.896 162.183,215.400 162.400 M176.500 163.476 C 176.885 163.576,177.515 163.576,177.900 163.476 C 178.285 163.375,177.970 163.293,177.200 163.293 C 176.430 163.293,176.115 163.375,176.500 163.476 M223.700 163.476 C 224.085 163.576,224.715 163.576,225.100 163.476 C 225.485 163.375,225.170 163.293,224.400 163.293 C 223.630 163.293,223.315 163.375,223.700 163.476 M171.505 164.283 C 172.002 164.379,172.722 164.375,173.105 164.275 C 173.487 164.175,173.080 164.096,172.200 164.101 C 171.320 164.105,171.007 164.187,171.505 164.283 M228.900 164.276 C 229.285 164.376,229.915 164.376,230.300 164.276 C 230.685 164.175,230.370 164.093,229.600 164.093 C 228.830 164.093,228.515 164.175,228.900 164.276 M327.600 185.556 C 328.150 186.011,328.870 186.385,329.200 186.389 C 329.726 186.394,329.406 186.181,327.101 184.990 C 326.826 184.847,327.050 185.102,327.600 185.556 M333.600 189.725 C 333.600 189.794,334.185 190.379,334.900 191.025 L 336.200 192.200 335.025 190.900 C 333.930 189.688,333.600 189.416,333.600 189.725 M153.452 199.516 C 153.344 199.690,153.873 199.761,154.628 199.673 C 155.383 199.585,156.000 199.442,156.000 199.356 C 156.000 199.055,153.645 199.203,153.452 199.516 M156.191 233.400 C 156.191 251.880,156.240 259.382,156.300 250.070 C 156.360 240.759,156.360 225.639,156.300 216.470 C 156.240 207.302,156.191 214.920,156.191 233.400 M341.337 207.000 C 341.339 208.760,341.409 209.430,341.493 208.489 C 341.578 207.549,341.577 206.109,341.491 205.289 C 341.405 204.470,341.336 205.240,341.337 207.000 M176.662 207.300 C 176.764 207.465,177.546 207.600,178.400 207.600 C 179.254 207.600,180.036 207.465,180.138 207.300 C 180.240 207.135,179.458 207.000,178.400 207.000 C 177.342 207.000,176.560 207.135,176.662 207.300 M230.924 245.400 C 230.926 246.720,231.001 247.212,231.090 246.493 C 231.179 245.774,231.177 244.694,231.086 244.093 C 230.995 243.492,230.922 244.080,230.924 245.400 M218.488 251.413 C 219.086 252.043,219.647 252.477,219.735 252.379 C 219.823 252.280,219.333 251.765,218.647 251.234 L 217.400 250.269 218.488 251.413 M350.322 285.268 C 350.708 285.761,350.812 287.345,350.722 291.330 C 350.655 294.298,350.735 296.642,350.900 296.539 C 351.600 296.104,351.236 285.726,350.500 285.149 C 349.873 284.657,349.854 284.670,350.322 285.268 " stroke="none" fill="#64bcd4" fill-rule="evenodd"></path></g></svg>