<svg id="svg" xmlns="http://www.w3.org/2000/svg" xmlns:xlink="http://www.w3.org/1999/xlink" width="400" height="400" viewBox="0, 0, 400,400"><g id="svgg"><path id="path0" d="M198.733 60.802 C 198.659 61.024,196.619 61.938,194.199 62.834 C 191.780 63.729,189.440 64.610,189.000 64.791 C 188.560 64.971,187.570 65.336,186.800 65.600 C 186.030 65.864,185.040 66.225,184.600 66.402 C 182.599 67.205,166.996 72.992,165.000 73.672 C 164.340 73.897,163.440 74.228,163.000 74.409 C 162.089 74.782,154.693 77.569,148.245 79.967 C 141.324 82.542,138.995 84.386,136.530 89.241 L 135.434 91.400 135.139 106.200 C 134.560 135.211,131.464 146.487,114.790 180.322 C 106.610 196.923,106.418 197.715,109.676 201.426 C 112.040 204.118,110.845 204.000,135.680 204.002 L 158.200 204.004 161.000 206.248 C 179.336 220.939,201.947 224.025,223.942 214.839 C 228.613 212.889,236.722 207.822,238.391 205.811 C 239.892 204.003,239.927 204.000,263.400 204.000 C 288.080 204.000,286.689 204.148,289.307 201.250 C 292.410 197.816,292.192 196.865,284.934 182.200 C 267.527 147.026,264.274 135.216,263.671 105.000 L 263.400 91.400 262.314 89.188 C 260.003 84.482,257.470 82.521,250.200 79.808 C 248.000 78.986,244.040 77.510,241.400 76.526 C 238.760 75.542,236.240 74.589,235.800 74.409 C 235.360 74.228,234.370 73.864,233.600 73.600 C 232.830 73.336,231.840 72.968,231.400 72.782 C 230.960 72.597,229.250 71.977,227.600 71.404 C 225.019 70.509,216.644 67.382,214.200 66.402 C 213.760 66.225,212.770 65.864,212.000 65.600 C 211.230 65.336,210.240 64.971,209.800 64.790 C 209.360 64.609,207.200 63.790,205.000 62.970 C 202.800 62.150,200.716 61.237,200.369 60.940 C 199.621 60.301,198.919 60.242,198.733 60.802 M201.800 78.123 C 210.593 81.479,217.600 84.099,223.400 86.200 C 225.600 86.997,229.560 88.463,232.200 89.458 C 234.840 90.452,237.540 91.449,238.200 91.673 C 238.860 91.897,239.760 92.234,240.200 92.421 C 240.640 92.608,242.411 93.249,244.136 93.845 C 248.843 95.472,248.423 93.410,248.304 114.333 L 248.200 132.600 199.400 132.600 L 150.600 132.600 150.489 114.800 C 150.428 105.010,150.468 96.628,150.578 96.173 C 150.776 95.356,150.981 95.263,159.800 92.006 C 160.900 91.600,163.960 90.461,166.600 89.476 C 169.240 88.491,173.200 87.022,175.400 86.210 C 177.600 85.399,180.300 84.401,181.400 83.992 C 188.872 81.215,191.874 80.093,195.400 78.758 C 197.600 77.925,199.580 77.304,199.800 77.378 C 200.020 77.452,200.920 77.787,201.800 78.123 M193.700 89.065 C 193.333 89.213,193.200 90.788,193.200 95.001 C 193.200 102.704,193.863 102.000,186.606 102.000 C 179.037 102.000,179.546 101.495,179.689 108.855 L 179.800 114.600 185.972 114.711 C 193.760 114.851,193.200 114.299,193.200 121.841 L 193.200 127.985 194.161 128.226 C 196.176 128.732,205.207 128.238,205.609 127.600 C 205.817 127.270,205.991 124.348,205.994 121.108 C 206.001 114.138,205.190 114.840,213.400 114.697 L 219.000 114.600 219.111 108.855 C 219.254 101.492,219.770 102.000,212.151 102.000 L 206.000 102.000 206.000 96.029 C 206.000 88.378,206.374 88.790,199.471 88.832 C 196.572 88.849,193.975 88.954,193.700 89.065 M242.358 149.150 C 244.501 153.341,244.802 164.485,242.952 171.200 C 238.854 186.076,226.039 199.473,212.702 202.823 C 206.324 204.425,205.578 204.523,199.600 204.548 C 181.525 204.624,166.521 195.120,158.636 178.600 C 154.387 169.698,153.397 156.657,156.413 149.302 L 156.781 148.404 198.691 148.302 C 243.324 148.193,241.854 148.165,242.358 149.150 M140.153 168.884 C 140.595 173.634,142.710 180.668,145.153 185.507 C 146.053 187.291,146.240 188.000,145.897 188.343 C 145.345 188.895,128.967 188.994,128.629 188.447 C 128.509 188.253,129.378 186.048,130.560 183.547 C 133.333 177.680,134.481 175.138,136.669 170.016 C 137.652 167.715,138.550 165.682,138.664 165.497 C 139.194 164.640,139.910 166.269,140.153 168.884 M262.834 171.400 C 264.154 174.480,266.403 179.418,267.832 182.374 C 271.196 189.337,271.709 188.800,261.693 188.800 C 251.935 188.800,252.007 188.828,253.651 185.703 C 256.014 181.211,258.770 171.897,258.791 168.333 C 258.817 163.931,260.023 164.846,262.834 171.400 M147.800 221.066 C 143.687 221.405,136.112 223.074,131.491 224.660 C 104.934 233.774,86.848 258.766,86.808 286.408 C 86.785 302.190,96.874 313.816,112.441 315.945 C 113.828 316.135,115.032 316.495,115.115 316.745 C 115.308 317.323,282.400 317.407,282.400 316.829 C 282.400 316.625,283.435 316.342,284.700 316.200 C 303.303 314.120,315.917 297.353,312.027 279.877 C 311.821 278.955,311.358 276.605,310.997 274.654 C 306.304 249.299,284.613 227.271,259.600 222.460 C 254.735 221.524,252.488 221.202,250.137 221.103 L 247.674 221.000 237.937 230.574 C 232.582 235.839,221.874 246.414,214.143 254.074 C 206.412 261.733,199.791 268.000,199.430 268.000 C 199.068 268.000,190.634 259.929,180.686 250.065 C 153.553 223.158,151.105 220.815,150.200 220.878 C 149.760 220.909,148.680 220.994,147.800 221.066 M168.439 259.670 L 191.615 282.539 191.507 291.570 L 191.400 300.600 151.800 300.600 L 112.200 300.600 110.000 299.474 C 104.169 296.490,102.188 292.902,102.227 285.400 C 102.299 271.650,109.587 256.884,120.524 248.328 C 128.330 242.222,138.387 237.454,144.732 236.851 C 145.024 236.823,155.692 247.091,168.439 259.670 M255.923 237.244 C 276.731 242.165,292.172 257.909,296.026 278.134 C 298.192 289.503,295.980 296.055,288.803 299.533 L 286.600 300.600 247.000 300.600 L 207.400 300.600 207.293 291.580 L 207.185 282.560 230.364 259.680 C 243.113 247.096,253.656 236.800,253.795 236.800 C 253.933 236.800,254.890 237.000,255.923 237.244 " stroke="none" fill="#fafbfb" fill-rule="evenodd"></path><path id="path1" d="M198.000 60.745 C 198.000 60.935,196.115 61.780,193.812 62.624 C 191.509 63.467,189.697 64.230,189.785 64.318 C 189.873 64.406,190.947 64.101,192.172 63.639 C 193.398 63.178,195.390 62.427,196.600 61.971 C 198.551 61.236,199.509 60.400,198.400 60.400 C 198.180 60.400,198.000 60.555,198.000 60.745 M200.204 60.806 C 200.501 61.286,203.247 62.486,203.491 62.242 C 203.584 62.149,203.016 61.841,202.230 61.556 C 201.443 61.272,200.800 60.895,200.800 60.720 C 200.800 60.544,200.609 60.400,200.376 60.400 C 200.143 60.400,200.066 60.583,200.204 60.806 M206.168 63.417 C 207.470 63.958,208.730 64.392,208.968 64.383 C 209.206 64.374,208.334 63.924,207.032 63.383 C 205.730 62.842,204.470 62.408,204.232 62.417 C 203.994 62.426,204.866 62.876,206.168 63.417 M172.912 70.324 C 169.124 71.772,166.097 73.030,166.186 73.120 C 166.345 73.279,170.810 71.659,177.600 68.980 C 179.470 68.242,180.730 67.650,180.400 67.664 C 180.070 67.679,176.700 68.876,172.912 70.324 M220.200 68.606 C 223.578 70.047,230.441 72.492,230.615 72.318 C 230.767 72.166,219.455 67.882,218.400 67.692 C 218.070 67.632,218.880 68.044,220.200 68.606 M239.633 75.760 C 239.790 75.911,241.143 76.429,250.400 79.883 C 257.455 82.515,260.021 84.519,262.314 89.188 L 263.400 91.400 263.630 105.496 C 263.756 113.249,263.963 119.696,264.089 119.822 C 264.488 120.221,263.977 93.485,263.549 91.600 C 262.249 85.870,258.634 82.571,250.200 79.419 C 248.000 78.597,244.850 77.400,243.200 76.760 C 240.461 75.697,239.200 75.343,239.633 75.760 M154.400 77.213 C 153.410 77.624,150.620 78.694,148.200 79.591 C 142.251 81.794,135.135 87.269,136.477 88.610 C 136.581 88.714,137.258 87.885,137.982 86.768 C 138.706 85.650,140.131 84.125,141.149 83.377 C 142.876 82.109,144.411 81.437,153.800 77.834 C 155.780 77.074,157.130 76.455,156.800 76.459 C 156.470 76.462,155.390 76.801,154.400 77.213 M195.269 78.786 C 192.997 79.635,191.017 80.464,190.869 80.628 C 190.721 80.793,190.960 80.794,191.400 80.630 C 191.840 80.466,193.844 79.741,195.854 79.019 L 199.508 77.705 206.822 80.451 C 210.844 81.962,214.197 83.137,214.272 83.062 C 214.415 82.918,207.749 80.304,200.000 77.464 C 199.670 77.343,197.541 77.938,195.269 78.786 M187.084 81.873 C 185.591 82.439,184.438 82.972,184.523 83.056 C 184.675 83.208,190.044 81.288,190.367 80.966 C 190.734 80.600,189.667 80.895,187.084 81.873 M181.200 84.006 C 180.210 84.414,177.826 85.330,175.902 86.042 C 173.977 86.754,172.472 87.406,172.557 87.490 C 172.642 87.575,174.216 87.080,176.055 86.389 C 182.004 84.157,184.213 83.239,183.600 83.252 C 183.270 83.259,182.190 83.598,181.200 84.006 M215.826 83.765 C 217.844 84.644,219.126 84.859,217.400 84.029 C 216.520 83.606,215.530 83.253,215.200 83.245 C 214.870 83.238,215.152 83.472,215.826 83.765 M220.000 85.233 C 221.574 85.950,230.512 89.255,231.400 89.448 C 232.656 89.722,230.724 88.908,225.400 86.919 C 220.658 85.148,217.971 84.309,220.000 85.233 M167.900 88.911 C 166.194 89.583,164.869 90.203,164.955 90.288 C 165.040 90.374,166.706 89.816,168.655 89.048 C 170.605 88.281,171.930 87.661,171.600 87.671 C 171.270 87.682,169.605 88.240,167.900 88.911 M193.500 88.832 C 192.875 89.196,192.810 89.895,192.888 95.320 L 192.977 101.400 193.100 95.417 C 193.246 88.283,192.741 88.812,199.400 88.812 C 204.985 88.812,205.352 88.902,205.955 90.411 C 206.233 91.109,206.357 91.194,206.375 90.700 C 206.449 88.640,196.346 87.174,193.500 88.832 M135.045 92.863 C 134.926 93.819,134.742 100.450,134.636 107.600 C 134.328 128.212,132.678 137.344,126.225 154.151 C 125.644 155.664,125.244 156.978,125.337 157.070 C 125.430 157.163,126.317 155.025,127.309 152.319 C 133.492 135.459,134.695 128.380,135.147 106.200 C 135.313 98.060,135.406 91.339,135.355 91.263 C 135.303 91.188,135.163 91.908,135.045 92.863 M238.153 92.036 C 239.227 92.472,240.197 92.736,240.310 92.623 C 240.422 92.511,240.174 92.310,239.757 92.177 C 239.341 92.044,238.587 91.770,238.081 91.567 C 237.576 91.365,236.946 91.210,236.681 91.222 C 236.417 91.234,237.079 91.600,238.153 92.036 M154.000 94.083 C 150.070 95.654,150.395 93.766,150.504 114.400 L 150.600 132.600 199.400 132.600 L 248.200 132.600 248.304 114.333 C 248.391 98.987,248.317 95.974,247.840 95.497 C 247.241 94.898,241.234 92.633,240.962 92.904 C 240.875 92.991,242.235 93.561,243.985 94.170 C 248.381 95.701,248.022 93.864,247.904 114.246 L 247.800 132.200 199.400 132.200 L 151.000 132.200 150.896 114.224 C 150.830 102.916,150.937 96.103,151.182 95.858 C 151.397 95.643,153.064 94.879,154.886 94.160 C 156.709 93.441,157.930 92.859,157.600 92.868 C 157.270 92.877,155.650 93.423,154.000 94.083 M179.680 102.480 C 178.970 103.190,179.013 114.147,179.728 114.740 C 180.046 115.004,182.708 115.222,186.428 115.289 L 192.600 115.400 192.800 121.767 C 192.948 126.479,193.133 128.161,193.510 128.237 C 193.791 128.294,193.836 128.249,193.610 128.137 C 193.357 128.011,193.200 125.595,193.200 121.816 C 193.200 114.302,193.758 114.851,185.972 114.711 L 179.800 114.600 179.689 108.855 C 179.613 104.959,179.726 102.931,180.038 102.555 C 180.602 101.874,180.340 101.820,179.680 102.480 M218.762 102.555 C 219.074 102.931,219.187 104.959,219.111 108.855 L 219.000 114.600 212.800 114.816 L 206.600 115.032 212.620 115.116 C 220.092 115.220,219.600 115.669,219.600 108.753 C 219.600 103.196,219.442 102.000,218.708 102.000 C 218.459 102.000,218.480 102.215,218.762 102.555 M264.464 122.035 C 264.403 123.783,265.088 129.008,265.963 133.472 C 267.526 141.449,271.284 152.453,276.524 164.400 C 279.808 171.888,280.420 173.200,280.624 173.200 C 280.727 173.200,280.554 172.615,280.241 171.900 C 279.927 171.185,278.592 168.144,277.274 165.142 C 269.333 147.052,266.231 136.333,264.676 121.600 C 264.549 120.402,264.519 120.465,264.464 122.035 M156.414 149.300 C 154.380 154.259,154.095 163.330,155.757 170.171 C 156.743 174.229,158.696 179.437,159.086 179.047 C 159.180 178.954,158.862 178.106,158.381 177.164 C 154.697 169.942,153.989 150.836,157.327 148.713 C 157.681 148.488,157.672 148.411,157.291 148.406 C 157.012 148.403,156.617 148.805,156.414 149.300 M241.896 149.000 C 244.166 153.608,244.391 164.406,242.371 171.772 C 241.953 173.297,241.687 174.620,241.779 174.713 C 241.872 174.805,242.149 174.098,242.396 173.140 C 242.643 172.183,243.009 170.860,243.209 170.200 C 244.930 164.530,244.139 150.676,241.978 148.647 C 241.613 148.304,241.594 148.386,241.896 149.000 M122.627 162.988 C 121.359 165.952,117.545 173.988,114.152 180.846 C 110.758 187.704,108.044 193.377,108.120 193.453 C 108.196 193.530,111.163 187.699,114.712 180.496 C 120.813 168.115,125.393 158.059,125.075 157.742 C 124.997 157.663,123.895 160.024,122.627 162.988 M138.675 165.478 C 138.555 165.673,137.614 167.805,136.585 170.216 C 135.555 172.627,134.009 176.111,133.148 177.958 C 132.287 179.805,131.648 181.381,131.727 181.461 C 131.904 181.637,134.108 176.949,136.708 170.867 C 138.974 165.568,139.304 165.331,139.680 168.741 C 140.084 172.406,140.413 172.734,140.140 169.200 C 139.927 166.444,139.208 164.616,138.675 165.478 M259.050 166.213 C 258.913 166.572,258.821 167.616,258.847 168.533 L 258.894 170.200 259.219 168.261 C 259.596 166.018,259.881 165.590,260.452 166.412 C 260.809 166.926,260.840 166.924,260.697 166.400 C 260.467 165.557,259.351 165.430,259.050 166.213 M260.800 167.364 C 260.800 167.880,266.017 179.625,268.052 183.693 C 269.123 185.834,270.000 187.769,270.000 187.993 C 270.000 188.256,267.033 188.400,261.600 188.400 C 256.086 188.400,253.200 188.258,253.200 187.987 C 253.200 187.759,253.676 186.634,254.259 185.487 C 255.416 183.207,258.004 175.818,257.994 174.821 C 257.991 174.480,257.288 176.270,256.433 178.800 C 255.578 181.330,254.339 184.418,253.681 185.662 C 252.001 188.833,251.918 188.800,261.693 188.800 C 271.600 188.800,271.169 189.121,268.478 183.744 C 267.392 181.575,265.289 177.010,263.804 173.600 C 261.139 167.483,260.800 166.778,260.800 167.364 M258.254 171.954 C 258.100 172.918,258.058 173.791,258.161 173.894 C 258.430 174.163,258.915 171.345,258.707 170.722 C 258.612 170.436,258.408 170.990,258.254 171.954 M140.468 173.000 C 140.462 173.440,140.611 174.160,140.800 174.600 C 141.238 175.619,141.238 174.568,140.800 173.200 C 140.543 172.396,140.477 172.357,140.468 173.000 M280.825 173.703 C 280.811 173.870,283.074 178.550,285.854 184.103 C 289.289 190.966,291.003 194.841,291.204 196.200 L 291.500 198.200 291.550 196.526 C 291.594 195.054,280.933 172.369,280.825 173.703 M141.219 176.000 C 141.196 176.916,143.364 182.756,144.739 185.480 C 145.412 186.813,145.851 188.015,145.715 188.152 C 145.276 188.590,128.884 188.435,128.663 187.990 C 128.552 187.764,128.506 187.810,128.563 188.090 C 128.702 188.778,145.025 189.043,145.836 188.370 C 146.277 188.004,146.150 187.482,145.131 185.463 C 144.448 184.110,143.292 181.292,142.562 179.201 C 141.832 177.110,141.228 175.670,141.219 176.000 M239.078 180.205 C 238.712 180.972,238.495 181.600,238.596 181.600 C 238.870 181.600,240.084 179.151,239.901 178.968 C 239.814 178.881,239.444 179.438,239.078 180.205 M160.009 181.500 C 160.014 181.665,160.385 182.250,160.833 182.800 L 161.648 183.800 161.014 182.500 C 160.411 181.265,159.989 180.845,160.009 181.500 M237.453 183.300 L 236.733 184.600 237.558 183.600 C 238.289 182.713,238.614 182.000,238.286 182.000 C 238.224 182.000,237.849 182.585,237.453 183.300 M234.881 186.939 C 233.993 188.115,231.857 190.484,230.133 192.202 C 227.397 194.931,227.296 195.078,229.333 193.363 C 230.616 192.284,232.677 190.140,233.914 188.600 C 236.731 185.091,236.944 184.800,236.697 184.800 C 236.587 184.800,235.769 185.762,234.881 186.939 M163.382 186.600 C 166.978 192.284,178.434 200.771,184.400 202.170 L 185.400 202.404 184.400 201.947 C 183.850 201.696,182.054 200.874,180.410 200.122 C 174.464 197.402,167.524 191.759,163.285 186.200 C 162.552 185.238,162.571 185.317,163.382 186.600 M107.386 195.336 C 106.989 197.450,107.866 199.898,109.683 201.745 L 111.311 203.400 109.877 201.723 C 108.244 199.813,107.419 197.292,107.786 195.336 C 107.923 194.601,107.946 194.000,107.836 194.000 C 107.726 194.000,107.523 194.601,107.386 195.336 M225.400 196.235 L 224.200 197.266 225.500 196.406 C 226.215 195.933,226.800 195.468,226.800 195.373 C 226.800 195.073,226.631 195.178,225.400 196.235 M221.978 198.305 C 221.000 198.912,219.256 199.843,218.101 200.373 C 216.947 200.902,216.071 201.405,216.156 201.489 C 216.376 201.709,222.007 198.911,223.200 197.990 C 224.652 196.869,224.033 197.028,221.978 198.305 M289.170 201.453 C 288.636 202.032,287.660 202.862,287.000 203.296 C 286.340 203.730,286.133 203.975,286.540 203.840 C 287.477 203.529,289.362 202.016,289.954 201.100 C 290.604 200.095,290.290 200.237,289.170 201.453 M213.400 202.211 C 212.520 202.501,212.160 202.744,212.600 202.751 C 213.040 202.758,213.940 202.517,214.600 202.214 C 216.112 201.522,215.496 201.521,213.400 202.211 M186.400 202.851 C 187.866 203.437,192.683 204.406,193.926 204.364 C 194.517 204.344,193.560 204.072,191.800 203.759 C 190.040 203.446,188.078 203.012,187.440 202.795 C 185.938 202.283,185.095 202.329,186.400 202.851 M208.600 203.424 C 207.280 203.721,205.660 203.987,205.000 204.014 C 204.340 204.041,204.052 204.163,204.360 204.285 C 205.007 204.541,210.308 203.674,211.200 203.166 C 211.983 202.720,211.507 202.767,208.600 203.424 M119.200 204.287 C 134.846 204.563,158.706 204.571,158.538 204.300 C 158.436 204.135,148.148 204.040,135.676 204.089 C 123.204 204.138,115.790 204.227,119.200 204.287 M239.696 204.900 C 237.727 206.349,233.484 209.570,232.400 210.439 C 231.850 210.880,232.750 210.324,234.400 209.204 C 236.050 208.084,238.092 206.590,238.937 205.884 L 240.474 204.600 263.137 204.393 L 285.800 204.187 263.359 204.093 L 240.918 204.000 239.696 204.900 M197.513 204.695 C 198.676 204.776,200.476 204.776,201.513 204.693 C 202.551 204.611,201.600 204.545,199.400 204.546 C 197.200 204.547,196.351 204.614,197.513 204.695 M160.600 206.219 C 162.395 207.860,166.232 210.667,168.500 211.998 C 170.956 213.440,170.201 212.638,167.579 211.020 C 166.248 210.198,163.773 208.452,162.079 207.141 C 160.386 205.830,159.720 205.415,160.600 206.219 M229.900 211.829 C 228.405 212.640,228.496 212.978,230.000 212.200 C 230.660 211.859,231.200 211.494,231.200 211.390 C 231.200 211.132,231.157 211.147,229.900 211.829 M171.011 213.334 C 171.896 213.932,173.200 214.458,173.200 214.217 C 173.200 214.037,170.798 212.800,170.450 212.800 C 170.324 212.800,170.577 213.040,171.011 213.334 M224.501 214.514 C 222.466 215.405,220.865 216.198,220.942 216.275 C 221.155 216.488,227.970 213.572,228.225 213.159 C 228.347 212.962,228.392 212.821,228.324 212.846 C 228.256 212.872,226.535 213.622,224.501 214.514 M173.600 214.538 C 173.600 214.820,180.050 217.284,180.254 217.079 C 180.345 216.988,179.025 216.393,177.322 215.757 C 175.618 215.121,174.084 214.540,173.912 214.467 C 173.740 214.393,173.600 214.425,173.600 214.538 M217.800 217.069 C 216.920 217.386,214.940 217.984,213.400 218.398 C 211.860 218.813,210.926 219.162,211.325 219.176 C 212.158 219.204,219.101 217.274,220.000 216.764 C 220.977 216.211,219.689 216.389,217.800 217.069 M181.800 217.710 C 183.487 218.490,191.379 220.096,192.483 219.884 C 193.231 219.741,193.179 219.697,192.200 219.644 C 191.196 219.591,185.343 218.356,181.600 217.409 C 180.800 217.207,180.840 217.267,181.800 217.710 M207.000 219.600 L 205.400 219.886 206.800 219.896 C 207.570 219.901,208.740 219.768,209.400 219.600 C 211.028 219.186,209.313 219.186,207.000 219.600 M196.482 220.296 C 197.958 220.373,200.478 220.373,202.082 220.297 C 203.687 220.221,202.480 220.158,199.400 220.158 C 196.320 220.157,195.007 220.219,196.482 220.296 M147.400 220.819 C 145.689 221.065,145.804 221.087,148.200 220.968 L 151.000 220.830 155.600 225.397 C 158.130 227.909,160.380 229.968,160.600 229.971 C 160.820 229.975,158.750 227.830,156.000 225.205 C 152.789 222.140,150.714 220.451,150.200 220.482 C 149.760 220.509,148.500 220.660,147.400 220.819 M248.800 220.803 C 249.789 221.117,253.888 221.334,253.567 221.056 C 253.475 220.977,252.140 220.816,250.600 220.699 C 248.973 220.575,248.219 220.619,248.800 220.803 M226.521 241.500 C 215.075 252.885,211.311 256.706,218.155 249.990 C 240.449 228.118,247.804 220.820,247.566 220.810 C 247.438 220.805,237.967 230.115,226.521 241.500 M141.800 221.600 L 140.600 221.905 141.800 221.913 C 142.460 221.917,143.450 221.776,144.000 221.600 L 145.000 221.280 144.000 221.287 C 143.450 221.291,142.460 221.432,141.800 221.600 M254.800 221.600 C 255.350 221.776,256.340 221.917,257.000 221.913 L 258.200 221.905 257.000 221.600 C 256.340 221.432,255.350 221.291,254.800 221.287 L 253.800 221.280 254.800 221.600 M137.400 222.443 C 135.100 222.964,128.366 225.299,128.571 225.505 C 128.667 225.600,129.792 225.282,131.072 224.797 C 132.353 224.312,135.020 223.499,137.000 222.989 C 140.439 222.105,140.746 221.685,137.400 222.443 M259.400 222.381 C 260.168 222.729,262.310 222.956,261.967 222.653 C 261.875 222.572,261.080 222.396,260.200 222.262 C 259.085 222.093,258.842 222.129,259.400 222.381 M266.146 224.244 C 268.316 225.013,270.162 225.572,270.247 225.486 C 270.430 225.304,263.186 222.777,262.600 222.819 C 262.380 222.835,263.976 223.476,266.146 224.244 M122.984 227.914 C 112.534 233.323,102.681 242.056,97.386 250.600 C 96.219 252.483,96.906 251.685,99.625 248.000 C 105.768 239.673,113.391 233.297,123.400 228.115 C 126.040 226.748,128.020 225.629,127.800 225.629 C 127.580 225.628,125.413 226.657,122.984 227.914 M272.000 226.400 C 272.770 226.822,273.580 227.166,273.800 227.166 C 274.020 227.166,273.570 226.822,272.800 226.400 C 272.030 225.978,271.220 225.634,271.000 225.634 C 270.780 225.634,271.230 225.978,272.000 226.400 M277.000 228.743 C 277.660 229.144,279.629 230.345,281.375 231.411 C 287.433 235.111,295.268 242.389,299.344 248.100 C 301.724 251.436,302.222 251.672,300.012 248.417 C 295.436 241.679,279.335 227.935,276.102 228.007 C 275.936 228.010,276.340 228.342,277.000 228.743 M161.569 231.153 C 162.102 231.626,170.691 240.110,180.655 250.007 C 190.620 259.903,199.073 268.000,199.440 268.000 C 200.078 268.000,205.418 262.884,205.106 262.572 C 205.023 262.490,203.800 263.587,202.389 265.011 C 200.978 266.435,199.610 267.600,199.350 267.600 C 199.090 267.600,190.468 259.275,180.191 249.100 C 169.913 238.925,161.301 230.531,161.052 230.446 C 160.804 230.362,161.036 230.680,161.569 231.153 M143.400 237.227 C 142.791 237.509,142.910 237.543,143.896 237.368 C 145.159 237.144,145.787 237.725,168.196 259.843 L 191.200 282.549 191.200 291.472 L 191.200 300.396 152.600 300.501 L 114.000 300.606 152.700 300.603 L 191.400 300.600 191.507 291.570 L 191.615 282.539 168.439 259.670 C 155.692 247.091,145.024 236.813,144.732 236.828 C 144.439 236.844,143.840 237.023,143.400 237.227 M230.364 259.680 L 207.185 282.560 207.293 291.580 L 207.400 300.600 246.100 300.603 L 284.800 300.606 246.200 300.501 L 207.600 300.396 207.600 291.472 L 207.600 282.548 215.500 274.792 C 219.845 270.526,230.190 260.314,238.489 252.098 L 253.579 237.160 255.089 237.371 C 256.283 237.538,256.390 237.509,255.600 237.231 C 255.050 237.038,254.362 236.862,254.072 236.840 C 253.781 236.818,243.113 247.096,230.364 259.680 M139.800 238.000 C 138.781 238.438,139.832 238.438,141.200 238.000 C 142.004 237.743,142.043 237.677,141.400 237.668 C 140.960 237.662,140.240 237.811,139.800 238.000 M257.600 238.000 C 258.968 238.438,260.019 238.438,259.000 238.000 C 258.560 237.811,257.840 237.662,257.400 237.668 C 256.757 237.677,256.796 237.743,257.600 238.000 M263.400 239.771 C 266.979 241.379,268.400 241.953,268.400 241.790 C 268.400 241.531,263.180 239.197,262.645 239.216 C 262.400 239.224,262.740 239.474,263.400 239.771 M132.042 240.837 C 131.075 241.266,130.368 241.702,130.472 241.806 C 130.576 241.910,131.548 241.555,132.631 241.018 C 134.974 239.857,134.548 239.725,132.042 240.837 M128.700 242.629 C 127.205 243.440,127.296 243.778,128.800 243.000 C 129.460 242.659,130.000 242.294,130.000 242.190 C 130.000 241.932,129.957 241.947,128.700 242.629 M269.411 242.528 C 271.182 243.714,273.200 244.853,273.200 244.667 C 273.200 244.423,269.298 242.000,268.905 242.000 C 268.749 242.000,268.977 242.238,269.411 242.528 M120.732 248.163 C 111.019 255.874,102.224 271.716,102.433 281.125 C 102.452 282.005,102.753 280.986,103.179 278.600 C 105.312 266.653,111.755 255.719,121.000 248.362 C 125.255 244.975,124.992 245.200,124.698 245.200 C 124.569 245.200,122.784 246.533,120.732 248.163 M274.800 245.685 C 274.800 245.786,276.408 247.168,278.372 248.756 C 283.099 252.576,286.886 257.202,290.368 263.405 C 291.478 265.382,292.389 266.849,292.393 266.665 C 292.418 265.509,287.996 258.546,284.646 254.467 C 282.397 251.728,274.800 244.952,274.800 245.685 M95.197 254.100 C 89.208 264.416,86.353 275.054,86.475 286.600 L 86.534 292.200 86.821 285.000 C 87.297 273.033,90.356 262.532,96.047 253.324 C 96.497 252.596,96.764 252.000,96.641 252.000 C 96.517 252.000,95.868 252.945,95.197 254.100 M304.995 257.346 C 307.835 263.048,310.007 269.311,311.004 274.674 C 312.028 280.183,312.396 281.483,312.230 279.000 C 311.811 272.750,306.276 257.047,303.065 253.000 C 302.716 252.560,303.584 254.516,304.995 257.346 M292.550 267.600 C 292.658 267.930,293.286 269.828,293.946 271.818 C 297.889 283.718,297.221 292.230,291.973 296.948 C 290.840 297.967,290.077 298.800,290.277 298.800 C 290.877 298.800,294.363 295.228,295.092 293.866 C 297.632 289.125,297.261 279.611,294.207 271.145 C 293.321 268.688,291.935 265.722,292.550 267.600 M102.140 286.000 C 102.140 287.870,102.209 288.635,102.293 287.700 C 102.377 286.765,102.377 285.235,102.293 284.300 C 102.209 283.365,102.140 284.130,102.140 286.000 M102.431 290.200 C 102.372 292.242,107.097 298.800,108.626 298.800 C 108.769 298.800,107.960 297.967,106.827 296.948 C 104.675 295.013,103.806 293.678,102.960 291.000 C 102.681 290.120,102.443 289.760,102.431 290.200 M311.420 294.200 C 309.682 300.590,305.128 307.236,299.800 311.160 C 298.824 311.879,298.786 311.955,299.600 311.567 C 301.612 310.607,307.363 304.298,308.887 301.380 C 310.679 297.949,312.500 293.009,312.316 292.081 C 312.242 291.706,311.838 292.660,311.420 294.200 M86.828 292.827 C 86.794 293.593,87.998 297.736,88.197 297.536 C 88.276 297.458,88.006 296.225,87.598 294.797 C 87.191 293.369,86.844 292.482,86.828 292.827 M88.591 298.600 C 91.210 306.757,104.157 316.400,112.489 316.400 C 112.886 316.400,113.560 316.618,113.987 316.885 C 114.414 317.152,114.892 317.242,115.048 317.085 C 115.556 316.577,114.849 316.274,112.359 315.934 C 102.441 314.577,94.678 309.206,89.698 300.253 C 88.948 298.904,88.449 298.160,88.591 298.600 M296.600 312.827 C 295.940 313.250,295.580 313.596,295.800 313.595 C 296.020 313.595,296.740 313.237,297.400 312.800 C 298.060 312.363,298.420 312.017,298.200 312.032 C 297.980 312.047,297.260 312.404,296.600 312.827 M288.400 315.597 C 287.630 315.771,285.965 316.036,284.700 316.186 C 283.435 316.335,282.400 316.625,282.400 316.829 C 282.400 317.298,285.478 317.321,285.767 316.854 C 285.884 316.664,287.065 316.295,288.390 316.034 C 289.716 315.773,290.800 315.479,290.800 315.380 C 290.800 315.146,290.125 315.207,288.400 315.597 " stroke="none" fill="#b1dde9" fill-rule="evenodd"></path><path id="path2" d="M183.600 2.838 C 70.481 12.607,-11.007 113.035,3.010 225.400 C 14.070 314.052,85.618 385.504,174.400 396.558 C 304.092 412.705,413.110 304.080,396.962 174.800 C 383.954 70.660,288.558 -6.226,183.600 2.838 M201.820 60.744 C 202.029 60.933,204.990 62.112,208.400 63.364 C 211.810 64.616,214.960 65.794,215.400 65.981 C 216.337 66.380,219.050 67.389,224.600 69.401 C 229.498 71.177,235.918 73.557,237.000 73.997 C 238.044 74.421,241.239 75.603,246.200 77.400 C 253.952 80.207,255.455 80.877,257.670 82.513 C 263.904 87.116,264.469 89.079,264.832 107.400 C 265.335 132.754,268.151 144.669,279.236 168.339 C 280.096 170.176,280.800 171.755,280.800 171.850 C 280.800 171.944,283.320 177.071,286.400 183.242 C 293.227 196.922,293.423 198.141,289.476 202.301 C 286.742 205.181,286.565 205.200,262.152 205.200 L 240.333 205.200 237.467 207.563 C 234.639 209.894,229.530 213.207,226.800 214.479 C 215.254 219.861,205.066 221.761,193.981 220.598 C 191.022 220.288,188.150 219.925,187.600 219.792 C 187.050 219.659,185.790 219.360,184.800 219.126 C 180.792 218.180,172.980 215.212,171.138 213.936 C 170.554 213.531,169.967 213.200,169.834 213.200 C 169.395 213.200,162.238 208.337,160.344 206.753 L 158.489 205.200 136.695 205.200 C 112.810 205.200,113.059 205.222,109.995 202.796 C 105.303 199.080,105.581 197.122,112.893 182.356 C 130.473 146.858,133.980 134.221,134.014 106.257 C 134.038 86.934,136.094 83.270,149.600 78.487 C 151.470 77.825,153.810 76.977,154.800 76.603 C 155.790 76.229,157.590 75.562,158.800 75.122 C 160.010 74.682,161.360 74.176,161.800 73.997 C 162.882 73.557,169.302 71.177,174.200 69.401 C 179.382 67.522,182.403 66.403,183.400 65.993 C 184.233 65.650,193.305 62.255,195.400 61.503 C 196.060 61.266,196.771 60.921,196.980 60.736 C 197.479 60.295,201.331 60.301,201.820 60.744 M197.400 78.954 C 196.740 79.242,195.030 79.877,193.600 80.365 C 192.170 80.853,190.640 81.403,190.200 81.586 C 189.760 81.769,188.770 82.136,188.000 82.400 C 187.230 82.664,186.240 83.030,185.800 83.213 C 183.757 84.060,173.060 88.054,171.334 88.613 C 170.270 88.958,169.040 89.393,168.600 89.580 C 168.160 89.766,167.170 90.136,166.400 90.400 C 165.630 90.664,164.640 91.029,164.200 91.211 C 163.760 91.392,160.880 92.485,157.800 93.640 C 154.720 94.794,152.058 95.859,151.884 96.006 C 151.710 96.153,151.572 104.266,151.579 114.036 L 151.590 131.800 199.408 131.800 L 247.226 131.800 247.226 114.033 C 247.226 104.261,247.085 96.133,246.913 95.972 C 246.741 95.810,244.080 94.751,241.000 93.619 C 237.920 92.487,235.040 91.408,234.600 91.221 C 234.160 91.034,233.170 90.664,232.400 90.400 C 231.630 90.136,230.640 89.776,230.200 89.600 C 229.760 89.424,228.860 89.096,228.200 88.870 C 226.670 88.346,214.063 83.654,213.000 83.213 C 212.560 83.030,211.570 82.664,210.800 82.400 C 210.030 82.136,209.040 81.766,208.600 81.580 C 208.160 81.393,206.990 80.978,206.000 80.656 C 205.010 80.335,203.248 79.696,202.085 79.236 C 199.647 78.272,199.048 78.236,197.400 78.954 M206.000 88.800 C 206.728 89.528,206.800 90.133,206.800 95.500 L 206.800 101.400 212.834 101.400 C 220.665 101.400,220.400 101.149,220.400 108.555 C 220.400 115.952,220.771 115.600,212.977 115.600 L 206.800 115.600 206.800 121.524 C 206.800 129.398,207.177 128.969,200.133 129.114 C 192.217 129.277,192.648 129.675,192.400 121.989 L 192.200 115.800 185.884 115.600 C 178.257 115.358,178.814 115.929,178.806 108.349 C 178.798 100.969,178.334 101.425,185.961 101.317 C 189.173 101.271,191.935 101.226,192.100 101.217 C 192.265 101.208,192.400 98.419,192.400 95.020 C 192.400 87.521,191.886 88.028,199.500 88.012 C 204.676 88.001,205.274 88.074,206.000 88.800 M157.358 149.400 C 151.868 165.046,159.414 186.087,174.093 196.062 C 199.669 213.443,234.182 200.712,242.037 171.000 C 243.523 165.378,243.305 152.860,241.665 149.687 C 241.326 149.032,157.587 148.746,157.358 149.400 M138.614 167.400 C 138.434 167.840,137.701 169.640,136.985 171.400 C 135.221 175.740,133.522 179.452,131.174 184.100 L 129.203 188.000 137.202 188.000 C 141.601 188.000,145.200 187.905,145.200 187.789 C 145.200 187.672,144.661 186.510,144.003 185.206 C 141.950 181.140,139.743 173.671,139.213 169.000 C 139.010 167.203,138.859 166.801,138.614 167.400 M259.842 167.643 C 259.744 167.949,259.548 169.186,259.406 170.391 C 258.895 174.734,257.107 180.537,254.939 184.890 C 254.203 186.370,253.600 187.675,253.600 187.790 C 253.600 187.906,257.215 188.000,261.633 188.000 C 266.052 188.000,269.598 187.865,269.514 187.700 C 267.115 182.998,263.178 174.565,261.934 171.465 C 260.105 166.904,260.087 166.871,259.842 167.643 M175.231 243.600 C 188.255 256.470,199.148 267.000,199.438 267.000 C 199.969 267.000,206.637 260.509,233.013 234.314 C 249.649 217.792,246.840 219.397,256.275 221.017 C 278.521 224.837,296.848 238.525,306.595 258.600 C 311.376 268.448,312.136 271.936,312.295 284.758 L 312.426 295.316 310.471 299.358 C 306.530 307.507,301.195 312.293,292.602 315.391 C 291.063 315.946,289.488 316.400,289.102 316.400 C 288.716 316.400,288.400 316.580,288.400 316.800 C 288.400 317.065,258.467 317.200,199.400 317.200 C 150.450 317.200,110.400 317.059,110.400 316.887 C 110.400 316.715,109.545 316.340,108.500 316.053 C 91.881 311.486,83.430 297.404,86.184 278.865 C 90.805 247.760,112.935 225.835,145.000 220.597 C 151.617 219.515,148.324 217.009,175.231 243.600 M142.400 238.224 C 122.965 243.268,108.783 257.090,104.461 275.200 C 101.306 288.421,103.271 295.599,110.978 299.007 L 113.223 300.000 152.011 300.000 L 190.800 300.000 190.800 291.444 L 190.800 282.888 176.700 268.895 C 156.209 248.560,145.028 237.601,144.800 237.628 C 144.690 237.642,143.610 237.910,142.400 238.224 M230.881 260.322 L 207.962 283.000 207.981 291.500 L 208.000 300.000 246.789 300.000 L 285.577 300.000 287.858 298.991 C 294.685 295.972,297.087 290.437,295.560 281.246 C 291.719 258.120,277.570 243.064,254.800 237.872 C 253.910 237.669,251.284 240.134,230.881 260.322 " stroke="none" fill="#34a4c4" fill-rule="evenodd"></path><path id="path3" d="M192.561 95.600 C 192.561 99.010,192.622 100.405,192.697 98.700 C 192.772 96.995,192.772 94.205,192.697 92.500 C 192.622 90.795,192.561 92.190,192.561 95.600 M206.155 96.200 C 206.156 99.060,206.220 100.178,206.297 98.683 C 206.374 97.189,206.374 94.849,206.296 93.483 C 206.218 92.118,206.155 93.340,206.155 96.200 M134.576 104.200 C 134.576 110.360,134.632 112.824,134.699 109.676 C 134.767 106.527,134.767 101.487,134.699 98.476 C 134.631 95.464,134.576 98.040,134.576 104.200 M264.174 103.400 C 264.175 109.120,264.231 111.404,264.299 108.476 C 264.368 105.548,264.367 100.868,264.299 98.076 C 264.230 95.284,264.174 97.680,264.174 103.400 M247.108 95.651 C 247.505 96.160,247.593 100.226,247.508 114.313 C 247.449 124.219,247.535 132.240,247.700 132.138 C 248.429 131.687,248.040 96.130,247.300 95.549 C 246.677 95.060,246.656 95.072,247.108 95.651 M150.889 114.276 C 150.840 123.998,150.935 132.036,151.100 132.139 C 151.373 132.307,151.367 118.584,151.088 102.800 C 151.028 99.390,150.938 104.554,150.889 114.276 M184.300 101.896 C 185.675 101.974,187.925 101.974,189.300 101.896 C 190.675 101.818,189.550 101.754,186.800 101.754 C 184.050 101.754,182.925 101.818,184.300 101.896 M209.317 101.897 C 210.811 101.974,213.151 101.974,214.517 101.896 C 215.882 101.818,214.660 101.755,211.800 101.755 C 208.940 101.756,207.822 101.820,209.317 101.897 M219.599 108.319 L 219.797 114.200 219.910 108.632 C 219.973 105.569,219.883 102.923,219.712 102.750 C 219.540 102.578,219.489 105.084,219.599 108.319 M178.958 108.600 C 178.958 111.680,179.021 112.887,179.097 111.282 C 179.173 109.678,179.173 107.158,179.096 105.682 C 179.019 104.207,178.957 105.520,178.958 108.600 M186.490 115.493 L 192.379 115.621 192.506 121.611 L 192.632 127.601 192.616 121.500 L 192.600 115.400 186.600 115.383 L 180.600 115.366 186.490 115.493 M209.318 115.498 C 211.033 115.573,213.733 115.572,215.318 115.497 C 216.903 115.421,215.500 115.359,212.200 115.360 C 208.900 115.361,207.603 115.422,209.318 115.498 M206.155 121.000 C 206.156 123.860,206.220 124.978,206.297 123.483 C 206.374 121.989,206.374 119.649,206.296 118.283 C 206.218 116.918,206.155 118.140,206.155 121.000 M264.520 118.400 C 264.520 119.610,264.595 120.105,264.687 119.500 C 264.778 118.895,264.778 117.905,264.687 117.300 C 264.595 116.695,264.520 117.190,264.520 118.400 M134.114 119.800 C 134.117 120.900,134.195 121.303,134.287 120.695 C 134.379 120.086,134.377 119.186,134.282 118.695 C 134.187 118.203,134.111 118.700,134.114 119.800 M196.518 128.698 C 198.233 128.773,200.933 128.772,202.518 128.697 C 204.103 128.621,202.700 128.559,199.400 128.560 C 196.100 128.561,194.803 128.622,196.518 128.698 M172.600 148.695 C 212.586 148.969,241.906 148.972,241.738 148.700 C 241.636 148.535,222.618 148.443,199.476 148.495 C 176.334 148.547,164.240 148.637,172.600 148.695 M243.309 156.000 C 243.309 156.990,243.387 157.395,243.482 156.900 C 243.578 156.405,243.578 155.595,243.482 155.100 C 243.387 154.605,243.309 155.010,243.309 156.000 M155.314 156.600 C 155.317 157.700,155.395 158.103,155.487 157.495 C 155.579 156.886,155.577 155.986,155.482 155.495 C 155.387 155.003,155.311 155.500,155.314 156.600 M243.720 161.200 C 243.720 162.410,243.795 162.905,243.887 162.300 C 243.978 161.695,243.978 160.705,243.887 160.100 C 243.795 159.495,243.720 159.990,243.720 161.200 M154.893 160.800 C 154.893 161.570,154.975 161.885,155.076 161.500 C 155.176 161.115,155.176 160.485,155.076 160.100 C 154.975 159.715,154.893 160.030,154.893 160.800 M155.293 165.600 C 155.293 166.370,155.375 166.685,155.476 166.300 C 155.576 165.915,155.576 165.285,155.476 164.900 C 155.375 164.515,155.293 164.830,155.293 165.600 M132.065 181.017 C 131.395 182.488,131.523 182.802,132.247 181.465 C 132.586 180.840,132.788 180.254,132.696 180.163 C 132.605 180.071,132.321 180.456,132.065 181.017 M267.200 182.549 C 267.200 182.981,268.789 186.000,269.016 186.000 C 269.126 186.000,268.830 185.235,268.359 184.300 C 267.432 182.461,267.200 182.111,267.200 182.549 M129.214 186.774 C 128.683 187.766,128.687 188.400,129.224 188.400 C 129.457 188.400,129.538 188.224,129.405 188.008 C 129.272 187.793,129.358 187.253,129.596 186.808 C 129.833 186.364,129.938 186.000,129.828 186.000 C 129.718 186.000,129.442 186.348,129.214 186.774 M164.400 187.725 C 164.400 187.794,164.985 188.379,165.700 189.025 L 167.000 190.200 165.825 188.900 C 164.730 187.688,164.400 187.416,164.400 187.725 M290.278 192.195 C 290.644 192.962,291.014 193.519,291.101 193.432 C 291.284 193.249,290.070 190.800,289.796 190.800 C 289.695 190.800,289.912 191.428,290.278 192.195 M169.200 192.525 C 169.200 192.594,169.785 193.179,170.500 193.825 L 171.800 195.000 170.625 193.700 C 169.530 192.488,169.200 192.216,169.200 192.525 M227.775 194.100 L 226.600 195.400 227.900 194.225 C 228.615 193.579,229.200 192.994,229.200 192.925 C 229.200 192.616,228.870 192.888,227.775 194.100 M108.400 200.925 C 108.400 200.994,108.985 201.579,109.700 202.225 L 111.000 203.400 109.825 202.100 C 108.730 200.888,108.400 200.616,108.400 200.925 M195.500 204.282 C 195.995 204.378,196.805 204.378,197.300 204.282 C 197.795 204.187,197.390 204.109,196.400 204.109 C 195.410 204.109,195.005 204.187,195.500 204.282 M200.707 204.290 C 201.426 204.379,202.506 204.377,203.107 204.286 C 203.708 204.195,203.120 204.122,201.800 204.124 C 200.480 204.126,199.988 204.201,200.707 204.290 M125.328 204.700 C 131.449 204.762,141.349 204.762,147.328 204.700 C 153.308 204.637,148.300 204.587,136.200 204.587 C 124.100 204.587,119.208 204.638,125.328 204.700 M251.700 204.700 C 257.805 204.762,267.795 204.762,273.900 204.700 C 280.005 204.638,275.010 204.587,262.800 204.587 C 250.590 204.587,245.595 204.638,251.700 204.700 M158.433 204.900 C 158.525 204.955,159.140 205.450,159.800 206.000 L 161.000 207.000 160.030 205.900 C 159.497 205.295,158.882 204.800,158.664 204.800 C 158.445 204.800,158.342 204.845,158.433 204.900 M147.300 220.676 C 147.685 220.776,148.315 220.776,148.700 220.676 C 149.085 220.575,148.770 220.493,148.000 220.493 C 147.230 220.493,146.915 220.575,147.300 220.676 M153.400 222.800 C 154.706 224.120,155.865 225.200,155.975 225.200 C 156.085 225.200,155.106 224.120,153.800 222.800 C 152.494 221.480,151.335 220.400,151.225 220.400 C 151.115 220.400,152.094 221.480,153.400 222.800 M198.705 220.683 C 199.202 220.779,199.922 220.775,200.305 220.675 C 200.687 220.575,200.280 220.496,199.400 220.501 C 198.520 220.505,198.207 220.587,198.705 220.683 M241.795 226.100 L 236.200 231.800 241.986 226.200 C 245.168 223.120,247.853 220.555,247.953 220.500 C 248.052 220.445,247.966 220.400,247.761 220.400 C 247.557 220.400,244.872 222.965,241.795 226.100 M250.100 220.676 C 250.485 220.776,251.115 220.776,251.500 220.676 C 251.885 220.575,251.570 220.493,250.800 220.493 C 250.030 220.493,249.715 220.575,250.100 220.676 M165.983 234.900 C 167.641 236.666,168.000 236.984,168.000 236.683 C 168.000 236.619,167.145 235.764,166.100 234.783 L 164.200 233.000 165.983 234.900 M293.200 240.600 C 295.060 242.470,296.672 244.000,296.782 244.000 C 296.892 244.000,295.460 242.470,293.600 240.600 C 291.740 238.730,290.128 237.200,290.018 237.200 C 289.908 237.200,291.340 238.730,293.200 240.600 M105.200 240.600 C 103.561 242.250,102.310 243.600,102.420 243.600 C 102.530 243.600,103.961 242.250,105.600 240.600 C 107.239 238.950,108.490 237.600,108.380 237.600 C 108.270 237.600,106.839 238.950,105.200 240.600 M155.000 247.200 C 160.277 252.480,164.684 256.800,164.794 256.800 C 164.904 256.800,160.677 252.480,155.400 247.200 C 150.123 241.920,145.716 237.600,145.606 237.600 C 145.496 237.600,149.723 241.920,155.000 247.200 M180.000 249.000 C 185.607 254.610,190.284 259.200,190.394 259.200 C 190.504 259.200,186.007 254.610,180.400 249.000 C 174.793 243.390,170.116 238.800,170.006 238.800 C 169.896 238.800,174.393 243.390,180.000 249.000 M240.397 250.300 L 231.400 259.400 240.500 250.403 C 248.956 242.044,249.780 241.200,249.497 241.200 C 249.440 241.200,245.345 245.295,240.397 250.300 M213.597 253.900 L 205.000 262.600 213.700 254.003 C 221.784 246.016,222.580 245.200,222.297 245.200 C 222.240 245.200,218.325 249.115,213.597 253.900 M281.600 251.800 C 282.346 252.570,283.047 253.200,283.157 253.200 C 283.267 253.200,282.746 252.570,282.000 251.800 C 281.254 251.030,280.553 250.400,280.443 250.400 C 280.333 250.400,280.854 251.030,281.600 251.800 M306.828 260.200 C 306.828 260.420,307.086 261.050,307.400 261.600 C 307.714 262.150,307.972 262.420,307.972 262.200 C 307.972 261.980,307.714 261.350,307.400 260.800 C 307.086 260.250,306.828 259.980,306.828 260.200 M182.000 273.800 C 186.946 278.750,191.083 282.800,191.193 282.800 C 191.303 282.800,187.346 278.750,182.400 273.800 C 177.454 268.850,173.317 264.800,173.207 264.800 C 173.097 264.800,177.054 268.850,182.000 273.800 M213.400 276.800 C 210.106 280.100,207.500 282.800,207.610 282.800 C 207.720 282.800,210.506 280.100,213.800 276.800 C 217.094 273.500,219.700 270.800,219.590 270.800 C 219.480 270.800,216.694 273.500,213.400 276.800 M311.634 275.400 C 311.622 275.840,311.787 276.470,312.000 276.800 C 312.514 277.595,312.514 276.596,312.000 275.400 L 311.656 274.600 311.634 275.400 M86.493 278.800 C 86.493 279.570,86.575 279.885,86.676 279.500 C 86.776 279.115,86.776 278.485,86.676 278.100 C 86.575 277.715,86.493 278.030,86.493 278.800 M86.155 286.200 C 86.156 289.060,86.220 290.178,86.297 288.683 C 86.374 287.189,86.374 284.849,86.296 283.483 C 86.218 282.118,86.155 283.340,86.155 286.200 M296.128 284.000 C 296.128 285.430,296.201 286.015,296.289 285.300 C 296.378 284.585,296.378 283.415,296.289 282.700 C 296.201 281.985,296.128 282.570,296.128 284.000 M102.544 286.000 C 102.544 288.090,102.612 288.945,102.694 287.900 C 102.776 286.855,102.776 285.145,102.694 284.100 C 102.612 283.055,102.544 283.910,102.544 286.000 M311.644 294.844 C 311.062 296.514,311.341 296.792,312.000 295.200 C 312.279 294.526,312.414 293.881,312.300 293.767 C 312.186 293.653,311.891 294.138,311.644 294.844 M105.983 296.100 C 107.641 297.866,108.000 298.184,108.000 297.883 C 108.000 297.819,107.145 296.964,106.100 295.983 L 104.200 294.200 105.983 296.100 M309.478 300.205 C 309.112 300.972,308.895 301.600,308.996 301.600 C 309.270 301.600,310.484 299.151,310.301 298.968 C 310.214 298.881,309.844 299.438,309.478 300.205 M113.300 300.276 C 113.685 300.376,114.315 300.376,114.700 300.276 C 115.085 300.175,114.770 300.093,114.000 300.093 C 113.230 300.093,112.915 300.175,113.300 300.276 M303.986 307.900 L 301.800 310.200 304.100 308.014 C 306.237 305.982,306.583 305.600,306.286 305.600 C 306.224 305.600,305.189 306.635,303.986 307.900 M94.600 308.000 C 95.683 309.100,96.660 310.000,96.770 310.000 C 96.880 310.000,96.083 309.100,95.000 308.000 C 93.917 306.900,92.940 306.000,92.830 306.000 C 92.720 306.000,93.517 306.900,94.600 308.000 M298.300 312.229 C 296.805 313.040,296.896 313.378,298.400 312.600 C 299.060 312.259,299.600 311.894,299.600 311.790 C 299.600 311.532,299.557 311.547,298.300 312.229 M112.000 316.800 C 112.000 317.020,112.461 317.200,113.024 317.200 C 113.604 317.200,113.940 317.027,113.800 316.800 C 113.664 316.580,113.203 316.400,112.776 316.400 C 112.349 316.400,112.000 316.580,112.000 316.800 M285.800 316.800 C 285.664 317.020,285.923 317.200,286.376 317.200 C 286.829 317.200,287.200 317.020,287.200 316.800 C 287.200 316.580,286.941 316.400,286.624 316.400 C 286.307 316.400,285.936 316.580,285.800 316.800 " stroke="none" fill="#80c5d9" fill-rule="evenodd"></path><path id="path4" d="M176.200 68.614 C 174.585 69.354,175.551 69.355,177.254 68.616 C 177.994 68.294,178.330 68.039,178.000 68.048 C 177.670 68.057,176.860 68.312,176.200 68.614 M198.833 78.144 C 198.925 78.223,199.540 78.408,200.200 78.556 C 201.076 78.752,201.238 78.715,200.800 78.418 C 200.260 78.053,198.432 77.798,198.833 78.144 M203.000 79.571 C 203.880 79.994,204.870 80.347,205.200 80.355 C 205.886 80.371,203.839 79.427,202.374 79.051 C 201.838 78.914,202.120 79.148,203.000 79.571 M196.518 88.298 C 198.233 88.373,200.933 88.372,202.518 88.297 C 204.103 88.221,202.700 88.159,199.400 88.160 C 196.100 88.161,194.803 88.222,196.518 88.298 M206.561 95.600 C 206.561 99.010,206.622 100.405,206.697 98.700 C 206.772 96.995,206.772 94.205,206.697 92.500 C 206.622 90.795,206.561 92.190,206.561 95.600 M241.426 93.765 C 243.444 94.644,244.726 94.859,243.000 94.029 C 242.120 93.606,241.130 93.253,240.800 93.245 C 240.470 93.238,240.752 93.472,241.426 93.765 M134.178 106.000 C 134.178 112.710,134.232 115.455,134.299 112.100 C 134.366 108.745,134.366 103.255,134.299 99.900 C 134.232 96.545,134.178 99.290,134.178 106.000 M153.400 95.014 C 152.400 95.496,152.366 95.551,153.200 95.348 C 154.333 95.071,155.607 94.421,155.000 94.430 C 154.780 94.433,154.060 94.696,153.400 95.014 M264.576 105.400 C 264.576 111.560,264.632 114.024,264.699 110.876 C 264.767 107.727,264.767 102.687,264.699 99.676 C 264.631 96.664,264.576 99.240,264.576 105.400 M151.383 114.200 C 151.383 123.660,151.436 127.473,151.500 122.673 C 151.564 117.873,151.563 110.133,151.499 105.473 C 151.436 100.813,151.383 104.740,151.383 114.200 M247.383 114.000 C 247.383 123.350,247.436 127.175,247.500 122.500 C 247.564 117.825,247.564 110.175,247.500 105.500 C 247.436 100.825,247.383 104.650,247.383 114.000 M183.317 101.497 C 184.811 101.574,187.151 101.574,188.517 101.496 C 189.882 101.418,188.660 101.355,185.800 101.355 C 182.940 101.356,181.822 101.420,183.317 101.497 M210.700 101.496 C 212.075 101.574,214.325 101.574,215.700 101.496 C 217.075 101.418,215.950 101.354,213.200 101.354 C 210.450 101.354,209.325 101.418,210.700 101.496 M220.087 108.424 C 220.000 113.872,219.764 114.835,218.400 115.322 C 217.923 115.493,217.941 115.543,218.491 115.568 C 220.029 115.639,220.432 114.033,220.299 108.352 L 220.175 103.000 220.087 108.424 M206.488 121.471 C 206.417 126.374,206.279 127.664,205.771 128.171 C 205.426 128.517,205.329 128.800,205.557 128.800 C 206.547 128.800,206.818 127.025,206.699 121.306 L 206.577 115.400 206.488 121.471 M264.924 120.200 C 264.926 121.520,265.001 122.012,265.090 121.293 C 265.179 120.574,265.177 119.494,265.086 118.893 C 264.995 118.292,264.922 118.880,264.924 120.200 M133.714 121.400 C 133.717 122.500,133.795 122.903,133.887 122.295 C 133.979 121.686,133.977 120.786,133.882 120.295 C 133.787 119.803,133.711 120.300,133.714 121.400 M133.301 125.000 C 133.305 125.880,133.387 126.193,133.483 125.695 C 133.579 125.198,133.575 124.478,133.475 124.095 C 133.375 123.713,133.296 124.120,133.301 125.000 M265.693 127.600 C 265.693 128.370,265.775 128.685,265.876 128.300 C 265.976 127.915,265.976 127.285,265.876 126.900 C 265.775 126.515,265.693 126.830,265.693 127.600 M196.917 129.097 C 198.411 129.174,200.751 129.174,202.117 129.096 C 203.482 129.018,202.260 128.955,199.400 128.955 C 196.540 128.956,195.422 129.020,196.917 129.097 M151.462 132.100 C 151.704 132.492,247.096 132.492,247.338 132.100 C 247.440 131.935,225.868 131.800,199.400 131.800 C 172.932 131.800,151.360 131.935,151.462 132.100 M266.868 134.600 C 266.862 135.040,267.011 135.760,267.200 136.200 C 267.638 137.219,267.638 136.168,267.200 134.800 C 266.943 133.996,266.877 133.957,266.868 134.600 M267.656 138.000 C 267.656 138.330,267.811 138.960,268.000 139.400 C 268.217 139.904,268.344 139.978,268.344 139.600 C 268.344 139.270,268.189 138.640,268.000 138.200 C 267.783 137.696,267.656 137.622,267.656 138.000 M179.131 149.100 C 190.422 149.159,208.782 149.159,219.931 149.100 C 231.079 149.041,221.840 148.993,199.400 148.993 C 176.960 148.993,167.839 149.041,179.131 149.100 M242.068 151.000 C 242.062 151.440,242.211 152.160,242.400 152.600 C 242.838 153.619,242.838 152.568,242.400 151.200 C 242.143 150.396,242.077 150.357,242.068 151.000 M155.853 153.636 C 155.714 154.331,155.623 155.553,155.651 156.350 C 155.685 157.330,155.810 156.963,156.035 155.218 C 156.389 152.483,156.277 151.513,155.853 153.636 M242.909 155.600 C 242.909 156.590,242.987 156.995,243.082 156.500 C 243.178 156.005,243.178 155.195,243.082 154.700 C 242.987 154.205,242.909 154.610,242.909 155.600 M124.844 156.044 C 124.598 156.751,124.466 157.400,124.552 157.485 C 124.638 157.571,124.909 157.062,125.156 156.356 C 125.402 155.649,125.534 155.000,125.448 154.915 C 125.362 154.829,125.091 155.338,124.844 156.044 M243.278 160.600 C 243.231 162.360,243.111 164.790,243.010 166.000 L 242.826 168.200 243.226 166.000 C 243.446 164.790,243.567 162.360,243.494 160.600 L 243.363 157.400 243.278 160.600 M155.337 161.400 C 155.339 163.160,155.409 163.830,155.493 162.889 C 155.578 161.949,155.577 160.509,155.491 159.689 C 155.405 158.870,155.336 159.640,155.337 161.400 M276.028 161.800 C 276.028 162.020,276.286 162.650,276.600 163.200 C 276.914 163.750,277.172 164.020,277.172 163.800 C 277.172 163.580,276.914 162.950,276.600 162.400 C 276.286 161.850,276.028 161.580,276.028 161.800 M120.075 167.419 C 118.870 169.900,119.005 170.247,120.246 167.861 C 120.801 166.794,121.187 165.853,121.103 165.770 C 121.019 165.686,120.557 166.428,120.075 167.419 M139.314 169.000 C 139.317 170.100,139.395 170.503,139.487 169.895 C 139.579 169.286,139.577 168.386,139.482 167.895 C 139.387 167.403,139.311 167.900,139.314 169.000 M278.836 168.200 C 278.836 168.420,279.270 169.410,279.800 170.400 C 280.330 171.390,280.764 172.020,280.764 171.800 C 280.764 171.580,280.330 170.590,279.800 169.600 C 279.270 168.610,278.836 167.980,278.836 168.200 M242.200 170.000 C 242.048 170.691,242.007 171.341,242.109 171.442 C 242.211 171.544,242.409 171.053,242.550 170.350 C 242.883 168.683,242.560 168.360,242.200 170.000 M156.468 170.400 C 156.488 171.439,157.118 173.146,157.132 172.200 C 157.138 171.760,156.989 171.040,156.800 170.600 C 156.589 170.110,156.461 170.032,156.468 170.400 M116.875 174.219 C 115.670 176.700,115.805 177.047,117.046 174.661 C 117.601 173.594,117.987 172.653,117.903 172.570 C 117.819 172.486,117.357 173.228,116.875 174.219 M135.265 174.617 C 134.595 176.088,134.723 176.402,135.447 175.065 C 135.786 174.440,135.988 173.854,135.896 173.763 C 135.805 173.671,135.521 174.056,135.265 174.617 M263.344 174.928 C 264.042 176.598,265.163 178.682,265.184 178.348 C 265.208 177.968,263.167 173.600,262.965 173.600 C 262.868 173.600,263.039 174.198,263.344 174.928 M258.054 175.467 C 258.025 175.944,257.896 176.664,257.770 177.067 C 257.552 177.761,257.564 177.762,257.996 177.088 C 258.247 176.697,258.375 175.977,258.281 175.488 C 258.109 174.601,258.109 174.601,258.054 175.467 M282.039 175.000 C 282.039 175.220,282.651 176.570,283.400 178.000 C 284.149 179.430,284.761 180.420,284.761 180.200 C 284.761 179.980,284.149 178.630,283.400 177.200 C 282.651 175.770,282.039 174.780,282.039 175.000 M239.472 178.219 C 238.532 180.189,238.664 180.524,239.647 178.662 C 240.093 177.816,240.387 177.054,240.301 176.967 C 240.214 176.881,239.841 177.444,239.472 178.219 M133.265 179.017 C 132.595 180.488,132.723 180.802,133.447 179.465 C 133.786 178.840,133.988 178.254,133.896 178.163 C 133.805 178.071,133.521 178.456,133.265 179.017 M159.600 179.353 C 159.600 179.782,160.790 182.000,161.021 182.000 C 161.131 182.000,160.923 181.415,160.559 180.700 C 159.817 179.240,159.600 178.936,159.600 179.353 M266.028 180.600 C 266.028 180.820,266.286 181.450,266.600 182.000 C 266.914 182.550,267.172 182.820,267.172 182.600 C 267.172 182.380,266.914 181.750,266.600 181.200 C 266.286 180.650,266.028 180.380,266.028 180.600 M142.400 181.531 C 142.400 181.800,143.030 183.271,143.800 184.800 C 144.570 186.329,145.200 187.675,145.200 187.790 C 145.200 187.906,141.645 188.041,137.300 188.091 L 129.400 188.182 137.171 188.300 C 146.364 188.439,146.061 188.613,144.016 184.385 C 143.127 182.546,142.400 181.262,142.400 181.531 M287.800 186.800 C 289.014 189.220,290.097 191.200,290.207 191.200 C 290.317 191.200,289.414 189.220,288.200 186.800 C 286.986 184.380,285.903 182.400,285.793 182.400 C 285.683 182.400,286.586 184.380,287.800 186.800 M235.199 185.700 C 234.610 186.504,234.513 186.784,234.945 186.433 C 235.601 185.900,236.593 184.400,236.289 184.400 C 236.213 184.400,235.722 184.985,235.199 185.700 M164.175 186.932 C 164.791 187.739,165.376 188.400,165.475 188.400 C 165.753 188.400,164.021 186.060,163.509 185.744 C 163.259 185.589,163.559 186.124,164.175 186.932 M253.462 188.100 C 253.564 188.265,257.226 188.400,261.600 188.400 C 265.974 188.400,269.636 188.265,269.738 188.100 C 269.840 187.935,266.178 187.800,261.600 187.800 C 257.022 187.800,253.360 187.935,253.462 188.100 M230.800 191.000 C 229.828 191.990,229.123 192.800,229.233 192.800 C 229.343 192.800,230.228 191.990,231.200 191.000 C 232.172 190.010,232.877 189.200,232.767 189.200 C 232.657 189.200,231.772 190.010,230.800 191.000 M166.800 190.125 C 166.800 190.194,167.385 190.779,168.100 191.425 L 169.400 192.600 168.225 191.300 C 167.130 190.088,166.800 189.816,166.800 190.125 M108.181 191.637 C 107.829 192.318,107.612 192.945,107.699 193.032 C 107.786 193.119,108.156 192.562,108.522 191.795 C 109.344 190.070,109.059 189.938,108.181 191.637 M170.000 192.925 C 170.000 192.994,170.585 193.579,171.300 194.225 L 172.600 195.400 171.425 194.100 C 170.330 192.888,170.000 192.616,170.000 192.925 M106.914 196.600 C 106.917 197.700,106.995 198.103,107.087 197.495 C 107.179 196.886,107.177 195.986,107.082 195.495 C 106.987 195.003,106.911 195.500,106.914 196.600 M180.000 199.800 C 180.550 200.114,181.180 200.372,181.400 200.372 C 181.620 200.372,181.350 200.114,180.800 199.800 C 180.250 199.486,179.620 199.228,179.400 199.228 C 179.180 199.228,179.450 199.486,180.000 199.800 M289.426 201.913 C 288.015 203.603,287.988 203.675,289.160 202.600 C 290.271 201.582,291.488 199.970,291.114 200.013 C 291.051 200.020,290.292 200.875,289.426 201.913 M205.200 203.600 C 204.408 203.854,204.367 203.920,205.000 203.920 C 205.440 203.920,206.250 203.776,206.800 203.600 C 207.592 203.346,207.633 203.280,207.000 203.280 C 206.560 203.280,205.750 203.424,205.200 203.600 M113.913 204.872 C 114.291 205.021,124.500 205.117,136.600 205.085 C 148.700 205.053,156.350 204.976,153.600 204.916 C 141.795 204.654,113.285 204.623,113.913 204.872 M251.300 205.100 C 257.405 205.162,267.395 205.162,273.500 205.100 C 279.605 205.038,274.610 204.987,262.400 204.987 C 250.190 204.987,245.195 205.038,251.300 205.100 M233.487 210.168 C 231.126 211.802,230.564 212.375,232.306 211.372 C 233.650 210.599,235.956 208.823,235.600 208.836 C 235.490 208.841,234.539 209.440,233.487 210.168 M224.000 215.400 C 223.450 215.714,223.180 215.972,223.400 215.972 C 223.620 215.972,224.250 215.714,224.800 215.400 C 225.350 215.086,225.620 214.828,225.400 214.828 C 225.180 214.828,224.550 215.086,224.000 215.400 M220.200 217.014 C 219.200 217.496,219.166 217.551,220.000 217.348 C 221.133 217.071,222.407 216.421,221.800 216.430 C 221.580 216.433,220.860 216.696,220.200 217.014 M182.000 218.382 C 182.330 218.605,182.945 218.791,183.367 218.794 C 184.390 218.802,184.071 218.573,182.600 218.244 C 181.724 218.048,181.562 218.085,182.000 218.382 M215.600 218.400 C 214.776 218.664,214.741 218.726,215.400 218.754 C 215.840 218.773,216.470 218.613,216.800 218.400 C 217.501 217.947,217.014 217.947,215.600 218.400 M208.200 220.000 L 206.600 220.286 208.000 220.315 C 208.770 220.331,209.760 220.189,210.200 220.000 C 211.143 219.595,210.462 219.595,208.200 220.000 M149.600 220.290 C 151.324 220.434,151.679 220.714,158.000 226.920 L 164.600 233.400 158.005 226.700 L 151.409 220.000 149.605 220.070 L 147.800 220.140 149.600 220.290 M190.305 220.283 C 190.802 220.379,191.522 220.375,191.905 220.275 C 192.287 220.175,191.880 220.096,191.000 220.101 C 190.120 220.105,189.807 220.187,190.305 220.283 M248.505 220.287 C 249.114 220.379,250.014 220.377,250.505 220.282 C 250.997 220.187,250.500 220.111,249.400 220.114 C 248.300 220.117,247.897 220.195,248.505 220.287 M196.400 220.848 C 198.050 221.009,200.750 221.009,202.400 220.849 C 204.892 220.608,204.384 220.559,199.400 220.558 C 194.415 220.557,193.907 220.606,196.400 220.848 M236.197 231.300 L 225.400 242.200 236.300 231.403 C 242.295 225.464,247.200 220.559,247.200 220.503 C 247.200 220.220,246.231 221.171,236.197 231.300 M115.295 231.811 C 114.143 232.586,113.200 233.308,113.200 233.415 C 113.200 233.521,114.190 232.951,115.400 232.147 C 117.322 230.871,117.887 230.400,117.495 230.400 C 117.437 230.400,116.447 231.035,115.295 231.811 M286.488 234.213 C 287.086 234.843,287.647 235.277,287.735 235.179 C 287.823 235.080,287.333 234.565,286.647 234.034 L 285.400 233.069 286.488 234.213 M147.800 240.400 C 149.328 241.940,150.669 243.200,150.779 243.200 C 150.889 243.200,149.728 241.940,148.200 240.400 C 146.672 238.860,145.331 237.600,145.221 237.600 C 145.111 237.600,146.272 238.860,147.800 240.400 M245.396 245.700 L 237.400 253.800 245.500 245.804 C 253.026 238.374,253.781 237.600,253.496 237.600 C 253.439 237.600,249.794 241.245,245.396 245.700 M290.800 237.710 C 290.800 237.771,292.195 239.166,293.900 240.810 L 297.000 243.800 294.010 240.700 C 291.233 237.821,290.800 237.417,290.800 237.710 M104.788 240.700 L 102.200 243.400 104.900 240.812 C 106.385 239.388,107.600 238.173,107.600 238.112 C 107.600 237.817,107.193 238.192,104.788 240.700 M133.200 241.000 C 132.650 241.314,132.380 241.572,132.600 241.572 C 132.820 241.572,133.450 241.314,134.000 241.000 C 134.550 240.686,134.820 240.428,134.600 240.428 C 134.380 240.428,133.750 240.686,133.200 241.000 M187.797 256.300 C 193.956 262.515,199.177 267.600,199.401 267.600 C 199.624 267.600,203.675 263.685,208.403 258.900 L 217.000 250.200 208.397 258.700 C 203.665 263.375,199.616 267.200,199.399 267.200 C 199.183 267.200,193.964 262.205,187.803 256.100 L 176.600 245.000 187.797 256.300 M121.000 248.649 L 119.000 250.481 121.100 248.803 C 122.918 247.351,123.495 246.776,123.100 246.808 C 123.045 246.813,122.100 247.641,121.000 248.649 M155.983 248.500 C 157.641 250.266,158.000 250.584,158.000 250.283 C 158.000 250.219,157.145 249.364,156.100 248.383 L 154.200 246.600 155.983 248.500 M281.400 252.000 C 282.483 253.100,283.460 254.000,283.570 254.000 C 283.680 254.000,282.883 253.100,281.800 252.000 C 280.717 250.900,279.740 250.000,279.630 250.000 C 279.520 250.000,280.317 250.900,281.400 252.000 M116.981 252.100 L 115.400 253.800 117.100 252.219 C 118.681 250.748,118.984 250.400,118.681 250.400 C 118.616 250.400,117.851 251.165,116.981 252.100 M94.200 254.800 C 93.859 255.460,93.669 256.000,93.779 256.000 C 93.889 256.000,94.259 255.460,94.600 254.800 C 94.941 254.140,95.131 253.600,95.021 253.600 C 94.911 253.600,94.541 254.140,94.200 254.800 M305.683 257.387 C 306.385 258.810,307.025 259.908,307.106 259.828 C 307.285 259.649,304.866 254.800,304.598 254.800 C 304.493 254.800,304.982 255.964,305.683 257.387 M174.600 266.800 C 180.097 272.300,184.684 276.800,184.794 276.800 C 184.904 276.800,180.497 272.300,175.000 266.800 C 169.503 261.300,164.916 256.800,164.806 256.800 C 164.696 256.800,169.103 261.300,174.600 266.800 M286.400 258.000 C 286.870 258.660,287.344 259.200,287.454 259.200 C 287.564 259.200,287.270 258.660,286.800 258.000 C 286.330 257.340,285.856 256.800,285.746 256.800 C 285.636 256.800,285.930 257.340,286.400 258.000 M90.865 261.417 C 90.195 262.888,90.323 263.202,91.047 261.865 C 91.386 261.240,91.588 260.654,91.496 260.563 C 91.405 260.471,91.121 260.856,90.865 261.417 M217.889 272.711 L 207.584 283.022 207.700 291.611 L 207.817 300.200 207.908 291.603 L 208.000 283.006 218.297 272.703 C 223.961 267.036,228.504 262.400,228.394 262.400 C 228.284 262.400,223.557 267.040,217.889 272.711 M291.078 265.795 C 291.444 266.562,291.814 267.119,291.901 267.032 C 292.084 266.849,290.870 264.400,290.596 264.400 C 290.495 264.400,290.712 265.028,291.078 265.795 M88.250 268.850 C 87.917 270.517,88.240 270.840,88.600 269.200 C 88.752 268.509,88.793 267.859,88.691 267.758 C 88.589 267.656,88.391 268.147,88.250 268.850 M311.248 272.600 C 311.264 273.577,312.329 276.442,312.364 275.600 C 312.377 275.270,312.129 274.280,311.812 273.400 C 311.495 272.520,311.241 272.160,311.248 272.600 M104.250 274.450 C 103.917 276.117,104.240 276.440,104.600 274.800 C 104.752 274.109,104.793 273.459,104.691 273.358 C 104.589 273.256,104.391 273.747,104.250 274.450 M294.480 275.000 C 294.480 275.440,294.624 276.250,294.800 276.800 C 295.054 277.592,295.120 277.633,295.120 277.000 C 295.120 276.560,294.976 275.750,294.800 275.200 C 294.546 274.408,294.480 274.367,294.480 275.000 M103.400 278.400 C 103.246 279.310,103.204 280.138,103.307 280.240 C 103.410 280.343,103.613 279.677,103.760 278.760 C 103.907 277.843,103.948 277.015,103.853 276.920 C 103.758 276.824,103.554 277.490,103.400 278.400 M295.293 279.400 C 295.294 280.060,295.432 281.140,295.600 281.800 C 296.023 283.463,296.042 281.826,295.623 279.800 C 295.345 278.455,295.292 278.391,295.293 279.400 M86.093 280.000 C 86.093 280.770,86.175 281.085,86.276 280.700 C 86.376 280.315,86.376 279.685,86.276 279.300 C 86.175 278.915,86.093 279.230,86.093 280.000 M102.953 285.800 C 102.953 288.440,103.018 289.468,103.097 288.084 C 103.175 286.701,103.174 284.541,103.095 283.284 C 103.016 282.028,102.952 283.160,102.953 285.800 M85.753 286.200 C 85.753 288.840,85.818 289.868,85.897 288.484 C 85.975 287.101,85.974 284.941,85.895 283.684 C 85.816 282.428,85.752 283.560,85.753 286.200 M190.300 282.399 C 190.667 282.811,190.800 285.229,190.800 291.478 L 190.800 299.996 153.000 300.101 L 115.200 300.206 153.100 300.203 L 191.000 300.200 191.108 291.555 C 191.206 283.680,191.152 282.863,190.508 282.375 C 189.905 281.918,189.874 281.921,190.300 282.399 M295.449 290.215 C 295.312 290.573,295.215 291.166,295.234 291.533 C 295.253 291.900,295.427 291.669,295.621 291.020 C 295.998 289.758,295.865 289.133,295.449 290.215 M103.450 291.600 C 103.805 293.014,104.705 294.696,105.297 295.051 C 105.694 295.290,105.698 295.228,105.318 294.757 C 105.052 294.429,104.467 293.360,104.017 292.380 C 103.567 291.401,103.312 291.050,103.450 291.600 M311.685 295.773 C 311.015 297.244,311.078 297.552,311.830 296.479 C 312.176 295.984,312.395 295.384,312.315 295.144 C 312.235 294.905,311.952 295.188,311.685 295.773 M291.800 296.636 C 291.140 297.189,289.970 297.985,289.200 298.404 C 288.430 298.822,287.994 299.173,288.231 299.182 C 288.762 299.204,292.140 296.995,292.810 296.188 C 293.520 295.332,293.167 295.489,291.800 296.636 M88.000 298.549 C 88.000 298.981,89.589 302.000,89.816 302.000 C 89.926 302.000,89.630 301.235,89.159 300.300 C 88.232 298.461,88.000 298.111,88.000 298.549 M227.330 300.300 C 237.852 300.359,254.952 300.359,265.330 300.300 C 275.709 300.241,267.100 300.192,246.200 300.192 C 225.300 300.192,216.809 300.241,227.330 300.300 M307.875 303.471 C 307.053 304.720,306.709 305.445,307.111 305.081 C 307.799 304.458,309.814 301.200,309.511 301.200 C 309.434 301.200,308.698 302.222,307.875 303.471 M91.191 304.388 C 91.657 305.041,92.242 305.702,92.491 305.856 C 92.741 306.011,92.441 305.476,91.825 304.668 C 90.488 302.915,89.984 302.692,91.191 304.388 M304.185 308.100 L 302.200 310.200 304.300 308.215 C 305.455 307.123,306.400 306.178,306.400 306.115 C 306.400 305.817,306.029 306.149,304.185 308.100 M94.383 308.100 C 95.364 309.145,96.219 310.000,96.283 310.000 C 96.584 310.000,96.266 309.641,94.500 307.983 L 92.600 306.200 94.383 308.100 M97.800 310.999 C 98.460 311.573,99.540 312.326,100.200 312.672 C 101.845 313.535,101.406 313.141,98.800 311.414 C 97.390 310.480,97.031 310.331,97.800 310.999 M300.400 311.249 C 299.006 312.471,299.005 312.472,300.288 311.619 C 300.996 311.148,301.682 310.591,301.812 310.381 C 302.197 309.757,301.877 309.954,300.400 311.249 M297.200 313.200 C 296.430 313.622,295.944 313.974,296.120 313.983 C 296.544 314.005,298.800 312.832,298.800 312.590 C 298.800 312.328,298.777 312.337,297.200 313.200 M103.200 314.200 C 103.750 314.514,104.380 314.772,104.600 314.772 C 104.820 314.772,104.550 314.514,104.000 314.200 C 103.450 313.886,102.820 313.628,102.600 313.628 C 102.380 313.628,102.650 313.886,103.200 314.200 M110.400 316.800 C 110.400 317.020,110.760 317.200,111.200 317.200 C 111.640 317.200,112.000 317.020,112.000 316.800 C 112.000 316.580,111.640 316.400,111.200 316.400 C 110.760 316.400,110.400 316.580,110.400 316.800 M287.200 316.800 C 287.200 317.020,287.470 317.200,287.800 317.200 C 288.130 317.200,288.400 317.020,288.400 316.800 C 288.400 316.580,288.130 316.400,287.800 316.400 C 287.470 316.400,287.200 316.580,287.200 316.800 " stroke="none" fill="#64bcd4" fill-rule="evenodd"></path></g></svg>